<svg width="108" height="108" viewBox="0 0 108 108" fill="none" xmlns="http://www.w3.org/2000/svg">
<g clip-path="url(#clip0_700_11417)">
<rect y="40" width="8" height="8" fill="#5D606D"/>
<rect y="40" width="8" height="8" fill="#5D606D"/>
<rect width="8" height="8" transform="matrix(1 0 0 -1 0 68)" fill="#5D606D"/>
<rect y="50" width="8" height="8" fill="#5D606D"/>
<rect y="50" width="8" height="8" fill="#5D606D"/>
<rect width="8" height="8" transform="matrix(1 0 0 -1 0 58)" fill="#5D606D"/>
<rect x="10" y="20" width="8" height="8" fill="#5D606D"/>
<rect x="10" y="20" width="8" height="8" fill="#5D606D"/>
<rect width="8" height="8" transform="matrix(1 0 0 -1 10 88)" fill="#5D606D"/>
<rect x="10" y="30" width="8" height="8" fill="#5D606D"/>
<rect x="10" y="30" width="8" height="8" fill="#5D606D"/>
<rect width="8" height="8" transform="matrix(1 0 0 -1 10 78)" fill="#5D606D"/>
<rect x="10" y="40" width="8" height="8" fill="#5D606D"/>
<rect x="10" y="40" width="8" height="8" fill="#5D606D"/>
<rect width="8" height="8" transform="matrix(1 0 0 -1 10 68)" fill="#5D606D"/>
<rect x="10" y="50" width="8" height="8" fill="#5D606D"/>
<rect x="10" y="50" width="8" height="8" fill="#5D606D"/>
<rect width="8" height="8" transform="matrix(1 0 0 -1 10 58)" fill="#5D606D"/>
<rect x="20" y="20" width="8" height="8" fill="#5D606D"/>
<rect x="20" y="20" width="8" height="8" fill="#5D606D"/>
<rect width="8" height="8" transform="matrix(1 0 0 -1 20 88)" fill="#5D606D"/>
<rect x="20" y="30" width="8" height="8" fill="#5D606D"/>
<rect x="20" y="30" width="8" height="8" fill="#5D606D"/>
<rect width="8" height="8" transform="matrix(1 0 0 -1 20 78)" fill="#5D606D"/>
<rect x="20" y="40" width="8" height="8" fill="#5D606D"/>
<rect x="20" y="40" width="8" height="8" fill="#5D606D"/>
<rect width="8" height="8" transform="matrix(1 0 0 -1 20 68)" fill="#5D606D"/>
<rect x="20" y="50" width="8" height="8" fill="#5D606D"/>
<rect x="20" y="50" width="8" height="8" fill="#5D606D"/>
<rect width="8" height="8" transform="matrix(1 0 0 -1 20 58)" fill="#5D606D"/>
<rect x="30" y="10" width="8" height="8" fill="#5D606D"/>
<rect x="30" y="10" width="8" height="8" fill="#5D606D"/>
<rect width="8" height="8" transform="matrix(1 0 0 -1 30 98)" fill="#5D606D"/>
<rect x="20" y="10" width="8" height="8" fill="#5D606D"/>
<rect x="20" y="10" width="8" height="8" fill="#5D606D"/>
<rect width="8" height="8" transform="matrix(1 0 0 -1 20 98)" fill="#5D606D"/>
<rect x="30" y="20" width="8" height="8" fill="#5D606D"/>
<rect x="30" y="20" width="8" height="8" fill="#5D606D"/>
<rect width="8" height="8" transform="matrix(1 0 0 -1 30 88)" fill="#5D606D"/>
<rect x="30" y="30" width="8" height="8" fill="#5D606D"/>
<rect x="30" y="30" width="8" height="8" fill="#5D606D"/>
<rect width="8" height="8" transform="matrix(1 0 0 -1 30 78)" fill="#5D606D"/>
<rect x="30" y="40" width="8" height="8" fill="#5D606D"/>
<rect x="30" y="40" width="8" height="8" fill="#5D606D"/>
<rect width="8" height="8" transform="matrix(1 0 0 -1 30 68)" fill="#5D606D"/>
<rect x="30" y="50" width="8" height="8" fill="#5D606D"/>
<rect x="30" y="50" width="8" height="8" fill="#5D606D"/>
<rect width="8" height="8" transform="matrix(1 0 0 -1 30 58)" fill="#5D606D"/>
<rect x="40" width="8" height="8" fill="#5D606D"/>
<rect x="40" width="8" height="8" fill="#5D606D"/>
<rect width="8" height="8" transform="matrix(1 0 0 -1 40 108)" fill="#5D606D"/>
<rect x="40" y="10" width="8" height="8" fill="#5D606D"/>
<rect x="40" y="10" width="8" height="8" fill="#5D606D"/>
<rect width="8" height="8" transform="matrix(1 0 0 -1 40 98)" fill="#5D606D"/>
<rect x="40" y="20" width="8" height="8" fill="#5D606D"/>
<rect x="40" y="20" width="8" height="8" fill="#5D606D"/>
<rect width="8" height="8" transform="matrix(1 0 0 -1 40 88)" fill="#5D606D"/>
<rect x="40" y="30" width="8" height="8" fill="#5D606D"/>
<rect x="40" y="30" width="8" height="8" fill="#5D606D"/>
<rect width="8" height="8" transform="matrix(1 0 0 -1 40 78)" fill="#5D606D"/>
<rect x="40" y="40" width="8" height="8" fill="#5D606D"/>
<rect x="40" y="40" width="8" height="8" fill="#5D606D"/>
<rect width="8" height="8" transform="matrix(1 0 0 -1 40 68)" fill="#5D606D"/>
<rect x="40" y="50" width="8" height="8" fill="#5D606D"/>
<rect x="40" y="50" width="8" height="8" fill="#5D606D"/>
<rect width="8" height="8" transform="matrix(1 0 0 -1 40 58)" fill="#5D606D"/>
<rect x="50" width="8" height="8" fill="#5D606D"/>
<rect x="50" width="8" height="8" fill="#5D606D"/>
<rect width="8" height="8" transform="matrix(1 0 0 -1 50 108)" fill="#5D606D"/>
<rect x="50" y="10" width="8" height="8" fill="#5D606D"/>
<rect x="50" y="10" width="8" height="8" fill="#5D606D"/>
<rect width="8" height="8" transform="matrix(1 0 0 -1 50 98)" fill="#5D606D"/>
<rect x="50" y="20" width="8" height="8" fill="#5D606D"/>
<rect x="50" y="20" width="8" height="8" fill="#5D606D"/>
<rect width="8" height="8" transform="matrix(1 0 0 -1 50 88)" fill="#5D606D"/>
<rect x="50" y="30" width="8" height="8" fill="#5D606D"/>
<rect x="50" y="30" width="8" height="8" fill="#5D606D"/>
<rect width="8" height="8" transform="matrix(1 0 0 -1 50 78)" fill="#5D606D"/>
<rect x="50" y="40" width="8" height="8" fill="#5D606D"/>
<rect x="50" y="40" width="8" height="8" fill="#5D606D"/>
<rect width="8" height="8" transform="matrix(1 0 0 -1 50 68)" fill="#5D606D"/>
<rect x="50" y="50" width="8" height="8" fill="#5D606D"/>
<rect x="50" y="50" width="8" height="8" fill="#5D606D"/>
<rect width="8" height="8" transform="matrix(1 0 0 -1 50 58)" fill="#5D606D"/>
<rect x="60" width="8" height="8" fill="#5D606D"/>
<rect x="60" width="8" height="8" fill="#5D606D"/>
<rect width="8" height="8" transform="matrix(1 0 0 -1 60 108)" fill="#5D606D"/>
<rect x="60" y="10" width="8" height="8" fill="#5D606D"/>
<rect x="60" y="10" width="8" height="8" fill="#5D606D"/>
<rect width="8" height="8" transform="matrix(1 0 0 -1 60 98)" fill="#5D606D"/>
<rect x="60" y="20" width="8" height="8" fill="#5D606D"/>
<rect x="60" y="20" width="8" height="8" fill="#5D606D"/>
<rect width="8" height="8" transform="matrix(1 0 0 -1 60 88)" fill="#5D606D"/>
<rect x="60" y="30" width="8" height="8" fill="#5D606D"/>
<rect x="60" y="30" width="8" height="8" fill="#5D606D"/>
<rect width="8" height="8" transform="matrix(1 0 0 -1 60 78)" fill="#5D606D"/>
<rect x="60" y="40" width="8" height="8" fill="#5D606D"/>
<rect x="60" y="40" width="8" height="8" fill="#5D606D"/>
<rect width="8" height="8" transform="matrix(1 0 0 -1 60 68)" fill="#5D606D"/>
<rect x="60" y="50" width="8" height="8" fill="#5D606D"/>
<rect x="60" y="50" width="8" height="8" fill="#5D606D"/>
<rect width="8" height="8" transform="matrix(1 0 0 -1 60 58)" fill="#5D606D"/>
<rect x="70" y="10" width="8" height="8" fill="#5D606D"/>
<rect x="70" y="10" width="8" height="8" fill="#5D606D"/>
<rect width="8" height="8" transform="matrix(1 0 0 -1 70 98)" fill="#5D606D"/>
<rect x="70" y="20" width="8" height="8" fill="#5D606D"/>
<rect x="70" y="20" width="8" height="8" fill="#5D606D"/>
<rect width="8" height="8" transform="matrix(1 0 0 -1 70 88)" fill="#5D606D"/>
<rect x="70" y="30" width="8" height="8" fill="#5D606D"/>
<rect x="70" y="30" width="8" height="8" fill="#5D606D"/>
<rect width="8" height="8" transform="matrix(1 0 0 -1 70 78)" fill="#5D606D"/>
<rect x="70" y="40" width="8" height="8" fill="#5D606D"/>
<rect x="70" y="40" width="8" height="8" fill="#5D606D"/>
<rect width="8" height="8" transform="matrix(1 0 0 -1 70 68)" fill="#5D606D"/>
<rect x="70" y="50" width="8" height="8" fill="#5D606D"/>
<rect x="70" y="50" width="8" height="8" fill="#5D606D"/>
<rect width="8" height="8" transform="matrix(1 0 0 -1 70 58)" fill="#5D606D"/>
<rect x="80" y="10" width="8" height="8" fill="#5D606D"/>
<rect x="80" y="10" width="8" height="8" fill="#5D606D"/>
<rect width="8" height="8" transform="matrix(1 0 0 -1 80 98)" fill="#5D606D"/>
<rect x="80" y="20" width="8" height="8" fill="#5D606D"/>
<rect x="80" y="20" width="8" height="8" fill="#5D606D"/>
<rect width="8" height="8" transform="matrix(1 0 0 -1 80 88)" fill="#5D606D"/>
<rect x="80" y="30" width="8" height="8" fill="#5D606D"/>
<rect x="80" y="30" width="8" height="8" fill="#5D606D"/>
<rect width="8" height="8" transform="matrix(1 0 0 -1 80 78)" fill="#5D606D"/>
<rect x="80" y="40" width="8" height="8" fill="#5D606D"/>
<rect x="80" y="40" width="8" height="8" fill="#5D606D"/>
<rect width="8" height="8" transform="matrix(1 0 0 -1 80 68)" fill="#5D606D"/>
<rect x="80" y="50" width="8" height="8" fill="#5D606D"/>
<rect x="80" y="50" width="8" height="8" fill="#5D606D"/>
<rect width="8" height="8" transform="matrix(1 0 0 -1 80 58)" fill="#5D606D"/>
<rect x="90" y="20" width="8" height="8" fill="#5D606D"/>
<rect x="90" y="20" width="8" height="8" fill="#5D606D"/>
<rect width="8" height="8" transform="matrix(1 0 0 -1 90 88)" fill="#5D606D"/>
<rect x="90" y="30" width="8" height="8" fill="#5D606D"/>
<rect x="90" y="30" width="8" height="8" fill="#5D606D"/>
<rect width="8" height="8" transform="matrix(1 0 0 -1 90 78)" fill="#5D606D"/>
<rect x="90" y="40" width="8" height="8" fill="#5D606D"/>
<rect x="90" y="40" width="8" height="8" fill="#5D606D"/>
<rect width="8" height="8" transform="matrix(1 0 0 -1 90 68)" fill="#5D606D"/>
<rect x="90" y="50" width="8" height="8" fill="#5D606D"/>
<rect x="90" y="50" width="8" height="8" fill="#5D606D"/>
<rect width="8" height="8" transform="matrix(1 0 0 -1 90 58)" fill="#5D606D"/>
<rect x="100" y="40" width="8" height="8" fill="#5D606D"/>
<rect x="100" y="40" width="8" height="8" fill="#5D606D"/>
<rect width="8" height="8" transform="matrix(1 0 0 -1 100 68)" fill="#5D606D"/>
<rect x="100" y="50" width="8" height="8" fill="#5D606D"/>
<rect x="100" y="50" width="8" height="8" fill="#5D606D"/>
<rect width="8" height="8" transform="matrix(1 0 0 -1 100 58)" fill="#5D606D"/>
</g>
<defs>
<clipPath id="clip0_700_11417">
<rect width="108" height="108" fill="white"/>
</clipPath>
</defs>
</svg>
