<svg width="24" height="24" viewBox="0 0 24 24" fill="none" xmlns="http://www.w3.org/2000/svg">
<g clip-path="url(#clip0_462_10644)">
<rect y="4.44444" width="1.77778" height="1.77778" fill="#C3C4CC"/>
<rect y="6.66667" width="1.77778" height="1.77778" fill="#C3C4CC"/>
<rect y="8.88889" width="1.77778" height="1.77778" fill="#C3C4CC"/>
<rect y="11.1111" width="1.77778" height="1.77778" fill="#C3C4CC"/>
<rect y="13.3333" width="1.77778" height="1.77778" fill="#C3C4CC"/>
<rect y="15.5556" width="1.77778" height="1.77778" fill="#C3C4CC"/>
<rect x="2.22217" y="2.22223" width="1.77778" height="1.77778" fill="#C3C4CC"/>
<rect x="2.22217" y="4.44444" width="1.77778" height="1.77778" fill="#C3C4CC"/>
<rect x="2.22217" y="6.66667" width="1.77778" height="1.77778" fill="#C3C4CC"/>
<rect x="2.22217" y="8.88889" width="1.77778" height="1.77778" fill="#C3C4CC"/>
<rect x="2.22217" y="11.1111" width="1.77778" height="1.77778" fill="#C3C4CC"/>
<rect x="2.22217" y="13.3333" width="1.77778" height="1.77778" fill="#C3C4CC"/>
<rect x="2.22217" y="15.5556" width="1.77778" height="1.77778" fill="#C3C4CC"/>
<rect x="2.22217" y="17.7778" width="1.77778" height="1.77778" fill="#C3C4CC"/>
<rect x="4.44434" width="1.77778" height="1.77778" fill="#C3C4CC"/>
<rect x="4.44434" y="2.22223" width="1.77778" height="1.77778" fill="#C3C4CC"/>
<rect x="4.44434" y="4.44444" width="1.77778" height="1.77778" fill="#C3C4CC"/>
<rect x="4.44434" y="6.66667" width="1.77778" height="1.77778" fill="#C3C4CC"/>
<rect x="4.44434" y="8.88889" width="1.77778" height="1.77778" fill="#C3C4CC"/>
<rect x="4.44434" y="11.1111" width="1.77778" height="1.77778" fill="#C3C4CC"/>
<rect x="4.44434" y="13.3333" width="1.77778" height="1.77778" fill="#C3C4CC"/>
<rect x="4.44434" y="15.5556" width="1.77778" height="1.77778" fill="#C3C4CC"/>
<rect x="4.44434" y="17.7778" width="1.77778" height="1.77778" fill="#C3C4CC"/>
<rect x="4.44434" y="20" width="1.77778" height="1.77778" fill="#C3C4CC"/>
<rect x="6.6665" width="1.77778" height="1.77778" fill="#C3C4CC"/>
<rect x="6.6665" y="2.22223" width="1.77778" height="1.77778" fill="#C3C4CC"/>
<rect x="6.6665" y="4.44444" width="1.77778" height="1.77778" fill="#C3C4CC"/>
<rect x="6.6665" y="13.3333" width="1.77778" height="1.77778" fill="#C3C4CC"/>
<rect x="6.6665" y="15.5556" width="1.77778" height="1.77778" fill="#C3C4CC"/>
<rect x="6.6665" y="17.7778" width="1.77778" height="1.77778" fill="#C3C4CC"/>
<rect x="6.6665" y="20" width="1.77778" height="1.77778" fill="#C3C4CC"/>
<rect x="6.6665" y="22.2222" width="1.77778" height="1.77778" fill="#C3C4CC"/>
<rect x="8.88867" width="1.77778" height="1.77778" fill="#C3C4CC"/>
<rect x="8.88867" y="15.5556" width="1.77778" height="1.77778" fill="#C3C4CC"/>
<rect x="8.88867" y="17.7778" width="1.77778" height="1.77778" fill="#C3C4CC"/>
<rect x="8.88867" y="20" width="1.77778" height="1.77778" fill="#C3C4CC"/>
<rect x="8.88867" y="22.2222" width="1.77778" height="1.77778" fill="#C3C4CC"/>
<rect x="11.1113" y="6.66667" width="1.77778" height="1.77778" fill="#C3C4CC"/>
<rect x="11.1113" y="8.88889" width="1.77778" height="1.77778" fill="#C3C4CC"/>
<rect x="11.1113" y="17.7778" width="1.77778" height="1.77778" fill="#C3C4CC"/>
<rect x="11.1113" y="20" width="1.77778" height="1.77778" fill="#C3C4CC"/>
<rect x="11.1113" y="22.2222" width="1.77778" height="1.77778" fill="#C3C4CC"/>
<rect x="13.3335" y="4.44444" width="1.77778" height="1.77778" fill="#C3C4CC"/>
<rect x="13.3335" y="6.66667" width="1.77778" height="1.77778" fill="#C3C4CC"/>
<rect x="13.3335" y="8.88889" width="1.77778" height="1.77778" fill="#C3C4CC"/>
<rect x="13.3335" y="11.1111" width="1.77778" height="1.77778" fill="#C3C4CC"/>
<rect x="13.3335" y="17.7778" width="1.77778" height="1.77778" fill="#C3C4CC"/>
<rect x="13.3335" y="20" width="1.77778" height="1.77778" fill="#C3C4CC"/>
<rect x="13.3335" y="22.2222" width="1.77778" height="1.77778" fill="#C3C4CC"/>
<rect x="15.5557" y="6.66667" width="1.77778" height="1.77778" fill="#C3C4CC"/>
<rect x="15.5557" y="8.88889" width="1.77778" height="1.77778" fill="#C3C4CC"/>
<rect x="15.5557" y="17.7778" width="1.77778" height="1.77778" fill="#C3C4CC"/>
<rect x="15.5557" y="20" width="1.77778" height="1.77778" fill="#C3C4CC"/>
<rect x="15.5557" y="22.2222" width="1.77778" height="1.77778" fill="#C3C4CC"/>
<rect x="17.7778" y="2.22223" width="1.77778" height="1.77778" fill="#C3C4CC"/>
<rect x="17.7778" y="15.5556" width="1.77778" height="1.77778" fill="#C3C4CC"/>
<rect x="17.7778" y="17.7778" width="1.77778" height="1.77778" fill="#C3C4CC"/>
<rect x="17.7778" y="20" width="1.77778" height="1.77778" fill="#C3C4CC"/>
<rect x="20" width="1.77778" height="1.77778" fill="#C3C4CC"/>
<rect x="20" y="2.22223" width="1.77778" height="1.77778" fill="#C3C4CC"/>
<rect x="20" y="4.44444" width="1.77778" height="1.77778" fill="#C3C4CC"/>
<rect x="20" y="15.5556" width="1.77778" height="1.77778" fill="#C3C4CC"/>
<rect x="20" y="17.7778" width="1.77778" height="1.77778" fill="#C3C4CC"/>
<rect x="22.2222" y="2.22223" width="1.77778" height="1.77778" fill="#C3C4CC"/>
<rect x="22.2222" y="13.3333" width="1.77778" height="1.77778" fill="#C3C4CC"/>
<rect x="22.2222" y="15.5556" width="1.77778" height="1.77778" fill="#C3C4CC"/>
</g>
<defs>
<clipPath id="clip0_462_10644">
<rect width="24" height="24" fill="white"/>
</clipPath>
</defs>
</svg>
