<svg width="120" height="24" viewBox="0 0 120 24" fill="none" xmlns="http://www.w3.org/2000/svg">
<g clip-path="url(#clip0_697_28240)">
<path d="M115.346 4.74097L111.27 9.30818V4.74097H108.321V16.2705H111.27V11.4164L115.633 16.2705H119.443L114.077 10.2295L119.054 4.74097H115.346Z" fill="#ABB0BA"/>
<path d="M103.121 9.04097H99.046V4.74097H96.0952V16.2705H99.046V11.7246H103.121V16.2705H106.071V4.74097H103.121V9.04097Z" fill="#ABB0BA"/>
<mask id="mask0_697_28240" style="mask-type:luminance" maskUnits="userSpaceOnUse" x="0" y="0" width="120" height="24">
<path d="M119.443 0H0V24H119.443V0Z" fill="white"/>
</mask>
<g mask="url(#mask0_697_28240)">
<path d="M17.5115 10.9869C17.441 13.1377 17.1639 13.5672 15.9541 13.5672V16.2705H16.4049C19.4197 16.2705 20.1443 14.7131 20.2557 11.2524L20.3787 7.42293H23.2049V16.2705H26.1541V4.74097H17.7164L17.5115 10.9869Z" fill="#ABB0BA"/>
<path d="M33.4854 8.24261H31.3559V4.74097H28.4067V16.2705H33.5264C36.7428 16.2705 37.8887 14.182 37.8887 12.2147C37.8887 9.67539 36.2903 8.24097 33.4854 8.24097M33.2608 13.7295H31.3559V10.8H33.2608C34.2854 10.8 34.8985 11.2508 34.8985 12.2131C34.8985 13.2574 34.3051 13.7295 33.2608 13.7295Z" fill="#ABB0BA"/>
<path d="M47.4937 4.47375V0.19342H44.5445V4.47375C41.1659 4.76063 38.8921 7.15735 38.8921 10.4951C38.8921 13.8328 41.1659 16.2508 44.5445 16.5377V20.8803H47.4937V16.5377C50.8724 16.2721 53.1462 13.8541 53.1462 10.4951C53.1462 7.13604 50.8724 4.73932 47.4937 4.47375ZM44.5445 13.7524C42.9068 13.5262 41.8823 12.2983 41.8823 10.4967C41.8823 8.69506 42.9068 7.46555 44.5445 7.24096V13.7541V13.7524ZM47.4937 13.7524V7.23932C49.1314 7.46391 50.156 8.69342 50.156 10.4951C50.156 12.2967 49.1314 13.5262 47.4937 13.7508" fill="#ABB0BA"/>
<path d="M64.2068 12.7278V8.85734C64.2068 6.03111 62.4052 4.24915 59.374 4.24915C56.3429 4.24915 54.5822 6.13439 54.4379 8.09997H57.4281C57.5297 7.67046 57.9806 6.93275 59.374 6.93275C60.5215 6.93275 61.2576 7.46554 61.2576 8.85734H58.3281C55.7068 8.85734 54.1494 10.2295 54.1494 12.5229C54.1494 14.8164 55.8527 16.5573 58.3068 16.5573C60.1068 16.5573 61.1068 15.7065 61.5429 15.0623C61.9314 15.8409 62.792 16.2705 63.9183 16.2705H64.9429V13.6082C64.4101 13.6082 64.2052 13.3623 64.2052 12.7278M61.256 11.9705C61.256 13.3016 60.3134 14.059 59.0855 14.059C58.0199 14.059 57.1806 13.6705 57.1806 12.5229C57.1806 11.3754 58.1019 11.2131 58.9002 11.2131H61.256V11.9705Z" fill="#ABB0BA"/>
<path d="M76.8441 6.37867H73.5474V3.12293H81.1867V0.19342H70.4556V16.2705H76.8457C80.3884 16.2705 82.4162 14.5098 82.4162 11.2737C82.4162 8.22293 80.3884 6.37867 76.8457 6.37867M76.7031 13.3623H73.549V9.18358H76.7031C78.3408 9.18358 79.2638 9.94096 79.2638 11.2721C79.2638 12.6033 78.3425 13.3606 76.7031 13.3606" fill="#ABB0BA"/>
<path d="M93.7 12.7278V8.85734C93.7 6.03111 91.8983 4.24915 88.8672 4.24915C85.836 4.24915 84.0754 6.13439 83.9311 8.09997H86.9213C87.0229 7.67046 87.4737 6.93275 88.8672 6.93275C90.0147 6.93275 90.7508 7.46554 90.7508 8.85734H87.8213C85.2 8.85734 83.6426 10.2295 83.6426 12.5229C83.6426 14.8164 85.3459 16.5573 87.8 16.5573C89.6 16.5573 90.6 15.7065 91.036 15.0623C91.4245 15.8409 92.2852 16.2705 93.4114 16.2705H94.436V13.6082C93.9032 13.6082 93.6983 13.3623 93.6983 12.7278M90.7491 11.9705C90.7491 13.3016 89.8065 14.059 88.5786 14.059C87.5131 14.059 86.6737 13.6705 86.6737 12.5229C86.6737 11.3754 87.595 11.2131 88.3934 11.2131H90.7491V11.9705Z" fill="#ABB0BA"/>
<path d="M15.7705 20.723H0V24H15.7705V20.723Z" fill="#ABB0BA"/>
<path d="M10.7527 2.4C10.3019 1.05902 9.78386 0 8.00845 0C6.23304 0 5.68058 1.0541 5.20845 2.4L0.328125 16.2705H3.56419L4.69042 12.9738H10.9166L11.9609 16.2705H15.4019L10.7527 2.4ZM5.63304 10.1885L7.84452 3.61475H7.92649L10.015 10.1885H5.6314H5.63304Z" fill="#ABB0BA"/>
</g>
</g>
<defs>
<clipPath id="clip0_697_28240">
<rect width="119.443" height="24" fill="white"/>
</clipPath>
</defs>
</svg>
