<svg width="102" height="26" viewBox="0 0 102 26" fill="none" xmlns="http://www.w3.org/2000/svg">
<path d="M88.7805 12.6449C87.6655 12.6449 87.0737 13.4381 87.0737 14.7263L87.064 21.5055H82.951V9.11783H87.064V10.2798C87.4572 9.77511 87.9667 9.37409 88.5487 9.11001C89.1317 8.8469 89.7694 8.72952 90.4081 8.76767C91.0292 8.72855 91.6503 8.85472 92.2068 9.13348C92.7634 9.41224 93.2368 9.83282 93.5791 10.3542C94.0124 9.82793 94.5631 9.41028 95.1861 9.13446C95.8102 8.85863 96.489 8.73344 97.1697 8.76767C100.052 8.76767 101.833 10.7268 101.833 13.9233V21.4918H97.6969V14.381C97.6969 13.2141 97.1795 12.6449 96.1623 12.6449C95.0473 12.6449 94.4555 13.4381 94.4555 14.7263V21.4918H90.3416V14.381C90.3416 13.2141 89.8203 12.6449 88.7805 12.6449ZM74.9384 12.7339C75.2759 12.7251 75.6104 12.7857 75.9234 12.9129C76.2354 13.04 76.5181 13.2308 76.7528 13.4733C76.9875 13.7159 77.1695 14.0035 77.2878 14.3194C77.4062 14.6353 77.457 14.9728 77.4384 15.3092C77.458 15.6467 77.4071 15.9841 77.2898 16.3001C77.1724 16.617 76.9905 16.9055 76.7547 17.1481C76.519 17.3906 76.2373 17.5823 75.9243 17.7095C75.6113 17.8366 75.2759 17.8983 74.9384 17.8895C74.6029 17.8934 74.2704 17.8288 73.9613 17.6997C73.6522 17.5706 73.3725 17.3789 73.1407 17.1363C72.9089 16.8947 72.7289 16.6072 72.6115 16.2932C72.4951 15.9792 72.4442 15.6437 72.4618 15.3092C72.4423 14.9737 72.4922 14.6373 72.6086 14.3223C72.725 14.0064 72.9049 13.7188 73.1367 13.4753C73.3695 13.2327 73.6493 13.04 73.9584 12.9099C74.2674 12.7799 74.6019 12.7153 74.9374 12.7192V12.7329L74.9384 12.7339ZM74.9384 21.8557C75.8021 21.8782 76.6608 21.7236 77.4629 21.4028C78.2649 21.082 78.9927 20.6008 79.602 19.9885C80.229 19.3869 80.7239 18.6612 81.0565 17.8582C81.389 17.0551 81.5514 16.1915 81.5328 15.3229C81.5494 14.4593 81.387 13.6005 81.0545 12.8033C80.7219 12.0062 80.227 11.2863 79.602 10.6896C78.9946 10.0715 78.2689 9.58341 77.4668 9.25476C76.6648 8.92612 75.805 8.76571 74.9384 8.78136C74.0728 8.76962 73.214 8.93297 72.4129 9.26161C71.6119 9.58928 70.8842 10.0754 70.2748 10.6896C69.6498 11.2853 69.1549 12.0052 68.8223 12.8033C68.4898 13.6015 68.3274 14.4593 68.344 15.3229C68.3254 16.1915 68.4878 17.0551 68.8204 17.8582C69.1529 18.6612 69.6478 19.3869 70.2748 19.9885C70.8871 20.5969 71.6158 21.0761 72.4169 21.396C73.2179 21.7168 74.0757 21.8733 74.9384 21.8557ZM61.4807 12.9119C61.1677 12.7847 60.8322 12.7241 60.4947 12.7339V12.7202C60.1583 12.7163 59.8257 12.7808 59.5157 12.9109C59.2056 13.041 58.9259 13.2337 58.6941 13.4763C58.4613 13.7188 58.2823 14.0074 58.1659 14.3233C58.0495 14.6392 57.9996 14.9747 58.0192 15.3102C58.0016 15.6447 58.0524 15.9802 58.1688 16.2942C58.2852 16.6081 58.4652 16.8957 58.698 17.1373C58.9298 17.3789 59.2095 17.5706 59.5186 17.7007C59.8277 17.8298 60.1602 17.8944 60.4957 17.8904C60.8332 17.8992 61.1696 17.8386 61.4817 17.7105C61.7946 17.5833 62.0773 17.3916 62.313 17.149C62.5488 16.9065 62.7307 16.6179 62.849 16.302C62.9674 15.9861 63.0183 15.6476 62.9997 15.3102C63.0183 14.9728 62.9674 14.6353 62.849 14.3194C62.7307 14.0035 62.5478 13.7149 62.313 13.4723C62.0773 13.2298 61.7946 13.04 61.4817 12.9129L61.4807 12.9119ZM63.0192 21.4038C62.2172 21.7246 61.3584 21.8782 60.4947 21.8557C59.6321 21.8733 58.7743 21.7168 57.9732 21.396C57.1721 21.0752 56.4434 20.5969 55.8311 19.9885C55.2042 19.3869 54.7093 18.6612 54.3767 17.8582C54.0441 17.0551 53.8818 16.1915 53.9004 15.3229C53.8837 14.4593 54.0461 13.6005 54.3787 12.8033C54.7112 12.0052 55.2061 11.2863 55.8311 10.6896C56.4405 10.0754 57.1682 9.58928 57.9693 9.26161C58.7704 8.93395 59.6291 8.7706 60.4947 8.78136C61.3613 8.76473 62.2211 8.92612 63.0231 9.25476C63.8252 9.58243 64.5519 10.0715 65.1584 10.6896C65.7843 11.2853 66.2783 12.0052 66.6108 12.8033C66.9434 13.6015 67.1058 14.4593 67.0891 15.3229C67.1077 16.1915 66.9454 17.0551 66.6128 17.8582C66.2802 18.6612 65.7853 19.3869 65.1584 19.9885C64.549 20.6008 63.8213 21.083 63.0192 21.4038ZM43.9247 17.5256V14.605H46.6722C46.8707 14.5893 47.0693 14.6148 47.2571 14.6823C47.4439 14.7488 47.6151 14.8554 47.7579 14.9933C47.9007 15.1312 48.0132 15.2985 48.0865 15.4833C48.1599 15.6682 48.1931 15.8667 48.1834 16.0653C48.1922 16.2639 48.1599 16.4624 48.0865 16.6473C48.0132 16.8321 47.9017 16.9994 47.7579 17.1373C47.6151 17.2752 47.4439 17.3818 47.2571 17.4483C47.0703 17.5149 46.8707 17.5413 46.6722 17.5256H43.9247ZM43.9247 8.1094H46.2056C46.3885 8.09864 46.5724 8.12701 46.7446 8.19059C46.9167 8.25514 47.0732 8.35393 47.2053 8.48206C47.3373 8.61019 47.44 8.76473 47.5094 8.93492C47.5779 9.10511 47.6112 9.28802 47.6053 9.4719C47.6131 9.65578 47.5818 9.83967 47.5134 10.0108C47.4449 10.182 47.3422 10.3365 47.2101 10.4657C47.0781 10.5938 46.9206 10.6936 46.7475 10.7571C46.5744 10.8207 46.3905 10.8471 46.2066 10.8344H43.9257L43.9247 8.1094ZM51.0326 20.1049C51.5578 19.6491 51.9725 19.0798 52.2474 18.4411C52.5222 17.8024 52.6484 17.1089 52.6181 16.4145C52.6572 15.6271 52.4733 14.8436 52.088 14.156C51.7026 13.4675 51.1314 12.9021 50.4398 12.5236C50.9631 12.1187 51.3818 11.5934 51.6615 10.9938C51.9412 10.3943 52.0743 9.73599 52.0488 9.07479C52.0488 6.028 49.7963 4.14319 46.3259 4.14319H39.489V21.4908H46.7974C48.331 21.5622 49.8383 21.0693 51.0326 20.1049ZM30.5491 6.8721L34.6581 5.63089V9.0699H37.2374V13.0077H34.6581V16.6003C34.6581 17.6919 35.3721 17.8415 37.2374 17.7437V21.4762C34.7559 21.7999 33.0218 21.5769 32.0329 20.8091C31.044 20.0403 30.5501 18.6788 30.5501 16.7216V13.04H28.6849V9.10218H30.5501L30.5491 6.8721ZM21.0214 12.238C21.5545 12.192 22.0866 12.3436 22.5159 12.6635C22.9453 12.9833 23.2437 13.4489 23.3532 13.9731H18.5967C18.942 12.7926 19.7577 12.2233 21.0214 12.2233V12.238ZM21.3197 21.8547C23.6515 21.8547 25.4327 21.0849 26.6455 19.5493L23.675 17.4679C23.0637 18.0391 22.2538 18.3492 21.4175 18.3316C19.9807 18.3316 19.0857 17.8367 18.6192 16.8194H27.1678C27.2891 16.3167 27.3478 15.8012 27.34 15.2848C27.3693 14.425 27.2236 13.5682 26.9125 12.7662C26.6015 11.9641 26.131 11.2335 25.5305 10.6182C24.9387 10.005 24.2267 9.52277 23.4373 9.20097C22.649 8.87917 21.8019 8.72659 20.95 8.75202C20.0746 8.71974 19.2031 8.86939 18.3884 9.19021C17.5736 9.51103 16.8341 9.99715 16.216 10.6182C15.6076 11.2305 15.1293 11.9602 14.8095 12.7613C14.4887 13.5633 14.3331 14.4211 14.3507 15.2838C14.3243 16.1484 14.4759 17.0082 14.7968 17.8112C15.1176 18.6142 15.6008 19.342 16.216 19.9494C17.5266 21.2189 19.2149 21.8527 21.3178 21.8527L21.3197 21.8547ZM7.1607 17.5246H4.4132V14.604H7.1607C7.35926 14.5884 7.55781 14.6138 7.74561 14.6813C7.93242 14.7478 8.10359 14.8544 8.24639 14.9923C8.3892 15.1302 8.5007 15.2975 8.57406 15.4824C8.64741 15.6672 8.68067 15.8658 8.67187 16.0643C8.68067 16.2619 8.64839 16.4585 8.57602 16.6424C8.50364 16.8263 8.39311 16.9925 8.25128 17.1305C8.10946 17.2684 7.94122 17.375 7.75538 17.4425C7.56954 17.51 7.37197 17.5383 7.17537 17.5246H7.1607ZM4.4132 8.10843H6.68925C6.87216 8.09767 7.05604 8.12603 7.22819 8.18961C7.40034 8.25416 7.55683 8.35295 7.68887 8.48109C7.82092 8.60922 7.92362 8.76375 7.99306 8.93394C8.06153 9.10413 8.09479 9.28704 8.08892 9.47093C8.09577 9.65481 8.06447 9.83869 7.996 10.0089C7.92753 10.1791 7.82386 10.3346 7.69279 10.4627C7.56075 10.5909 7.40327 10.6906 7.23112 10.7542C7.05898 10.8178 6.87411 10.8452 6.69121 10.8324H4.41516V8.10745L4.4132 8.10843ZM10.942 12.5226C11.4653 12.1177 11.884 11.5924 12.1637 10.9929C12.4434 10.3933 12.5765 9.73502 12.551 9.07382C12.551 6.02702 10.2936 4.14221 6.82814 4.14221H0V21.4899H7.30839C8.84401 21.5574 10.3503 21.0595 11.5436 20.0902C12.0678 19.6334 12.4826 19.0642 12.7574 18.4255C13.0323 17.7868 13.1594 17.0943 13.1301 16.3988C13.1653 15.6124 12.9794 14.8319 12.5921 14.1463C12.2058 13.4606 11.6336 12.8982 10.942 12.5226Z" fill="#ABB0BA"/>
</svg>
