<svg width="145" height="16" viewBox="0 0 145 16" fill="none" xmlns="http://www.w3.org/2000/svg">
<path d="M101.389 1.32107C101.389 2.02077 100.91 2.37061 99.9537 2.37061H86.7679C85.8113 2.37061 85.3333 1.97319 85.3333 1.16152C85.3333 0.414254 85.8113 0.0329347 86.7679 0.0329347H100.177C100.99 0.0483046 101.389 0.461827 101.389 1.32107ZM101.389 14.9344C101.389 15.6341 100.91 15.9839 99.9537 15.9839H86.7679C85.8113 15.9839 85.3333 15.5865 85.3333 14.7755C85.3333 14.0283 85.8113 13.6462 86.7679 13.6462H100.177C100.99 13.6462 101.389 14.0758 101.389 14.9344ZM60.6677 0C61.3688 0 61.7194 0.477196 61.7194 1.43159V14.5838C61.7194 15.5389 61.3212 16 60.5242 16C59.7747 16 59.392 15.5228 59.392 14.5845V1.19299C59.3759 0.398151 59.8062 0 60.6677 0ZM101.389 8.19139C101.389 8.89108 100.91 9.24093 99.9537 9.24093H86.7679C85.8113 9.24093 85.3333 8.84351 85.3333 8.04794C85.3333 7.30067 85.8113 6.91862 86.7679 6.91862H100.177C100.99 6.90325 101.389 7.33214 101.389 8.19139ZM81.5846 1.11395C81.5846 1.24056 81.537 1.49527 81.4411 1.86048C80.2613 3.0381 76.3552 6.9823 69.7227 13.6938H80.4047C81.2025 13.7889 81.6007 14.1388 81.6007 14.7272C81.6007 15.5704 81.1227 16 80.1815 16H67.1237C66.1832 16 65.7046 15.6341 65.7046 14.8868C65.7046 14.807 65.7529 14.5845 65.848 14.2025C67.0278 13.0256 70.9347 9.08138 77.5672 2.36988H67.1237C66.1832 2.36988 65.7046 2.00393 65.7046 1.2574C65.7046 0.461827 66.1035 0.0644065 66.9005 0.0644065H80.3894C81.1864 0.174923 81.5846 0.525502 81.5846 1.11395ZM105.932 0.063675C106.618 0.063675 106.968 0.540872 106.968 1.47916V13.6938H118.24V1.25667C118.24 0.461827 118.671 0.063675 119.516 0.063675C120.202 0.063675 120.552 0.540872 120.552 1.47916V14.9505C120.552 15.5865 120.074 15.9363 119.133 16H105.709C105.15 16 104.8 15.5704 104.656 14.7272V1.25667C104.656 0.461827 105.086 0.063675 105.932 0.063675ZM15.9758 1.36865C15.9758 2.05224 15.4972 2.40209 14.5567 2.40209H2.31206V13.6462H14.7799C15.5777 13.6462 15.9758 14.0758 15.9758 14.919C15.9758 15.6026 15.4972 15.9524 14.5567 15.9524H1.05247C0.414253 15.9524 0.063675 15.4752 0 14.5369V1.14542C0 0.589177 0.430355 0.23933 1.2757 0.0958782H14.7792C15.577 0.11198 15.9758 0.525502 15.9758 1.36865ZM34.3904 0.063675H20.8064C19.9618 0.063675 19.5307 0.461827 19.5307 1.25667V14.7272C19.6588 15.5704 20.0093 16 20.5831 16H34.0083C34.9488 15.9363 35.4267 15.5865 35.4267 14.9505V1.47843C35.4267 0.54014 35.0923 0.0629428 34.3904 0.0629428V0.063675ZM21.8427 2.274H33.1154V13.6938H21.8427V2.27474V2.274ZM125.096 0.0644065H125.255C125.829 0.0644065 126.658 1.03417 127.726 2.97443C128.045 3.34038 130.182 6.58488 134.104 12.6918H134.184C134.184 12.5967 136.863 8.50903 142.204 0.430355C142.602 0.175655 142.874 0.0483052 143.032 0.0483052H143.176C143.671 0.0483052 144.021 0.429623 144.228 1.17762V1.32034C144.228 1.57504 142.825 3.7861 140.035 7.98426C142.825 12.2307 144.228 14.4733 144.228 14.7119V14.9344C144.021 15.6341 143.671 15.9839 143.176 15.9839H143.032C142.427 15.9839 141.471 14.807 140.179 12.4693C139.398 11.3876 138.903 10.6249 138.68 10.1639C138.632 10.1639 137.405 11.976 135.013 15.6187C134.726 15.8727 134.471 16 134.247 16H134.024C133.498 16 132.51 14.728 131.027 12.1832L129.608 10.1631C127.535 13.535 126.26 15.4277 125.782 15.8412L125.255 15.9839H125.096C124.586 15.9839 124.235 15.6026 124.043 14.8546V14.7119C124.043 14.4733 125.446 12.2307 128.237 7.98426V7.90522C125.67 4.18352 124.267 1.98856 124.043 1.32034V1.17762C124.251 0.445725 124.602 0.0644065 125.096 0.0644065ZM54.4817 13.6777H41.9662V1.47916C41.9662 0.540872 41.6149 0.063675 40.9291 0.063675C40.0845 0.063675 39.6542 0.461827 39.6542 1.25667V14.7916C39.6542 15.2213 39.7976 15.5396 40.0845 15.7299C40.2441 15.8895 40.4505 15.9846 40.7066 15.9846H54.2746C55.2311 15.9846 55.7091 15.6348 55.7091 14.9351C55.6937 14.0919 55.2948 13.6777 54.4817 13.6777Z" fill="#ABB0BA"/>
</svg>
