<svg width="89" height="26" viewBox="0 0 89 26" fill="none" xmlns="http://www.w3.org/2000/svg">
<path fill-rule="evenodd" clip-rule="evenodd" d="M0 3.88892H4.71219V10.8966H6.28288L10.297 3.88892H15.7072L10.4715 12.6485L16.4053 22.109H10.646L6.4574 15.1013H4.71219V22.109H0V3.88892ZM53.4321 3.88892H39.6447V22.109H48.1962C53.6068 22.109 54.6538 17.9919 54.6538 16.1524C54.6538 14.3129 53.5191 10.8966 48.0221 10.8966H44.3569V7.74315H53.4321V3.88892ZM44.3563 18.7802V14.2251H47.6727C48.3703 14.2251 49.7668 14.6807 49.7668 16.5027C49.7668 18.3247 48.3703 18.7802 47.6727 18.7802H44.3563ZM70.683 3.88892H57.419V22.109H70.8571V18.2547H61.7819V14.5757H69.9847V11.247H61.6072V7.56797H70.683V3.88892ZM82.0269 3.89107H73.8241V22.1111H78.7105V15.8042H82.0269C84.2957 15.8626 88.8333 14.753 88.8333 9.84763C88.8333 4.94223 84.2957 3.83265 82.0269 3.89107ZM81.6775 7.57024H78.7105V12.3004H81.6775C83.1611 12.3004 83.9463 11.2493 83.9463 9.67251C83.9463 8.09579 82.3758 7.57024 81.6775 7.57024ZM18.3249 3.88892H23.0371V15.0137L30.7161 3.88892H36.4755V22.109H18.3249V3.88892Z" fill="#ABB0BA"/>
</svg>
