<svg width="198" height="32" viewBox="0 0 198 32" fill="none" xmlns="http://www.w3.org/2000/svg">
<path d="M12.3882 7.18112C12.2622 7.22312 12.1782 7.30711 12.1362 7.43309L12.1782 7.47508C12.3042 7.47508 12.5142 7.64306 12.5982 7.76905C12.7242 7.97902 12.7242 8.189 12.5982 8.27299C12.5142 8.31498 12.3882 8.31498 12.2622 8.189H12.1782C12.2202 8.27298 12.2202 8.35697 12.2622 8.39897C12.5562 8.9449 13.0601 9.32285 13.3961 9.19687C13.774 9.07089 13.816 8.52495 13.5641 7.97902C13.2701 7.43309 12.7662 7.05514 12.3882 7.18112Z" fill="#ABB0BA"/>
<path d="M14.4042 0H4.70341C2.01575 0 0 2.05774 0 4.8294V27.3386C0 30.0263 1.97375 32 4.70341 32H14.4042C23.937 32 30.9081 25.2388 30.9081 15.916C30.9081 6.71916 23.937 0 14.4042 0ZM3.10761 30.3202C2.01575 29.7743 1.25984 28.7244 1.25984 27.1706V23.811C2.26772 23.6011 3.31759 23.4331 3.31759 23.4331L3.44357 22.8871C2.98163 22.8451 2.05774 22.8871 1.25984 22.8871V19.5276C2.26772 19.7795 3.73753 20.0735 4.87139 20.0735C6.84514 20.0735 7.93701 18.8976 7.93701 16.7139C7.93701 14.0262 7.05512 11.5486 7.34908 9.99475L7.26509 9.91076C6.29921 10.9186 5.6273 10.6667 5.5853 10.3307C5.45932 9.65879 6.59318 8.86089 7.26509 8.56693C7.26509 8.52494 7.30709 8.48294 7.30709 8.44095C6.67717 8.52494 5.96325 8.44095 5.92126 8.021C5.87926 7.51706 6.92913 7.01312 8.31496 7.13911C8.35696 7.09711 8.35696 7.09711 8.39895 7.05512C8.31496 7.01312 8.23097 6.97113 8.10499 6.92913C7.76903 6.76116 7.64304 6.4252 7.76903 6.21522C7.89501 5.96325 8.27297 5.87927 8.60892 5.87927C9.11286 5.87927 9.53281 6.00525 9.82677 6.13123C9.86877 6.13123 9.91076 6.08924 9.91076 6.08924C9.78478 6.00525 9.70079 5.92126 9.65879 5.79528C9.5748 5.66929 9.53281 5.45932 9.70079 5.33333C9.91076 5.16535 10.3727 5.12336 10.8346 5.54331C10.9186 5.6273 11.0026 5.71129 11.0866 5.79528C11.1286 5.79528 11.1706 5.79528 11.2546 5.75328C11.1706 5.6273 11.1286 5.54331 11.0866 5.41732C11.0446 5.24934 11.1286 5.12336 11.2966 5.03937C11.5066 4.99738 11.7165 5.08137 11.8425 5.24934C11.9685 5.45932 12.0525 5.71129 12.0945 5.87927C11.1706 6.00525 8.60892 6.59318 8.60892 9.70079C8.60892 12.7244 11.1286 15.916 11.1286 20.6194C11.1286 22.3412 10.7507 24.063 9.19685 26.0367C7.979 27.5906 6.04724 29.1024 3.10761 30.3202ZM17.1339 9.23885C17.5538 9.19685 17.9738 9.19685 18.4777 9.11286C17.8478 9.74278 17.4278 10.5827 17.1759 11.5066C17.1339 11.6325 17.0919 11.7585 16.7979 11.8005C14.1102 12.0105 11.8005 11.6745 11.0446 10.2467C10.9606 10.0787 10.9606 9.95276 11.1286 9.86877C11.2966 9.78478 11.5066 9.78478 11.7585 9.78478L11.8005 9.65879C11.3806 9.40682 10.6667 9.32283 10.2887 9.78478C10.0367 10.0787 10.0787 10.4987 10.3307 10.8766L10.4567 10.8346C10.4567 10.7507 10.4147 10.6667 10.4147 10.5827C10.4147 10.5407 10.4567 10.5407 10.4567 10.4987C10.4987 10.4987 10.4987 10.4987 10.5407 10.5407C11.4646 11.9265 13.2703 12.3885 14.8661 12.7664C17.1759 13.2703 18.0577 14.3622 17.9738 14.6142C17.8898 14.6982 17.8058 14.5722 17.7638 14.5302C15.748 12.6404 8.65092 13.7323 9.19685 9.07087C9.32284 7.979 10.0367 6.84515 11.2966 6.55118C11.2126 6.67717 11.1286 6.84515 11.0446 7.09711L11.2546 7.13911C11.8425 6.13123 13.3543 6.17323 13.4803 7.1811C13.4803 7.1811 14.6562 8.39895 14.9501 8.65092C15.0341 8.69291 15.0341 8.73491 14.9921 8.8189C14.9501 8.86089 14.8241 8.86089 14.6562 8.8189L14.6142 8.94488C14.9501 9.15486 15.748 9.32284 17.1339 9.23885ZM18.7717 9.53281C19.2756 8.98688 19.8215 8.8189 21.0814 8.8189C22.8031 8.8189 24.231 10.5407 24.231 12.9764C24.231 13.3543 23.769 13.3123 23.601 13.0184C23.0131 12.0105 22.2152 11.8425 20.9974 11.7585C20.0735 11.7165 18.9816 11.8005 17.9738 11.8425C17.8058 11.8425 17.7218 11.7165 17.7638 11.6325C18.0577 10.7087 18.3097 10.0367 18.7717 9.53281ZM21.6273 22.0472C21.1654 23.769 18.8556 24.4409 16.7559 24.5669C16.7139 24.6929 16.6299 24.8189 16.5879 24.9449C17.8058 24.9869 18.9816 24.7349 19.6535 24.5249C19.0236 25.7008 16.8819 26.6667 14.6562 26.6667C13.5643 26.6667 12.2205 26.4567 11.0446 25.9108C11.8845 24.357 12.2205 22.7612 12.3045 21.3333C13.6483 21.7113 15.5381 21.9213 17.0919 21.7953C19.8215 21.5853 21.8793 20.5774 23.0131 19.8635C22.3412 21.6273 19.7375 22.6772 17.2178 23.0131C17.2178 23.1391 17.1759 23.2651 17.1759 23.3911C19.0236 23.2231 20.8294 22.5932 21.6273 22.0472ZM14.4042 30.6982H5.87927C8.31496 29.3543 9.53281 28.0945 10.3727 26.9186C12.0105 27.6326 13.6063 27.9685 15.0341 27.9685C17.7218 27.9685 19.9895 26.7507 21.1654 24.5249C22.3832 23.811 23.1811 22.2992 23.2651 21.2074C24.021 20.2415 24.147 19.0236 23.937 18.2257C23.895 18.0157 23.727 18.0157 23.4331 18.1837C21.0394 19.6115 18.6877 20.3255 16.4619 20.3255C15.1181 20.3255 13.7323 20.1155 12.2625 19.6955C12.1365 18.0997 11.8425 16.7979 11.7165 16C11.5486 14.9501 11.8005 14.1522 12.9764 14.1522C13.8163 14.1522 15.4121 14.3622 16.6719 14.9501C17.9318 15.5381 18.6457 16.6299 19.1916 16.6299C19.4016 16.6299 19.6115 16.5039 19.6115 16.042C19.6115 15.1181 19.2756 13.6903 18.8976 13.1444C20.0735 13.0604 20.9974 13.1024 21.5013 13.1444C22.5932 13.3543 22.6352 13.9003 22.8451 14.2362C23.0551 14.5722 23.4331 14.7402 23.853 14.7402C24.6509 14.7402 25.1549 14.3202 25.1549 12.8084C25.1549 9.49081 23.0551 7.89501 20.8714 7.89501C19.0656 7.89501 18.3937 8.27297 16.6719 8.27297C15.4541 8.27297 14.4462 5.79528 13.0604 5.50131C12.4724 4.15748 11.0866 3.9895 10.2467 4.66142C9.49081 4.19948 8.27297 4.45144 8.23097 5.29134C7.34908 5.03937 6.21522 5.50131 6.71916 6.63517C4.57743 6.67717 4.15748 8.60892 5.6273 8.8189C3.73753 9.86877 4.61942 11.7165 6.17323 11.3386C6.29921 12.6404 6.80315 14.7402 6.80315 16.21C6.80315 18.2257 5.87927 18.6877 4.61942 18.6877C3.65354 18.6877 2.18373 18.3097 1.17585 18.0577V4.95538C1.17585 2.72966 2.77165 1.30184 4.70341 1.30184H14.3202C22.8871 1.30184 29.4383 7.1811 29.4383 15.916C29.5643 24.7349 22.9711 30.6982 14.4042 30.6982Z" fill="#ABB0BA"/>
<path d="M197.249 20.9135L192.462 10.4148C191.916 9.28097 191.16 8.77704 190.068 8.77704H189.9C188.766 8.77704 188.01 9.28097 187.464 10.4148L182.677 20.9135C182.215 21.9634 182.551 22.8873 183.517 23.2652C184.399 23.6012 185.197 23.3912 185.701 22.3833L186.793 20.0736C187.758 20.4096 188.976 20.5776 190.068 20.5776C191.244 20.5776 192.378 20.4096 193.218 20.0736L194.268 22.3833C194.73 23.3912 195.653 23.5592 196.451 23.2652C197.333 22.8453 197.711 21.8794 197.249 20.9135ZM189.984 17.428C189.27 17.428 188.472 17.344 187.884 17.134L189.942 12.5566L192 17.134C191.37 17.302 190.698 17.428 189.984 17.428Z" fill="#ABB0BA"/>
<path d="M179.948 19.9477H179.024V10.3309C179.024 9.23899 178.184 8.60907 177.218 8.60907C176.252 8.60907 175.496 9.23899 175.496 10.3309V19.9477H169.365V10.3309C169.365 9.23899 168.567 8.60907 167.559 8.60907C166.551 8.60907 165.753 9.23899 165.753 10.3309V21.6274C165.753 22.5933 166.383 23.3492 167.475 23.3492H178.142V24.903C178.142 25.9949 178.94 26.6248 179.864 26.6248C180.872 26.6248 181.585 25.9949 181.585 24.903V21.6694C181.669 20.5356 180.998 19.9477 179.948 19.9477Z" fill="#ABB0BA"/>
<path d="M162.183 19.9477H161.26V10.3309C161.26 9.23899 160.42 8.60907 159.454 8.60907C158.488 8.60907 157.732 9.23899 157.732 10.3309V19.9477H151.601V10.3309C151.601 9.23899 150.803 8.60907 149.795 8.60907C148.787 8.60907 147.989 9.23899 147.989 10.3309V21.6274C147.989 22.5933 148.619 23.3492 149.711 23.3492H160.378V24.903C160.378 25.9949 161.176 26.6248 162.099 26.6248C163.107 26.6248 163.821 25.9949 163.821 24.903V21.6694C163.905 20.5356 163.233 19.9477 162.183 19.9477Z" fill="#ABB0BA"/>
<path d="M142.446 8.73505H142.32C141.27 8.73505 140.598 9.23899 139.842 10.2889L134.089 18.4778V10.3309C134.089 9.23899 133.375 8.60907 132.409 8.60907C131.401 8.60907 130.688 9.23899 130.688 10.3309V21.3755C130.688 22.5513 131.485 23.3492 132.661 23.3492H132.829C133.921 23.3492 134.677 22.8033 135.349 21.7954L141.102 13.6064V21.7954C141.102 22.8873 141.816 23.5172 142.782 23.5172C143.748 23.5172 144.462 22.8873 144.462 21.7954V10.6668C144.462 9.49096 143.748 8.73505 142.446 8.73505Z" fill="#ABB0BA"/>
<path d="M125.228 8.73505H115.359C114.226 8.73505 113.638 9.53295 113.638 10.4568V21.7534C113.638 22.8453 114.478 23.4752 115.443 23.4752C116.409 23.4752 117.165 22.8453 117.165 21.7534V12.1366H123.464V21.7534C123.464 22.8453 124.262 23.4752 125.27 23.4752C126.236 23.4752 127.076 22.8453 127.076 21.6694V10.4148C127.034 9.49095 126.362 8.73505 125.228 8.73505Z" fill="#ABB0BA"/>
<path d="M99.6533 8.60901C95.4118 8.60901 92.1362 11.8006 92.1362 16.0841C92.1362 20.3675 95.3698 23.5591 99.6533 23.5591C103.853 23.5591 107.17 20.3255 107.17 16.0421C107.086 11.7166 103.853 8.60901 99.6533 8.60901ZM99.6533 20.1576C97.3016 20.1576 95.6638 18.4358 95.6638 16.0421C95.6638 13.6904 97.3436 11.9686 99.6533 11.9686C102.005 11.9686 103.643 13.6904 103.643 16.0421C103.601 18.4358 102.005 20.1576 99.6533 20.1576Z" fill="#ABB0BA"/>
<path d="M89.6587 19.9476H88.7348V10.4568C88.7348 9.49089 88.1049 8.73499 87.013 8.73499H78.908C77.9421 8.73499 77.3122 9.36491 77.3122 10.4568V12.7665C77.3122 14.4043 77.2702 15.7061 76.9763 17.0499C76.6823 18.3938 76.3464 19.2337 75.8424 19.9476H75.4225C74.2886 19.9476 73.7427 20.6615 73.7427 21.6694V24.903C73.7427 25.9948 74.5406 26.6247 75.4645 26.6247C76.4723 26.6247 77.1862 25.9948 77.1862 24.903V23.3492H87.8529V24.903C87.8529 25.9948 88.6508 26.6247 89.5747 26.6247C90.5826 26.6247 91.2965 25.9948 91.2965 24.903V21.6694C91.3805 20.6615 90.8345 19.9476 89.6587 19.9476ZM85.2072 19.9476H79.454C79.8319 19.1497 80.0839 18.4778 80.3359 17.4699C80.5458 16.378 80.6718 15.2862 80.7138 13.8583L80.7558 12.1786H85.2492V19.9476H85.2072Z" fill="#ABB0BA"/>
<path d="M65.8896 8.60901C61.6481 8.60901 58.3726 11.8006 58.3726 16.0841C58.3726 20.3675 61.6062 23.5591 65.8896 23.5591C70.0891 23.5591 73.4067 20.3255 73.4067 16.0421C73.4067 11.7166 70.1731 8.60901 65.8896 8.60901ZM65.8896 20.1576C63.5379 20.1576 61.9001 18.4358 61.9001 16.0421C61.9001 13.6904 63.5799 11.9686 65.8896 11.9686C68.2413 11.9686 69.8791 13.6904 69.8791 16.0421C69.8791 18.4358 68.3253 20.1576 65.8896 20.1576Z" fill="#ABB0BA"/>
<path d="M55.811 19.9476H54.8871V10.4568C54.8871 9.49089 54.2572 8.73499 53.1654 8.73499H45.0604C44.0945 8.73499 43.4646 9.36491 43.4646 10.4568V12.7665C43.4646 14.4043 43.4646 15.7061 43.1286 17.0499C42.8346 18.3938 42.4987 19.2337 41.9948 19.9476H41.6168C40.4829 19.9476 39.937 20.6615 39.937 21.6694V24.903C39.937 25.9948 40.7349 26.6247 41.6588 26.6247C42.6667 26.6247 43.3806 25.9948 43.3806 24.903V23.3492H54.0472V24.903C54.0472 25.9948 54.8452 26.6247 55.769 26.6247C56.7769 26.6247 57.4908 25.9948 57.4908 24.903V21.6694C57.5748 20.6615 57.0289 19.9476 55.811 19.9476ZM51.4016 19.9476H45.6483C46.0263 19.1497 46.2782 18.4778 46.5302 17.4699C46.7402 16.378 46.8661 15.2862 46.9081 13.8583L46.9501 12.1786H51.4436L51.4016 19.9476Z" fill="#ABB0BA"/>
</svg>
