<svg width="186" height="20" viewBox="0 0 186 20" fill="none" xmlns="http://www.w3.org/2000/svg">
<g clip-path="url(#clip0_697_28174)">
<mask id="mask0_697_28174" style="mask-type:luminance" maskUnits="userSpaceOnUse" x="0" y="0" width="186" height="20">
<path d="M185.185 0.440918H0V19.5592H185.185V0.440918Z" fill="white"/>
</mask>
<g mask="url(#mask0_697_28174)">
<path d="M0.285604 7.28284H0.176758V19.2111H13.3622C13.3622 12.6294 7.50722 7.28284 0.285604 7.28284Z" fill="#ABB0BA"/>
<path d="M13.3623 19.2082H26.4359V7.27997C19.2127 7.28299 13.3623 12.6295 13.3623 19.2082Z" fill="#ABB0BA"/>
<path d="M6.60449 7.28277C6.60449 5.50757 7.31055 3.80507 8.56737 2.54981C9.82411 1.29455 11.5287 0.589355 13.306 0.589355C15.0834 0.589355 16.788 1.29455 18.0448 2.54981C19.3016 3.80507 20.0076 5.50757 20.0076 7.28277" fill="#ABB0BA"/>
<path d="M35.5444 1.45581H40.9127L47.141 14.3293H47.3028L53.8003 1.45581H58.9402V19.2078H54.99V6.78427H54.7965L48.7873 19.2078H45.4115L39.6276 6.78427H39.4311V19.2078H35.5444V1.45581Z" fill="#ABB0BA"/>
<path d="M68.8677 1.45581H75.3922L82.9515 19.2078H78.7033L77.5463 16.5111H66.5865L65.433 19.2078H61.123L68.8677 1.45581ZM71.3757 5.01919L68.065 13.0126H75.9715L72.7575 5.01919H71.3757Z" fill="#ABB0BA"/>
<path d="M85.1235 1.45581H89.1102V8.00431H94.285L98.7517 1.45581H103.376L97.688 9.67423L103.795 19.2078H99.0376L94.3769 11.6582H89.1102V19.2078H85.1235V1.45581Z" fill="#ABB0BA"/>
<path d="M105.977 1.45581H117.42C119.047 1.45581 120.37 1.88915 121.389 2.75584C122.408 3.62253 122.917 4.77307 122.916 6.20748C122.916 7.57645 122.455 8.58305 121.533 9.22727C123.268 10.1061 124.137 11.5933 124.137 13.689C124.15 14.4226 124.007 15.1504 123.719 15.8252C123.431 16.5 123.004 17.1067 122.465 17.6058C121.352 18.6758 119.959 19.2108 118.287 19.2108H105.977V1.45581ZM109.995 5.0509V8.29416H117.554C117.754 8.29957 117.951 8.2589 118.132 8.17534C118.314 8.09179 118.473 7.96764 118.598 7.81253C118.861 7.48971 119.003 7.0856 119 6.66955C118.997 6.2535 118.849 5.85148 118.582 5.53256C118.303 5.21246 117.854 5.05191 117.234 5.0509H109.995ZM109.995 11.7926V15.581H118.159C118.78 15.581 119.279 15.4043 119.654 15.051C120.011 14.6845 120.214 14.1936 120.216 13.6816C120.219 13.1696 120.022 12.6764 119.668 12.306C119.283 11.956 118.776 11.7716 118.255 11.7926H109.995Z" fill="#ABB0BA"/>
<path d="M126.316 1.45581H130.334V10.5409C130.334 14.2653 132.027 16.1276 135.412 16.1276C138.797 16.1276 140.49 14.2653 140.49 10.5409V1.45581H144.509V10.5153C144.509 13.4243 143.694 15.6766 142.066 17.2721C140.437 18.8676 138.22 19.6648 135.414 19.6638C132.606 19.6638 130.389 18.8665 128.762 17.2721C127.135 15.6776 126.32 13.4253 126.316 10.5153V1.45581Z" fill="#ABB0BA"/>
<path d="M164.589 3.67108L162.661 6.62445C160.711 5.2756 158.365 4.60168 155.623 4.60268C152.75 4.60268 151.315 5.23383 151.315 6.49611C151.301 6.70108 151.346 6.90594 151.446 7.08562C151.546 7.26529 151.696 7.41199 151.878 7.50777C152.253 7.7091 152.837 7.85354 153.63 7.9411L158.965 8.54503C163.007 9.03125 165.052 10.7692 165.103 13.7587C165.121 14.6573 164.897 15.5443 164.457 16.3278C164.016 17.1115 163.374 17.7633 162.596 18.216C160.927 19.1793 158.687 19.661 155.88 19.661C152.323 19.661 149.259 18.7087 146.687 16.8042L148.578 13.6863C150.835 15.3027 153.545 16.1676 156.323 16.158C157.802 16.158 158.987 15.9708 159.875 15.5963C160.764 15.2218 161.209 14.6707 161.209 13.943C161.209 13.4522 161.058 13.0823 160.755 12.8362C160.452 12.5901 159.931 12.424 159.181 12.3379L153.202 11.6645C151.295 11.4501 149.844 10.9362 148.847 10.1229C147.85 9.30954 147.358 8.11117 147.369 6.52782C147.369 4.73103 148.145 3.36708 149.698 2.43597C151.251 1.50485 153.228 1.03931 155.629 1.03931C159.246 1.03931 162.232 1.91657 164.589 3.67108Z" fill="#ABB0BA"/>
<path d="M167.282 1.45581H171.301V8.22927H181.328V1.45581H185.346V19.2078H181.328V11.8243H171.301V19.2078H167.282V1.45581Z" fill="#ABB0BA"/>
</g>
</g>
<defs>
<clipPath id="clip0_697_28174">
<rect width="185.185" height="20" fill="white"/>
</clipPath>
</defs>
</svg>
