<svg width="139" height="34" viewBox="0 0 139 34" fill="none" xmlns="http://www.w3.org/2000/svg">
<g clip-path="url(#clip0_697_28164)">
<path d="M117.451 25.6501C121.26 25.6501 123.628 24.1037 124.966 22.7634C126.51 21.217 127.231 19.3613 127.231 18.1242H122.804C122.393 19.5675 120.848 21.7325 117.451 21.7325C114.054 21.7325 111.686 19.4644 111.686 16.1654C111.686 12.8663 114.054 10.5983 117.451 10.5983C120.643 10.5983 122.393 12.5571 122.804 14.2066H128.363L131.863 7.09305H132.378V14.2066H134.746L139.481 4.51672H125.996V10.4962H125.481C124.348 8.53741 121.672 6.68171 117.451 6.68171C111.275 6.68171 107.363 10.4962 107.363 16.1664C107.363 21.8366 111.583 25.6511 117.451 25.6511V25.6501Z" fill="#ABB0BA"/>
<path d="M12.8255 6.67316C9.9212 6.67316 7.43287 7.53436 5.63292 9.15992C3.76122 10.848 2.77441 13.2556 2.77441 16.1204C2.77441 18.9851 3.76122 21.3928 5.63292 23.0808C7.43495 24.7064 9.9212 25.5676 12.8255 25.5676C16.7124 25.5676 19.0738 24.0285 20.3695 22.7382C21.9282 21.1866 22.6238 19.3121 22.6238 18.1396V18.0552H18.216L18.1993 18.1177C18.19 18.1541 17.1855 21.6542 12.8255 21.6542C9.41896 21.6542 7.13132 19.4288 7.13132 16.1204C7.13132 12.812 9.41896 10.5866 12.8255 10.5866C17.1855 10.5866 18.1889 14.0876 18.1993 14.123L18.216 14.1855H22.6238V14.1012C22.6238 12.9307 21.9261 11.0542 20.3695 9.50253C19.0738 8.21229 16.7144 6.67316 12.8255 6.67316Z" fill="#ABB0BA"/>
<path d="M24.7412 25.2023H28.9525V10.8815H38.6074V25.2033H42.8187V7.04303H24.7412V25.2033V25.2023Z" fill="#ABB0BA"/>
<path d="M62.3383 9.15992C60.5363 7.53436 58.05 6.67316 55.1458 6.67316C52.2415 6.67316 49.7553 7.53436 47.9532 9.15992C46.0836 10.848 45.0947 13.2556 45.0947 16.1204C45.0947 18.9851 46.0815 21.3928 47.9532 23.0808C49.7553 24.7064 52.2415 25.5676 55.1458 25.5676C58.05 25.5676 60.5363 24.7064 62.3383 23.0808C64.2079 21.3928 65.1968 18.9851 65.1968 16.1204C65.1968 13.2556 64.21 10.848 62.3383 9.15992ZM60.8399 16.1204C60.8399 19.4288 58.5523 21.6542 55.1458 21.6542C51.7393 21.6542 49.4516 19.4288 49.4516 16.1204C49.4516 12.812 51.7393 10.5866 55.1458 10.5866C58.5523 10.5866 60.8399 12.812 60.8399 16.1204Z" fill="#ABB0BA"/>
<path d="M88.8018 10.8815H95.7718V25.2002L99.9832 25.2387V10.8815H106.953V7.04303H88.8008V10.8815H88.8018Z" fill="#ABB0BA"/>
<path d="M79.0557 6.67524C75.7739 6.67524 73.5487 7.99152 72.1616 10.1138H71.7955V7.03972H67.5645V31.9928H71.7955V22.1144H72.1616C73.5477 24.2367 75.7729 25.3343 79.0557 25.3343C84.2715 25.3343 88.0284 21.4927 88.0284 16.0766C88.0284 10.6605 84.2704 6.67316 79.0557 6.67316V6.67524ZM77.9254 21.3824C74.4981 21.3824 72.198 19.4069 72.198 16.1152C72.198 12.8234 74.495 10.6272 77.9254 10.6272C81.3558 10.6272 83.6528 12.713 83.6528 16.0048C83.6528 19.2965 81.3173 21.3824 77.9254 21.3824Z" fill="#ABB0BA"/>
</g>
<defs>
<clipPath id="clip0_697_28164">
<rect width="138.957" height="34" fill="white"/>
</clipPath>
</defs>
</svg>
