<svg width="47" height="47" viewBox="0 0 47 47" fill="none" xmlns="http://www.w3.org/2000/svg">
<g clip-path="url(#clip0_1742_88173)">
<rect width="5" height="5" rx="2.5" fill="#004D41"/>
<rect y="6" width="5" height="5" rx="2.5" fill="#004D41"/>
<rect y="12" width="5" height="5" rx="2.5" fill="#004D41"/>
<rect y="18" width="5" height="5" rx="2.5" fill="#00E4C0"/>
<rect y="24" width="5" height="5" rx="2.5" fill="#00E4C0"/>
<rect y="30" width="5" height="5" rx="2.5" fill="#00E4C0"/>
<rect y="36" width="5" height="5" rx="2.5" fill="#00E4C0"/>
<rect y="42" width="5" height="5" rx="2.5" fill="#00E4C0"/>
<rect x="6" width="5" height="5" rx="2.5" fill="#004D41"/>
<rect x="6" y="6" width="5" height="5" rx="2.5" fill="#004D41"/>
<rect x="6" y="12" width="5" height="5" rx="2.5" fill="#00E4C0"/>
<rect x="6" y="18" width="5" height="5" rx="2.5" fill="#004D41"/>
<rect x="6" y="24" width="5" height="5" rx="2.5" fill="#00E4C0"/>
<rect x="6" y="30" width="5" height="5" rx="2.5" fill="#00E4C0"/>
<rect x="6" y="36" width="5" height="5" rx="2.5" fill="#00E4C0"/>
<rect x="6" y="42" width="5" height="5" rx="2.5" fill="#004D41"/>
<rect x="12" width="5" height="5" rx="2.5" fill="#004D41"/>
<rect x="12" y="6" width="5" height="5" rx="2.5" fill="#004D41"/>
<rect x="12" y="12" width="5" height="5" rx="2.5" fill="#00E4C0"/>
<rect x="12" y="18" width="5" height="5" rx="2.5" fill="#00E4C0"/>
<rect x="12" y="24" width="5" height="5" rx="2.5" fill="#004D41"/>
<rect x="12" y="30" width="5" height="5" rx="2.5" fill="#00E4C0"/>
<rect x="12" y="36" width="5" height="5" rx="2.5" fill="#004D41"/>
<rect x="12" y="42" width="5" height="5" rx="2.5" fill="#004D41"/>
<rect x="18" width="5" height="5" rx="2.5" fill="#00E4C0"/>
<rect x="18" y="6" width="5" height="5" rx="2.5" fill="#00E4C0"/>
<rect x="18" y="12" width="5" height="5" rx="2.5" fill="#004D41"/>
<rect x="18" y="18" width="5" height="5" rx="2.5" fill="#00E4C0"/>
<rect x="18" y="24" width="5" height="5" rx="2.5" fill="#00E4C0"/>
<rect x="18" y="30" width="5" height="5" rx="2.5" fill="#00E4C0"/>
<rect x="18" y="36" width="5" height="5" rx="2.5" fill="#004D41"/>
<rect x="18" y="42" width="5" height="5" rx="2.5" fill="#004D41"/>
<rect x="24" width="5" height="5" rx="2.5" fill="#00E4C0"/>
<rect x="24" y="6" width="5" height="5" rx="2.5" fill="#004D41"/>
<rect x="24" y="12" width="5" height="5" rx="2.5" fill="#00E4C0"/>
<rect x="24" y="18" width="5" height="5" rx="2.5" fill="#00E4C0"/>
<rect x="24" y="24" width="5" height="5" rx="2.5" fill="#00E4C0"/>
<rect x="24" y="30" width="5" height="5" rx="2.5" fill="#00E4C0"/>
<rect x="24" y="36" width="5" height="5" rx="2.5" fill="#004D41"/>
<rect x="24" y="42" width="5" height="5" rx="2.5" fill="#004D41"/>
<rect x="30" width="5" height="5" rx="2.5" fill="#004D41"/>
<rect x="30" y="6" width="5" height="5" rx="2.5" fill="#004D41"/>
<rect x="30" y="12" width="5" height="5" rx="2.5" fill="#00E4C0"/>
<rect x="30" y="18" width="5" height="5" rx="2.5" fill="#00E4C0"/>
<rect x="30" y="24" width="5" height="5" rx="2.5" fill="#004D41"/>
<rect x="30" y="30" width="5" height="5" rx="2.5" fill="#00E4C0"/>
<rect x="30" y="36" width="5" height="5" rx="2.5" fill="#004D41"/>
<rect x="30" y="42" width="5" height="5" rx="2.5" fill="#004D41"/>
<rect x="36" width="5" height="5" rx="2.5" fill="#004D41"/>
<rect x="36" y="6" width="5" height="5" rx="2.5" fill="#004D41"/>
<rect x="36" y="12" width="5" height="5" rx="2.5" fill="#00E4C0"/>
<rect x="36" y="18" width="5" height="5" rx="2.5" fill="#004D41"/>
<rect x="36" y="24" width="5" height="5" rx="2.5" fill="#00E4C0"/>
<rect x="36" y="30" width="5" height="5" rx="2.5" fill="#00E4C0"/>
<rect x="36" y="36" width="5" height="5" rx="2.5" fill="#00E4C0"/>
<rect x="36" y="42" width="5" height="5" rx="2.5" fill="#004D41"/>
<rect x="42" width="5" height="5" rx="2.5" fill="#004D41"/>
<rect x="42" y="6" width="5" height="5" rx="2.5" fill="#004D41"/>
<rect x="42" y="12" width="5" height="5" rx="2.5" fill="#004D41"/>
<rect x="42" y="18" width="5" height="5" rx="2.5" fill="#00E4C0"/>
<rect x="42" y="24" width="5" height="5" rx="2.5" fill="#00E4C0"/>
<rect x="42" y="30" width="5" height="5" rx="2.5" fill="#00E4C0"/>
<rect x="42" y="36" width="5" height="5" rx="2.5" fill="#00E4C0"/>
<rect x="42" y="42" width="5" height="5" rx="2.5" fill="#00E4C0"/>
</g>
<defs>
<clipPath id="clip0_1742_88173">
<rect width="47" height="47" fill="white"/>
</clipPath>
</defs>
</svg>
