<svg width="24" height="24" viewBox="0 0 24 24" fill="none" xmlns="http://www.w3.org/2000/svg">
<path d="M12 2.25C17.3848 2.25 21.75 6.61522 21.75 12C21.75 17.3848 17.3848 21.75 12 21.75C6.61522 21.75 2.25 17.3848 2.25 12C2.25 6.61522 6.61522 2.25 12 2.25ZM12 3.375C7.23654 3.375 3.375 7.23654 3.375 12C3.375 16.7635 7.23654 20.625 12 20.625C16.7635 20.625 20.625 16.7635 20.625 12C20.625 7.23654 16.7635 3.375 12 3.375ZM10.1992 12.8643C11.1818 12.7817 12.7568 12.7867 13.7441 12.8555C14.9703 12.9381 16.0451 13.7867 16.3252 14.998C16.5502 15.9708 16.2842 16.3701 15.5127 16.9023C13.3911 18.3707 10.5848 18.3662 8.46777 16.8887C7.76061 16.3886 7.48088 16.0482 7.6416 15.126C7.86223 13.8782 8.95517 12.9652 10.2041 12.8643H10.1992ZM12.0039 6C13.5285 6 14.7637 7.23444 14.7637 8.75781C14.7636 10.2811 13.5285 11.5156 12.0039 11.5156C10.4794 11.5155 9.24422 10.2811 9.24414 8.75781C9.24414 7.2345 10.4794 6.00009 12.0039 6Z" fill="#E3E3E3"/>
</svg>
