<svg width="32" height="32" viewBox="0 0 32 32" fill="none" xmlns="http://www.w3.org/2000/svg">
<path d="M32 17.9198V18.6541C31.9861 18.6531 31.9722 18.6513 31.9585 18.6513C31.7627 18.6509 31.5668 18.6508 31.371 18.6509C31.3535 18.6509 31.336 18.6517 31.3188 18.6539C31.2759 18.6594 31.2614 18.6771 31.2594 18.7137C31.2576 18.7451 31.2578 18.7765 31.2578 18.808C31.2576 18.9653 31.2578 19.1227 31.2576 19.28C31.2576 19.3114 31.2574 19.3429 31.2559 19.3743C31.254 19.4116 31.24 19.4262 31.2057 19.4275C31.1742 19.4287 31.1428 19.4288 31.1114 19.4288C30.947 19.4289 30.7827 19.4286 30.6183 19.4291C30.5869 19.4291 30.5556 19.4317 30.5243 19.4338C30.5119 19.4347 30.4976 19.4491 30.4967 19.4615C30.4945 19.4928 30.4919 19.5241 30.4918 19.5555C30.4913 19.7268 30.4918 19.8981 30.4913 20.0694C30.4913 20.1008 30.4897 20.1323 30.4881 20.1636C30.4872 20.1789 30.4707 20.1971 30.4542 20.1992C30.4231 20.2031 30.3919 20.2072 30.3607 20.2075C30.2033 20.2083 30.046 20.2078 29.8886 20.208C29.8571 20.208 29.8256 20.2088 29.7944 20.2108C29.7633 20.2129 29.745 20.2333 29.7432 20.2664C29.7418 20.2942 29.7416 20.3222 29.7416 20.3502C29.7415 20.5075 29.7416 20.6649 29.7413 20.8222C29.7413 20.871 29.7425 20.9199 29.7327 20.9684C29.7279 20.992 29.7296 21.0171 29.7296 21.0415C29.7294 21.2408 29.7295 21.4401 29.7296 21.6394C29.7296 21.6604 29.7282 21.6818 29.7317 21.7022C29.7407 21.7544 29.7386 21.8068 29.7387 21.8592C29.7391 22.0096 29.7388 22.1599 29.7387 22.3101C29.7387 22.3381 29.739 22.3661 29.7382 22.3941C29.736 22.4613 29.7264 22.4716 29.657 22.4718C29.4542 22.4724 29.2513 22.472 29.0485 22.4718C29.0346 22.4718 29.0207 22.4694 29.0069 22.4679C28.9947 22.4664 28.9811 22.4527 28.9803 22.4397C28.9783 22.4083 28.9759 22.3769 28.9758 22.3457C28.9754 22.1709 28.9759 21.996 28.9753 21.8212C28.9752 21.7864 28.9746 21.751 28.9683 21.717C28.9612 21.6787 28.9595 21.6407 28.9594 21.6022C28.9578 21.1722 28.9563 20.7421 28.9548 20.3122C28.9548 20.2807 28.9555 20.2492 28.9556 20.2177C28.9568 19.9905 28.9587 19.7633 28.9588 19.536C28.9588 19.4419 28.951 19.4349 28.8566 19.4346C28.6748 19.4338 28.4929 19.4344 28.3111 19.4345C28.2971 19.4345 28.2831 19.4349 28.2691 19.4358C28.2319 19.4382 28.2137 19.4567 28.2115 19.4966C28.2097 19.528 28.2097 19.5594 28.2096 19.5909C28.2094 19.7552 28.2102 19.9196 28.2091 20.0838C28.2085 20.1782 28.2035 20.1825 28.1064 20.1829C27.9247 20.1834 27.7428 20.183 27.561 20.1831C27.5295 20.1831 27.498 20.1834 27.4666 20.1844C27.4073 20.1864 27.348 20.1906 27.2887 20.191C27.1244 20.1919 26.96 20.191 26.7955 20.1916C26.7678 20.1916 26.7398 20.1939 26.7122 20.1977C26.6978 20.1997 26.6864 20.2111 26.6845 20.2257C26.6804 20.2568 26.6768 20.288 26.6767 20.3193C26.676 20.48 26.6764 20.6409 26.6763 20.8017C26.6763 20.8332 26.6765 20.8647 26.674 20.896C26.6711 20.9327 26.6584 20.9499 26.6132 20.9533C26.5993 20.9544 26.5852 20.9546 26.5713 20.9547C26.5434 20.9549 26.5154 20.9548 26.4874 20.9549C26.337 20.9549 26.1867 20.9546 26.0363 20.9553C26.0085 20.9554 25.9805 20.958 25.9531 20.9623C25.9389 20.9645 25.9275 20.9763 25.9261 20.9908C25.9228 21.0254 25.9203 21.0603 25.9203 21.0952C25.9206 21.7665 25.9214 22.4377 25.922 23.109C25.922 23.13 25.9222 23.151 25.9228 23.172C25.9231 23.1824 25.9243 23.1928 25.9257 23.2032C25.9285 23.2231 25.9468 23.2437 25.9666 23.2457C25.9978 23.249 26.0293 23.2516 26.0605 23.2517C26.2109 23.2524 26.3612 23.252 26.5117 23.2521C26.5431 23.2521 26.5746 23.2523 26.606 23.2539C26.6394 23.2557 26.6584 23.2744 26.6605 23.3058C26.6615 23.3197 26.662 23.3337 26.6621 23.3477C26.6623 23.3792 26.6622 23.4107 26.6622 23.4421C26.6622 24.3372 26.6622 25.2322 26.6622 26.1273C26.6622 26.1901 26.6591 26.2531 26.6708 26.3155C26.674 26.3324 26.6726 26.3503 26.6726 26.3678C26.6726 26.5671 26.6727 26.7664 26.6726 26.9657C26.6726 26.9832 26.6714 27.0007 26.6699 27.018C26.6682 27.0395 26.6519 27.0567 26.6292 27.0587C26.5979 27.0614 26.5664 27.0634 26.535 27.0635C26.3776 27.0639 26.2203 27.0634 26.0629 27.0642C26.0317 27.0643 26.0004 27.0679 25.9693 27.072C25.955 27.074 25.9444 27.0849 25.9404 27.0993C25.9366 27.1126 25.9331 27.1264 25.9324 27.14C25.9309 27.1714 25.9309 27.2029 25.9309 27.2343C25.9308 27.3846 25.9313 27.535 25.9303 27.6853C25.9301 27.7165 25.9254 27.7477 25.9218 27.7788C25.9204 27.7906 25.905 27.8047 25.8928 27.8056C25.8651 27.8079 25.8372 27.8106 25.8093 27.8107C25.624 27.8111 25.4386 27.811 25.2533 27.8107C25.2289 27.8107 25.204 27.8119 25.18 27.8083C25.1242 27.8 25.0684 27.8012 25.0125 27.8011C24.8516 27.8008 24.6908 27.8013 24.5299 27.8007C24.4986 27.8006 24.4674 27.7971 24.4361 27.7945C24.4243 27.7935 24.4101 27.7785 24.4091 27.7661C24.4067 27.7348 24.4038 27.7035 24.4036 27.6722C24.4031 27.5149 24.4035 27.3575 24.4033 27.2002C24.4033 27.1688 24.4029 27.1373 24.4011 27.1059C24.3992 27.072 24.3813 27.0539 24.3494 27.0517C24.3285 27.0503 24.3076 27.0497 24.2866 27.0496C24.0383 27.0481 23.7901 27.046 23.5418 27.0456C23.1047 27.0449 22.6675 27.0454 22.2305 27.0456C22.2025 27.0456 22.1745 27.0464 22.1466 27.0479C22.1237 27.0491 22.1059 27.0648 22.1042 27.0865C22.1019 27.1178 22.1004 27.1492 22.1004 27.1807C22.1001 27.3554 22.1004 27.5303 22.1001 27.7051C22.1001 27.7366 22.1018 27.7686 22.0963 27.7992C22.0876 27.8479 22.088 27.8966 22.088 27.9454C22.0879 28.3475 22.088 28.7495 22.088 29.1517C22.088 29.1796 22.0884 29.2076 22.0878 29.2356C22.0865 29.3146 22.0775 29.324 21.9951 29.3245C21.712 29.3257 21.4288 29.3235 21.1456 29.3314C21.0093 29.3353 20.8729 29.3321 20.7365 29.3321C20.7085 29.3321 20.6805 29.3321 20.6525 29.3312C20.6421 29.3309 20.6318 29.3287 20.6215 29.3273C20.6088 29.3254 20.5952 29.3119 20.5947 29.2993C20.5933 29.2679 20.5915 29.2366 20.5915 29.2051C20.5912 29.0198 20.5913 28.8345 20.5913 28.6492C20.5913 28.1563 20.5913 27.6632 20.5914 27.1703C20.5914 27.1424 20.5925 27.1144 20.5939 27.0866C20.5947 27.0706 20.6114 27.0527 20.6277 27.0513C20.659 27.0486 20.6903 27.0461 20.7217 27.046C20.8826 27.0455 21.0434 27.046 21.2043 27.0456C21.2357 27.0456 21.2672 27.0433 21.2985 27.041C21.3152 27.0398 21.332 27.023 21.3331 27.0067C21.3353 26.9754 21.3374 26.9439 21.3375 26.9126C21.3379 26.7483 21.3375 26.5839 21.3379 26.4196C21.3379 26.3884 21.3408 26.357 21.3435 26.3257C21.3449 26.3098 21.3626 26.2925 21.3786 26.2913C21.4099 26.2889 21.4413 26.2867 21.4727 26.2866C21.6406 26.2862 21.8084 26.2866 21.9763 26.2863C22.0078 26.2863 22.0392 26.2851 22.0705 26.2833C22.0906 26.2822 22.1106 26.2636 22.1124 26.2427C22.1155 26.2079 22.1179 26.1731 22.118 26.1382C22.1186 25.9739 22.1177 25.8095 22.1188 25.6453C22.1193 25.5542 22.1296 25.5448 22.2233 25.5448C22.6569 25.5445 23.0906 25.5445 23.5241 25.5448C23.6158 25.5448 23.6262 25.555 23.6269 25.6474C23.6279 25.8012 23.6272 25.9551 23.6273 26.1089C23.6273 26.1404 23.627 26.1719 23.6282 26.2033C23.6307 26.2661 23.6469 26.2826 23.712 26.2829C23.9008 26.2838 24.0897 26.2838 24.2785 26.2832C24.3713 26.2829 24.3804 26.2742 24.3809 26.1811C24.3819 26.0239 24.3812 25.8665 24.3813 25.7092C24.3813 25.6777 24.3807 25.6462 24.3822 25.6149C24.3832 25.5941 24.3824 25.5707 24.3916 25.5533C24.4161 25.5072 24.4127 25.4586 24.4127 25.4098C24.4129 24.9972 24.4127 24.5847 24.4128 24.1721C24.4128 24.1407 24.4128 24.1092 24.4135 24.0777C24.4137 24.0673 24.4156 24.0569 24.4171 24.0467C24.4193 24.0325 24.4381 24.0134 24.4529 24.0123C24.4843 24.0101 24.5157 24.0079 24.5471 24.0078C24.7115 24.0073 24.8758 24.0081 25.0402 24.0072C25.1453 24.0067 25.1512 24.0002 25.152 23.8924C25.1538 23.6302 25.1562 23.368 25.1564 23.1059C25.1569 22.1899 25.1566 21.2739 25.1566 20.3579C25.1566 20.3264 25.1568 20.2949 25.1559 20.2634C25.1556 20.2495 25.153 20.2358 25.151 20.222C25.1493 20.2104 25.135 20.1957 25.1231 20.1938C25.106 20.1913 25.0886 20.1878 25.0713 20.1878C24.8756 20.1873 24.6797 20.1873 24.4839 20.1876C24.4665 20.1876 24.449 20.1896 24.4317 20.1917C24.4126 20.194 24.3927 20.2134 24.3909 20.2339C24.3878 20.2687 24.3853 20.3035 24.3852 20.3384C24.3845 20.5027 24.3855 20.6671 24.3845 20.8313C24.3839 20.9346 24.3746 20.9436 24.2692 20.9445C24.1398 20.9454 24.0104 20.9445 23.881 20.9449C23.7902 20.9452 23.6991 20.9403 23.6089 20.9571C23.5988 20.959 23.588 20.9584 23.5776 20.9584C23.3678 20.9584 23.1579 20.9589 22.9481 20.9581C22.924 20.9581 22.8985 20.956 22.8761 20.9481C22.8386 20.9347 22.8007 20.9343 22.7623 20.9343C22.6224 20.9341 22.4826 20.9336 22.3426 20.9343C22.2519 20.9347 22.1608 20.9293 22.0704 20.9441C22.0534 20.947 22.0356 20.9453 22.0181 20.9454C21.7664 20.9481 21.5146 20.9392 21.263 20.9531C20.8224 20.9531 20.3818 20.9531 19.9412 20.9531C19.9237 20.9531 19.9062 20.9531 19.8887 20.9522C19.8784 20.9517 19.8681 20.9493 19.8578 20.9475C19.8478 20.9458 19.8326 20.9288 19.8319 20.9179C19.8306 20.897 19.8292 20.876 19.829 20.8551C19.8269 20.53 19.8248 20.2048 19.823 19.8798C19.8225 19.7679 19.8234 19.6561 19.8226 19.5441C19.8224 19.5164 19.8192 19.4885 19.8166 19.4607C19.8155 19.449 19.7999 19.4337 19.7886 19.4331C19.7572 19.4312 19.7259 19.429 19.6945 19.4289C19.5301 19.4285 19.3658 19.4289 19.2014 19.4286C19.1699 19.4286 19.1385 19.4276 19.107 19.426C19.0845 19.4249 19.0685 19.4089 19.0669 19.3855C19.0648 19.3542 19.0639 19.3227 19.0638 19.2913C19.0634 19.1235 19.0638 18.9557 19.0634 18.7879C19.0634 18.7565 19.0619 18.725 19.0601 18.6937C19.0593 18.6785 19.0418 18.6605 19.0255 18.6589C18.9908 18.6558 18.956 18.6524 18.9212 18.6521C18.7603 18.6515 18.5995 18.652 18.4386 18.6516C18.4072 18.6516 18.3757 18.6496 18.3444 18.6478C18.3293 18.6469 18.3109 18.6284 18.3098 18.613C18.3078 18.5853 18.3062 18.5573 18.3062 18.5294C18.3059 18.3616 18.3062 18.1938 18.3058 18.026C18.3058 17.9947 18.3027 17.9634 18.3001 17.9322C18.2991 17.9202 18.284 17.9053 18.2721 17.9043C18.2408 17.9019 18.2095 17.8992 18.1782 17.8991C17.8915 17.8982 17.6047 17.897 17.318 17.8977C16.9194 17.8986 16.5209 17.9014 16.1222 17.9033C16.1082 17.9033 16.0942 17.9033 16.0802 17.9039C16.0226 17.9061 16.0113 17.9166 16.0094 17.9705C16.0084 17.9984 16.0086 18.0264 16.0086 18.0544C16.0086 18.2152 16.0087 18.3761 16.0084 18.5368C16.0084 18.5683 16.0072 18.5997 16.0055 18.6311C16.0044 18.6513 15.9854 18.6694 15.9635 18.6708C15.9321 18.6728 15.9006 18.6741 15.8693 18.6741C15.7153 18.6744 15.5615 18.6741 15.4076 18.6743C15.3761 18.6743 15.3447 18.6743 15.3133 18.6758C15.272 18.6776 15.2556 18.693 15.2533 18.7326C15.2515 18.764 15.2513 18.7954 15.2513 18.8269C15.2511 18.9633 15.2515 19.0996 15.2511 19.236C15.2509 19.3094 15.2543 19.3827 15.2412 19.4557C15.237 19.4795 15.239 19.5046 15.239 19.5289C15.239 20.2247 15.2388 20.9204 15.239 21.6162C15.239 21.6442 15.2365 21.673 15.2428 21.6998C15.2566 21.7586 15.2545 21.8179 15.2546 21.8772C15.2549 22.031 15.2544 22.1849 15.2549 22.3387C15.2549 22.37 15.2576 22.4014 15.2603 22.4327C15.2616 22.4486 15.2793 22.4653 15.2956 22.4665C15.327 22.4687 15.3583 22.4708 15.3897 22.4709C15.5506 22.4714 15.7114 22.4709 15.8723 22.4714C15.9037 22.4714 15.9351 22.4742 15.9663 22.4769C15.9815 22.4782 15.9991 22.4974 16.0001 22.5129C16.0019 22.5408 16.0034 22.5686 16.0034 22.5965C16.0037 22.7713 16.0034 22.9461 16.0037 23.1209C16.0037 23.1523 16.0052 23.1838 16.007 23.2151C16.008 23.2323 16.0238 23.2489 16.0406 23.2501C16.0718 23.2524 16.1033 23.2546 16.1346 23.2546C16.299 23.255 16.4633 23.2547 16.6277 23.2549C16.6557 23.2549 16.6837 23.2553 16.7115 23.2568C16.7382 23.2581 16.7544 23.2763 16.7562 23.3052C16.7567 23.3122 16.7572 23.3192 16.7572 23.3262C16.7572 23.5254 16.7574 23.7248 16.7572 23.924C16.7572 23.9378 16.7547 23.9517 16.7527 23.9655C16.7511 23.977 16.7363 23.9926 16.7249 23.9939C16.7041 23.9963 16.6833 23.9992 16.6626 23.9993C16.3794 24.0005 16.0962 23.9986 15.8131 24.0062C15.6628 24.0103 15.5123 24.0068 15.3619 24.0072C15.3341 24.0072 15.3061 24.0088 15.2784 24.0121C15.264 24.0139 15.2522 24.0252 15.2501 24.0395C15.2455 24.0704 15.2415 24.1016 15.2412 24.1329C15.2404 24.2867 15.2408 24.4406 15.2408 24.5944C15.2408 24.6223 15.2411 24.6503 15.24 24.6783C15.2376 24.7405 15.2257 24.7526 15.1666 24.754C15.1386 24.7547 15.1106 24.7545 15.0826 24.7545C14.9147 24.7545 14.7469 24.7542 14.579 24.7548C14.5478 24.7549 14.515 24.7542 14.4857 24.763C14.441 24.7764 14.3961 24.7772 14.3508 24.7773C14.2004 24.7775 14.0501 24.7773 13.8996 24.7774C13.8717 24.7774 13.8437 24.7771 13.8157 24.778C13.7405 24.7803 13.7293 24.7909 13.7275 24.8622C13.7267 24.8902 13.727 24.9182 13.727 24.9462C13.727 25.1 13.727 25.2539 13.7269 25.4076C13.7269 25.4391 13.7294 25.4713 13.7241 25.5019C13.7143 25.5576 13.7159 25.6133 13.7159 25.6691C13.7159 26.0782 13.7162 26.4872 13.7163 26.8963C13.7163 26.9278 13.7163 26.9592 13.7154 26.9907C13.7152 27.0011 13.7149 27.0127 13.7103 27.0214C13.7059 27.0297 13.6967 27.0395 13.6882 27.041C13.6644 27.0453 13.6398 27.0473 13.6155 27.0473C13.4232 27.0478 13.2309 27.0478 13.0386 27.0473C13.0142 27.0473 12.9898 27.0448 12.9653 27.0434C12.9271 27.0411 12.8887 27.0371 12.8504 27.0368C12.6826 27.0361 12.5147 27.0366 12.3468 27.0364C12.3188 27.0364 12.2909 27.0356 12.263 27.034C12.2427 27.0328 12.2229 27.0136 12.2216 26.9932C12.2195 26.9619 12.2182 26.9304 12.2181 26.899C12.2177 26.7382 12.2183 26.5774 12.2176 26.4166C12.2175 26.3817 12.2199 26.345 12.2099 26.3126C12.196 26.2678 12.1949 26.2234 12.1948 26.1782C12.1946 26.0139 12.1948 25.8495 12.1947 25.6853C12.1947 25.6538 12.1947 25.6223 12.1935 25.5909C12.1917 25.5481 12.1784 25.5345 12.1371 25.5321C12.1196 25.5312 12.1021 25.5308 12.0846 25.5307C11.8993 25.5307 11.7139 25.5306 11.5286 25.5307C11.5076 25.5307 11.4867 25.5319 11.4658 25.5334C11.444 25.535 11.4247 25.5505 11.4218 25.5715C11.4177 25.6025 11.4142 25.6339 11.4139 25.665C11.4132 25.8118 11.4136 25.9587 11.4135 26.1056C11.4135 26.1336 11.4138 26.1616 11.4125 26.1896C11.4099 26.2473 11.3922 26.2663 11.3376 26.2692C11.3063 26.2709 11.2747 26.2707 11.2433 26.2707C11.0964 26.2708 10.9496 26.2707 10.8027 26.2709C10.7677 26.2709 10.7328 26.2704 10.6986 26.2802C10.6772 26.2863 10.66 26.3024 10.6586 26.3231C10.6564 26.3545 10.6548 26.3859 10.6548 26.4172C10.6544 26.585 10.6543 26.7529 10.6546 26.9207C10.6549 27.0433 10.6548 27.0394 10.531 27.0392C10.3596 27.0391 10.1883 27.039 10.0169 27.0392C9.98542 27.0392 9.9535 27.0375 9.92268 27.0426C9.87742 27.0501 9.83216 27.05 9.7868 27.0501C9.60851 27.0503 9.43011 27.0498 9.25181 27.0505C9.21694 27.0506 9.18109 27.05 9.14764 27.0577C9.1026 27.0683 9.05767 27.069 9.01231 27.0691C8.8479 27.0693 8.6836 27.0691 8.51919 27.0694C8.48782 27.0694 8.45634 27.0708 8.42496 27.0733C8.40004 27.0753 8.38014 27.0958 8.37796 27.122C8.37522 27.1532 8.3738 27.1847 8.37369 27.2161C8.37326 27.363 8.37369 27.5098 8.37326 27.6567C8.37315 27.688 8.37074 27.7194 8.36768 27.7507C8.36571 27.7705 8.34494 27.7888 8.32505 27.7912C8.31466 27.7924 8.30417 27.7938 8.29368 27.7938C8.10139 27.794 7.909 27.7941 7.71672 27.7937C7.70294 27.7937 7.68906 27.7909 7.6755 27.7878C7.66086 27.7844 7.65102 27.7737 7.64654 27.7601C7.64227 27.747 7.63943 27.733 7.63877 27.7192C7.63735 27.6913 7.63768 27.6632 7.63757 27.6354C7.63757 27.492 7.6379 27.3487 7.63724 27.2053C7.63713 27.1739 7.63484 27.1424 7.63123 27.1113C7.62828 27.0855 7.60751 27.0659 7.58259 27.0641C7.55121 27.0618 7.51984 27.0605 7.48836 27.0605C7.32395 27.0601 7.15965 27.0605 6.99524 27.0601C6.95687 27.0601 6.91796 27.0608 6.88013 27.0555C6.83477 27.0492 6.78962 27.0481 6.74415 27.0481C6.57624 27.0481 6.40844 27.0481 6.24054 27.048C6.20905 27.048 6.17757 27.0472 6.1462 27.0458C6.12324 27.0448 6.10531 27.0285 6.10411 27.0074C6.10225 26.9761 6.10083 26.9446 6.10083 26.9132C6.1005 26.7524 6.10083 26.5916 6.10061 26.4308C6.10061 26.3993 6.10061 26.3678 6.0981 26.3365C6.09526 26.3 6.08039 26.291 6.05328 26.289C6.02191 26.2867 5.99043 26.2867 5.95894 26.2867C5.79803 26.2865 5.63723 26.2868 5.47632 26.2864C5.44495 26.2864 5.41357 26.2841 5.3822 26.2822C5.37029 26.2816 5.35476 26.2676 5.35345 26.2555C5.35006 26.2243 5.34591 26.1932 5.34569 26.1619C5.34492 25.9976 5.34547 25.8333 5.34514 25.669C5.34514 25.634 5.34405 25.599 5.34285 25.5642C5.34088 25.5083 5.33673 25.4525 5.33651 25.3967C5.33563 25.2115 5.33629 25.0261 5.33585 24.8408C5.33574 24.7748 5.327 24.7617 5.25704 24.7611C5.25004 24.7611 5.24304 24.7609 5.23605 24.7609C4.9738 24.7598 4.71167 24.762 4.44942 24.756C4.27463 24.7521 4.09973 24.7552 3.92493 24.7552C3.89695 24.7552 3.86842 24.7522 3.84109 24.7568C3.75069 24.772 3.65974 24.7663 3.56901 24.7668C3.43608 24.7677 3.30326 24.7668 3.17034 24.7673C3.14246 24.7673 3.11448 24.769 3.08671 24.7714C3.06561 24.7733 3.04998 24.7915 3.04823 24.8144C3.04692 24.8318 3.04583 24.8492 3.04572 24.8667C3.04473 25.1428 3.04648 25.419 3.03982 25.6951C3.03588 25.8559 3.03927 26.0168 3.03894 26.1775C3.03894 26.2054 3.03752 26.2334 3.0338 26.2609C3.03271 26.2688 3.02189 26.2798 3.01402 26.2814C2.99368 26.2854 2.97248 26.2861 2.9516 26.2862C2.75931 26.2865 2.56692 26.2866 2.37464 26.2862C2.28926 26.286 2.28675 26.283 2.28522 26.1983C2.28467 26.1703 2.285 26.1423 2.285 26.1144C2.285 25.9606 2.285 25.8067 2.285 25.6529C2.285 25.5306 2.28489 25.5312 2.16279 25.5312C1.99138 25.5312 1.82009 25.5315 1.64868 25.5309C1.52767 25.5306 1.52702 25.5302 1.52691 25.4085C1.52669 24.7197 1.5268 24.031 1.52691 23.3422C1.52691 23.3143 1.52472 23.2855 1.53062 23.2586C1.54123 23.21 1.53981 23.1614 1.53991 23.1125C1.54024 22.9517 1.53991 22.7908 1.54013 22.6301C1.54013 22.6021 1.54079 22.5741 1.54254 22.5462C1.54407 22.521 1.56407 22.5021 1.59118 22.5004C1.62256 22.4986 1.65404 22.4977 1.68552 22.4977C1.83944 22.4974 1.99324 22.4979 2.14715 22.4973C2.17842 22.4971 2.2099 22.4941 2.24106 22.4905C2.26117 22.4882 2.2803 22.4672 2.28161 22.4481C2.28336 22.4237 2.28478 22.3992 2.28478 22.3748C2.285 22.1931 2.28489 22.0112 2.28478 21.8294C2.28478 21.812 2.28467 21.7945 2.2838 21.777C2.28172 21.7344 2.26849 21.7206 2.22685 21.7189C2.19886 21.7179 2.17088 21.718 2.14289 21.718C1.98548 21.718 1.82818 21.718 1.67076 21.718C1.64278 21.718 1.61479 21.718 1.58681 21.717C1.54396 21.7153 1.53008 21.7021 1.528 21.6607C1.52669 21.6328 1.52669 21.6047 1.52658 21.5769C1.52614 21.3181 1.52483 21.0594 1.5257 20.8007C1.52636 20.577 1.52352 20.3534 1.52964 20.1295C1.53445 19.9549 1.53062 19.7799 1.53073 19.6051C1.53073 19.5736 1.53051 19.5422 1.53117 19.5107C1.5315 19.4968 1.53325 19.4829 1.535 19.469C1.53696 19.4525 1.55281 19.438 1.57096 19.4371C1.60233 19.4357 1.63382 19.4346 1.6653 19.4346C1.82271 19.4344 1.98001 19.4346 2.13743 19.4345C2.16541 19.4345 2.19339 19.4345 2.22138 19.4336C2.23176 19.4333 2.24215 19.4312 2.25242 19.4297C2.265 19.4278 2.2791 19.4145 2.28074 19.4025C2.2827 19.3887 2.28544 19.3748 2.28544 19.3609C2.28566 19.1512 2.28566 18.9414 2.28544 18.7316C2.28544 18.7211 2.28391 18.7107 2.2827 18.7003C2.28096 18.685 2.26511 18.667 2.24849 18.6653C2.21384 18.6615 2.17907 18.6576 2.14431 18.6574C1.97652 18.6566 1.80861 18.6572 1.6407 18.6568C1.60572 18.6568 1.57085 18.6555 1.53587 18.6542C1.4905 18.6526 1.44514 18.6489 1.39977 18.6487C1.23187 18.648 1.06407 18.6486 0.896163 18.6482C0.86479 18.6482 0.833307 18.6465 0.801934 18.6445C0.787505 18.6436 0.766953 18.6246 0.765642 18.6106C0.762909 18.5829 0.760067 18.555 0.759957 18.5272C0.759411 18.3769 0.759848 18.2265 0.75952 18.0763C0.75952 18.0448 0.759192 18.0133 0.757225 17.9819C0.75482 17.9435 0.735471 17.9236 0.699288 17.9201C0.681907 17.9184 0.664417 17.9177 0.646926 17.9174C0.618942 17.917 0.590958 17.9172 0.562973 17.9172C0.416055 17.9172 0.269246 17.9177 0.122328 17.9168C0.091173 17.9166 0.0600184 17.9114 0.0288638 17.9078C0.0176045 17.9065 0.00306569 17.8895 0.00273774 17.8782C0.0016446 17.8433 -0.000104426 17.8084 4.88864e-06 17.7734C4.88864e-06 17.4237 0.000770088 17.0741 0.000770088 16.7246C0.000770088 16.3925 0.012576 16.0606 0.00787551 15.7284C0.00765688 15.711 0.00907797 15.6936 0.0104991 15.6762C0.0118108 15.6604 0.0289732 15.6413 0.0439492 15.6403C0.0788204 15.638 0.113692 15.6357 0.148563 15.6356C0.319968 15.6351 0.491263 15.6356 0.662668 15.6349C0.758536 15.6344 0.763128 15.6186 0.763128 15.5307C0.763128 15.3559 0.763128 15.1811 0.763128 15.0063C0.763128 14.9748 0.763346 14.9433 0.764658 14.912C0.76597 14.8822 0.781602 14.8662 0.809695 14.8651C0.83768 14.864 0.865664 14.8638 0.893539 14.8638C1.06145 14.8637 1.22924 14.8639 1.39715 14.8637C1.52866 14.8634 1.52745 14.8725 1.52909 14.7305C1.53172 14.4964 1.52592 14.2624 1.53598 14.0282C1.54451 13.8293 1.53784 13.6297 1.53762 13.4304C1.53762 13.4131 1.53609 13.3956 1.53423 13.3782C1.53139 13.3517 1.51226 13.3316 1.48712 13.3303C1.45574 13.3286 1.42426 13.3279 1.39278 13.3279C1.21449 13.3277 1.03609 13.3281 0.857794 13.3276C0.76116 13.3273 0.760504 13.3263 0.759957 13.2264C0.758318 12.9572 0.757115 12.688 0.755694 12.4189C0.755694 12.4084 0.755694 12.3979 0.755694 12.3874C0.751759 11.7267 0.761051 11.066 0.762144 10.4053C0.762362 10.2795 0.759957 10.2861 0.884029 10.2859C1.05194 10.2856 1.21973 10.286 1.38764 10.2857C1.41901 10.2857 1.45039 10.2837 1.48176 10.2819C1.49783 10.2809 1.51488 10.264 1.51587 10.2474C1.51794 10.2161 1.5198 10.1847 1.51991 10.1532C1.52035 9.98546 1.51991 9.81758 1.52046 9.64981C1.52057 9.61855 1.52417 9.58718 1.52647 9.55592C1.52723 9.54543 1.5444 9.52849 1.55467 9.52783C1.58605 9.52597 1.61742 9.52302 1.64879 9.52302C1.8097 9.52248 1.9705 9.52269 2.13141 9.5228C2.29528 9.5228 2.28281 9.52805 2.28292 9.36607C2.28325 9.03041 2.2826 8.69476 2.28314 8.35911C2.28369 8.01646 2.285 7.67392 2.2862 7.33127C2.2862 7.30329 2.28773 7.27542 2.28894 7.24743C2.29079 7.20557 2.29473 7.16382 2.29495 7.12196C2.2956 6.95419 2.29517 6.78631 2.29539 6.61853C2.29539 6.59055 2.29593 6.56257 2.29735 6.5347C2.29845 6.51339 2.31626 6.49393 2.33692 6.49251C2.3683 6.49022 2.39967 6.48858 2.43104 6.48847C2.59195 6.48803 2.75276 6.48869 2.91367 6.48792C2.94843 6.48781 2.98352 6.4853 3.01795 6.48082C3.03588 6.47852 3.04911 6.46519 3.0537 6.44672C3.05709 6.43327 3.05971 6.41928 3.06037 6.40551C3.06168 6.37764 3.06157 6.34955 3.06157 6.32168C3.06157 6.1644 3.06135 6.00701 3.0619 5.84973C3.06201 5.81847 3.06441 5.78699 3.06846 5.75595C3.07031 5.74196 3.08201 5.73027 3.09644 5.72797C3.12038 5.72415 3.14487 5.72174 3.16902 5.72163C3.34382 5.72109 3.51872 5.72141 3.69362 5.72131C3.72511 5.72131 3.75703 5.72371 3.78796 5.71934C3.84032 5.71191 3.89258 5.71289 3.94494 5.71278C4.11634 5.71256 4.28764 5.71256 4.45904 5.71278C4.49752 5.71278 4.53589 5.71409 4.57437 5.71486L4.57142 5.71191C4.57174 5.93914 4.57218 6.16626 4.5724 6.39349C4.5724 6.41447 4.57142 6.43546 4.57043 6.45634C4.56847 6.4982 4.56442 6.53995 4.56431 6.58181C4.56366 6.76007 4.56409 6.93845 4.56387 7.11671C4.56387 7.14819 4.56672 7.18054 4.56016 7.21082C4.54584 7.27662 4.5477 7.34285 4.54791 7.4092C4.54944 7.81819 4.55141 8.22718 4.55316 8.63618C4.55316 8.64667 4.55316 8.65716 4.55338 8.66765C4.55578 8.7587 4.56278 8.76646 4.65854 8.7669C4.85432 8.76766 5.05021 8.76722 5.24599 8.76701C5.26349 8.76701 5.28098 8.76591 5.29836 8.76449C5.33006 8.76187 5.34864 8.74373 5.35126 8.71039C5.35367 8.67902 5.35443 8.64754 5.35454 8.61618C5.35487 8.46239 5.35454 8.3085 5.35476 8.15472C5.35476 8.12324 5.35553 8.09176 5.35728 8.06039C5.35881 8.0334 5.37761 8.01329 5.40297 8.01154C5.43085 8.00957 5.45883 8.00891 5.4867 8.00881C5.64751 8.00859 5.80842 8.00859 5.96922 8.00881C6.10116 8.00881 6.10149 8.01099 6.10127 7.87448C6.10116 7.70671 6.10116 7.53882 6.10127 7.37105C6.10127 7.33957 6.10182 7.3081 6.10346 7.27673C6.1052 7.24547 6.12412 7.22667 6.15746 7.22405C6.18872 7.22153 6.22031 7.22055 6.25169 7.22044C6.39849 7.22011 6.54541 7.22044 6.69222 7.22011C6.7236 7.22011 6.75508 7.21891 6.78645 7.21672C6.8129 7.21486 6.83324 7.19596 6.83553 7.1706C6.83827 7.13934 6.8398 7.10786 6.83991 7.07649C6.84034 6.92271 6.84002 6.76882 6.84023 6.61504C6.84023 6.56607 6.83991 6.51732 6.85849 6.47033C6.86472 6.4547 6.8645 6.43611 6.86516 6.41874C6.86625 6.39076 6.8657 6.36278 6.8657 6.3348C6.8657 6.16003 6.86549 5.98515 6.86603 5.81038C6.86603 5.78612 6.86887 5.76175 6.87226 5.73759C6.87303 5.73213 6.88079 5.72415 6.88615 5.72338C6.9102 5.71999 6.93468 5.71715 6.95895 5.71704C7.13024 5.7165 7.30165 5.71726 7.47294 5.71661C7.63823 5.71606 7.62347 5.73114 7.62413 5.56282C7.62478 5.39855 7.62413 5.23416 7.62456 5.06989C7.62456 5.04213 7.62741 5.01426 7.6297 4.98649C7.63058 4.97545 7.64697 4.95993 7.65823 4.95928C7.6896 4.95731 7.72098 4.95502 7.75235 4.95491C7.92015 4.95447 8.08806 4.95491 8.25585 4.95458C8.38758 4.95425 8.3879 4.95392 8.38823 4.8196C8.38867 4.65532 8.38823 4.49094 8.38856 4.32666C8.38856 4.29529 8.39009 4.26381 8.39206 4.23245C8.39348 4.21091 8.41075 4.19441 8.43371 4.1931C8.46508 4.19124 8.49656 4.19037 8.52794 4.19026C8.70623 4.18993 8.88463 4.19059 9.06292 4.18971C9.146 4.18938 9.15157 4.18282 9.1531 4.10009C9.15354 4.0756 9.15332 4.05112 9.15332 4.02664C9.15332 3.87286 9.15332 3.71896 9.15332 3.56518C9.15332 3.5372 9.15365 3.50922 9.15474 3.48135C9.15595 3.4514 9.17092 3.43599 9.19934 3.43424C9.20984 3.43359 9.22033 3.43315 9.23083 3.43315C9.50695 3.43227 9.78308 3.43413 10.0592 3.42692C10.2269 3.42255 10.3949 3.42637 10.5627 3.42583C10.5905 3.42583 10.6184 3.42288 10.6461 3.42069C10.6574 3.41971 10.6726 3.40484 10.6739 3.3926C10.6771 3.36145 10.6812 3.33019 10.6813 3.29904C10.6821 3.14176 10.6816 2.98437 10.6818 2.82709C10.6818 2.79561 10.6821 2.76414 10.6834 2.73277C10.6838 2.72249 10.6858 2.71124 10.6908 2.7026C10.6956 2.69429 10.7043 2.68478 10.7128 2.68293C10.733 2.67855 10.7542 2.67702 10.775 2.67681C11.0231 2.67418 11.2713 2.67626 11.5195 2.67123C11.8516 2.66456 12.1838 2.66708 12.516 2.66741C12.8691 2.66773 13.2223 2.67003 13.5754 2.67178C13.7256 2.67254 13.7161 2.65844 13.7163 2.81441C13.7165 2.97869 13.7161 3.14307 13.7166 3.30735C13.7168 3.33861 13.72 3.36997 13.7225 3.40112C13.7235 3.41282 13.7384 3.42736 13.7508 3.42845C13.782 3.43107 13.8133 3.43446 13.8445 3.43457C14.0053 3.43523 14.1663 3.43468 14.3271 3.43501C14.3549 3.43501 14.3829 3.43621 14.4108 3.4384C14.4305 3.43993 14.4509 3.45971 14.4524 3.47993C14.4553 3.51818 14.4576 3.55655 14.4576 3.59491C14.4579 4.24512 14.4578 4.89545 14.4578 5.54566C14.4578 5.57015 14.4579 5.59463 14.457 5.61911C14.4566 5.63299 14.4547 5.64698 14.4525 5.66075C14.4487 5.68502 14.4282 5.70513 14.4027 5.70721C14.3714 5.70972 14.34 5.71114 14.3086 5.71125C14.1618 5.71169 14.0149 5.71125 13.868 5.71169C13.8367 5.7118 13.8053 5.71398 13.774 5.71682C13.7535 5.71868 13.7344 5.73868 13.7325 5.75836C13.7305 5.77923 13.7292 5.80022 13.7291 5.82109C13.7289 5.99936 13.7289 6.17773 13.7291 6.356C13.7291 6.37688 13.7304 6.39786 13.7323 6.41874C13.734 6.43874 13.7533 6.45623 13.7748 6.45863C13.7852 6.45972 13.7957 6.46114 13.8062 6.46114C14.002 6.46136 14.1978 6.46136 14.3936 6.46114C14.4075 6.46114 14.4214 6.45907 14.4353 6.45721C14.4499 6.45524 14.4697 6.43699 14.4709 6.42256C14.4735 6.3913 14.4762 6.35993 14.4763 6.32857C14.4768 6.17828 14.4765 6.02789 14.4766 5.8776C14.4766 5.84962 14.4764 5.82164 14.4776 5.79377C14.4799 5.74054 14.4962 5.72382 14.5464 5.72218C14.5744 5.72131 14.6024 5.72163 14.6304 5.72163C14.7982 5.72163 14.9661 5.72163 15.1339 5.72152C15.1654 5.72152 15.1975 5.72404 15.228 5.71857C15.2803 5.70928 15.3325 5.71048 15.3848 5.71038C15.5491 5.71005 15.7135 5.71038 15.8778 5.71005C15.9092 5.71005 15.9405 5.70819 15.9719 5.70611C15.9886 5.70502 16.005 5.68873 16.0061 5.67168C16.0083 5.64032 16.0102 5.60895 16.0103 5.57758C16.0107 5.4238 16.0105 5.2699 16.0105 5.11612C16.0105 5.08814 16.0103 5.06016 16.0112 5.03218C16.0131 4.97294 16.022 4.96387 16.0774 4.96212C16.0914 4.96168 16.1054 4.96179 16.1194 4.96168C16.4026 4.96048 16.6857 4.95884 16.969 4.9584C17.2907 4.95786 17.6124 4.95851 17.9341 4.95819C18.2732 4.95786 18.6121 4.97174 18.9512 4.96638C18.9651 4.96616 18.9791 4.96704 18.993 4.96813C19.0189 4.96999 19.038 4.9889 19.0395 5.0159C19.0411 5.04377 19.0417 5.07175 19.0417 5.09973C19.0419 5.271 19.0417 5.44238 19.042 5.61365C19.042 5.64152 19.0452 5.66928 19.0469 5.69715C19.0801 5.75519 19.0726 5.81902 19.0728 5.88165C19.0734 6.02494 19.0728 6.16833 19.0732 6.31162C19.0732 6.3431 19.0737 6.37458 19.0757 6.40595C19.0779 6.43874 19.0971 6.45841 19.1284 6.46038C19.1597 6.46224 19.1912 6.46289 19.2227 6.46289C19.3835 6.46311 19.5444 6.46289 19.7052 6.46322C19.7401 6.46322 19.7757 6.45994 19.8088 6.4736C19.8455 6.4888 19.8837 6.48978 19.9222 6.48978C20.111 6.48978 20.2999 6.49 20.4887 6.48956C20.513 6.48956 20.5387 6.49044 20.5615 6.48344C20.6095 6.46858 20.6581 6.46989 20.707 6.46989C20.8853 6.46967 21.0637 6.47033 21.2419 6.46945C21.3374 6.46901 21.3416 6.46464 21.3421 6.36802C21.3428 6.20724 21.3423 6.04636 21.3424 5.88558C21.3424 5.8541 21.3422 5.82262 21.3431 5.79115C21.3434 5.77727 21.3459 5.76349 21.3479 5.74972C21.3496 5.73726 21.3637 5.72305 21.3756 5.72207C21.3965 5.72043 21.4174 5.71857 21.4383 5.71846C21.718 5.71682 21.9976 5.71518 22.2774 5.7142C22.6969 5.71267 23.1165 5.7118 23.5361 5.71005C23.5744 5.70983 23.6126 5.70491 23.6509 5.70207C23.6857 5.69945 23.7204 5.69431 23.7553 5.69409C23.9266 5.69322 24.098 5.69333 24.2693 5.69409C24.3007 5.6942 24.333 5.69431 24.363 5.70185C24.4079 5.71311 24.4528 5.71431 24.4982 5.71431C24.673 5.71431 24.8479 5.7142 25.0227 5.71431C25.1559 5.71442 25.1508 5.70622 25.151 5.83727C25.1513 6.15194 25.1524 6.4665 25.1524 6.78117C25.1524 7.1412 25.1516 7.50133 25.151 7.86136C25.1508 8.00815 25.1611 8.00367 25.0075 8.00356C24.8502 8.00356 24.6928 8.00334 24.5355 8.00378C24.5041 8.00378 24.4727 8.00596 24.4415 8.00815C24.4253 8.00924 24.4087 8.02651 24.4076 8.04323C24.4054 8.0746 24.4034 8.10597 24.4034 8.13734C24.403 8.30511 24.4035 8.47299 24.4029 8.64077C24.4028 8.67552 24.4031 8.71137 24.3951 8.74482C24.3853 8.78635 24.3837 8.82778 24.3837 8.86964C24.3836 9.02692 24.3837 9.18431 24.3837 9.34159C24.3837 9.36607 24.3837 9.39055 24.3835 9.41504C24.3834 9.42903 24.383 9.44302 24.3821 9.4569C24.3797 9.49602 24.3643 9.51078 24.3219 9.51275C24.2905 9.51417 24.2589 9.51417 24.2275 9.51417C24.0807 9.51428 23.9338 9.51417 23.787 9.51428C23.7555 9.51428 23.724 9.51428 23.6927 9.51581C23.6789 9.51646 23.6643 9.51843 23.6518 9.52368C23.6433 9.52728 23.6354 9.53657 23.6311 9.54521C23.6266 9.55417 23.6257 9.56532 23.6252 9.57559C23.6242 9.60357 23.6241 9.63155 23.6241 9.65943C23.6241 9.8237 23.6242 9.98808 23.6239 10.1524C23.6239 10.1837 23.6225 10.2152 23.6208 10.2466C23.62 10.2637 23.6044 10.2778 23.5856 10.2787C23.5543 10.2801 23.5228 10.281 23.4913 10.2811C23.3305 10.2813 23.1696 10.2811 23.0088 10.2812C22.9808 10.2812 22.9528 10.2812 22.9248 10.2823C22.8815 10.2841 22.8685 10.2967 22.8662 10.3385C22.8653 10.356 22.865 10.3735 22.865 10.3908C22.865 10.5726 22.865 10.7545 22.865 10.9362C22.865 10.9502 22.865 10.9642 22.8656 10.9782C22.8679 11.0383 22.8779 11.0477 22.9422 11.0499C22.9492 11.0501 22.9562 11.0502 22.9632 11.0502C23.159 11.0502 23.3549 11.0502 23.5507 11.0501C23.568 11.0501 23.5855 11.0486 23.6029 11.0467C23.6228 11.0447 23.642 11.0267 23.6445 11.0055C23.648 10.9744 23.6508 10.943 23.651 10.9117C23.6517 10.7649 23.6512 10.618 23.6514 10.4712C23.6514 10.4397 23.6513 10.4082 23.6529 10.3769C23.6553 10.3282 23.6745 10.31 23.7259 10.3072C23.7538 10.3057 23.7819 10.3059 23.8097 10.3059C23.9497 10.3058 24.0895 10.3059 24.2294 10.3059C24.2854 10.3059 24.3408 10.3048 24.3962 10.2929C24.4299 10.2856 24.4657 10.2869 24.5005 10.2868C24.6718 10.2863 24.8432 10.2866 25.0145 10.2865C25.0773 10.2865 25.1399 10.2865 25.2023 10.2732C25.2393 10.2654 25.2788 10.2673 25.3172 10.2671C25.4605 10.2666 25.6039 10.2669 25.7472 10.2668C25.7752 10.2668 25.8032 10.2668 25.8311 10.2657C25.8448 10.265 25.8589 10.263 25.8723 10.259C25.89 10.2538 25.9024 10.2411 25.9074 10.2234C25.9111 10.2101 25.9131 10.196 25.9136 10.1822C25.9147 10.1542 25.9146 10.1262 25.9146 10.0984C25.9146 9.95857 25.9144 9.81867 25.9148 9.67888C25.9149 9.64751 25.9169 9.61614 25.9195 9.58477C25.9212 9.56401 25.941 9.54477 25.9606 9.5428C25.978 9.54106 25.9955 9.53996 26.0129 9.53996C26.1981 9.53974 26.3835 9.53985 26.5688 9.53985C26.5758 9.53985 26.5828 9.53985 26.5898 9.54007C26.6471 9.54182 26.6612 9.55636 26.6631 9.61735C26.6639 9.64533 26.6636 9.67331 26.6636 9.70129C26.6636 9.84458 26.6636 9.98798 26.6637 10.1313C26.6637 10.1627 26.6638 10.1942 26.6659 10.2256C26.6687 10.2695 26.689 10.2905 26.7304 10.2927C26.7618 10.2943 26.7932 10.2943 26.8247 10.2944C26.989 10.2947 27.1534 10.2941 27.3177 10.2948C27.4107 10.2951 27.4197 10.3037 27.4202 10.3965C27.421 10.5748 27.4206 10.7532 27.4202 10.9314C27.4202 10.9523 27.4179 10.9733 27.4157 10.9941C27.4142 11.009 27.3958 11.0285 27.3814 11.0298C27.3536 11.0323 27.3257 11.0346 27.2978 11.0347C27.137 11.0352 26.9761 11.0347 26.8153 11.0352C26.784 11.0352 26.7526 11.0373 26.7212 11.0399C26.7008 11.0415 26.6824 11.06 26.6792 11.0806C26.6765 11.0978 26.6737 11.1153 26.6737 11.1325C26.6733 11.3318 26.6734 11.531 26.6737 11.7303C26.6737 11.7407 26.6752 11.7512 26.6764 11.7616C26.6796 11.7898 26.6961 11.8074 26.7233 11.8088C26.7617 11.8106 26.8001 11.8115 26.8385 11.8115C27.4784 11.8111 28.1182 11.8105 28.7582 11.81C28.7862 11.81 28.8141 11.81 28.8421 11.81C28.8596 11.81 28.8771 11.8099 28.8946 11.8104C28.9641 11.8128 28.9775 11.8266 28.9802 11.8997C28.9813 11.9277 28.9808 11.9557 28.9808 11.9837C28.9808 12.1269 28.9808 12.2703 28.9808 12.4136C28.9808 12.4416 28.9806 12.4696 28.9818 12.4975C28.9841 12.5532 29.0013 12.5696 29.0601 12.5721C29.088 12.5733 29.1161 12.573 29.1441 12.573C29.277 12.573 29.4098 12.573 29.5427 12.573C29.5707 12.573 29.5987 12.5727 29.6267 12.5739C29.6891 12.5765 29.7064 12.5929 29.7067 12.6578C29.7077 12.8536 29.7071 13.0493 29.7067 13.2451C29.7067 13.2587 29.7037 13.2728 29.7 13.286C29.6961 13.3003 29.6855 13.3115 29.6711 13.3134C29.6435 13.3169 29.6155 13.3188 29.5878 13.3189C29.4235 13.3195 29.2591 13.3189 29.0948 13.3193C28.9629 13.3196 28.9626 13.3199 28.9622 13.4545C28.9617 13.6153 28.9622 13.7761 28.962 13.9369C28.962 13.9649 28.9624 13.9929 28.9615 14.0209C28.9595 14.0868 28.9488 14.0969 28.8789 14.0989C28.8509 14.0997 28.8229 14.0993 28.7949 14.0993C28.6376 14.0993 28.4802 14.0991 28.3229 14.0997C28.295 14.0997 28.2672 14.1026 28.2395 14.105C28.2277 14.106 28.2124 14.1211 28.2114 14.1328C28.2089 14.164 28.2058 14.1953 28.2057 14.2267C28.2052 14.3944 28.2054 14.5623 28.2055 14.7301C28.2055 14.7511 28.2055 14.7721 28.2064 14.793C28.2068 14.8034 28.2091 14.8137 28.2106 14.8241C28.2126 14.8368 28.2258 14.8515 28.2376 14.8526C28.2619 14.8548 28.2863 14.8574 28.3105 14.8575C28.7336 14.86 29.1565 14.8623 29.5796 14.8645C29.611 14.8647 29.6425 14.8643 29.674 14.865C29.7175 14.866 29.7311 14.8783 29.733 14.9199C29.7345 14.9513 29.7345 14.9829 29.7345 15.0143C29.7346 15.1681 29.7345 15.3219 29.7347 15.4757C29.7347 15.5072 29.7357 15.5386 29.7373 15.57C29.7385 15.5923 29.7553 15.6101 29.7768 15.6114C29.8081 15.6133 29.8396 15.6146 29.871 15.6146C30.0353 15.615 30.1997 15.6144 30.364 15.6152C30.3953 15.6153 30.4266 15.6185 30.4576 15.623C30.4657 15.6242 30.4745 15.6346 30.4788 15.6431C30.4833 15.6519 30.4839 15.6634 30.4839 15.6737C30.4841 15.8939 30.4841 16.1141 30.4838 16.3344C30.4838 16.3448 30.4832 16.3561 30.4788 16.3651C30.4745 16.3736 30.4661 16.3822 30.4575 16.3857C30.4449 16.391 30.4306 16.3935 30.4168 16.394C30.3819 16.3955 30.3469 16.3955 30.312 16.3955C30.1477 16.3957 29.9833 16.3951 29.819 16.3961C29.7542 16.3966 29.7404 16.411 29.7401 16.4781C29.7394 16.6669 29.7397 16.8556 29.7401 17.0445C29.7401 17.0619 29.7425 17.0793 29.7447 17.0966C29.7465 17.11 29.7667 17.131 29.7799 17.1322C29.8077 17.1347 29.8356 17.1372 29.8634 17.1372C30.0312 17.1376 30.1992 17.1372 30.367 17.1376C30.4018 17.1376 30.438 17.135 30.4713 17.1428C30.5165 17.1536 30.5614 17.1532 30.6067 17.1533C30.7745 17.1537 30.9424 17.1533 31.1102 17.1536C31.1382 17.1536 31.1661 17.1536 31.194 17.1548C31.2231 17.156 31.241 17.1719 31.2428 17.1989C31.2449 17.2303 31.2459 17.2618 31.2461 17.2931C31.2464 17.4469 31.2461 17.6008 31.2463 17.7546C31.2463 17.7861 31.2462 17.8175 31.2478 17.8489C31.2506 17.9028 31.2704 17.9209 31.3273 17.9244C31.3378 17.9251 31.3483 17.9254 31.3588 17.9254C31.558 17.9254 31.7574 17.9252 31.9567 17.9249C31.9706 17.9249 31.9846 17.9226 31.9985 17.9214L32 17.9198ZM22.8525 8.00225C22.8525 7.80649 22.8525 7.61074 22.8525 7.41499C22.8525 7.38351 22.8527 7.35203 22.8513 7.32066C22.8488 7.26787 22.8319 7.2506 22.7823 7.24809C22.7648 7.24722 22.7473 7.24711 22.7298 7.247C22.5655 7.247 22.4011 7.24689 22.2368 7.247C22.2158 7.247 22.1948 7.24776 22.174 7.24918C22.1425 7.25148 22.1242 7.27039 22.1224 7.30394C22.1206 7.33531 22.1204 7.36679 22.1203 7.39827C22.1201 7.55205 22.1205 7.70594 22.12 7.85972C22.1198 7.89109 22.1172 7.92246 22.1144 7.95372C22.113 7.96968 22.0946 7.98629 22.0784 7.98716C22.0505 7.9888 22.0227 7.99012 21.9947 7.99012C21.8164 7.99033 21.6381 7.99012 21.4597 7.99044C21.4284 7.99044 21.3971 7.99318 21.3658 7.99536C21.354 7.99613 21.3393 8.01099 21.3385 8.02312C21.3362 8.05438 21.3334 8.08575 21.3333 8.11701C21.3328 8.28828 21.3333 8.45955 21.3329 8.63082C21.3329 8.65858 21.3302 8.68634 21.3279 8.71411C21.3269 8.72569 21.3111 8.74056 21.2992 8.74132C21.2715 8.74307 21.2436 8.74504 21.2157 8.74515C21.0479 8.74547 20.88 8.74515 20.7122 8.74547C20.6808 8.74547 20.6492 8.74602 20.618 8.74821C20.5948 8.74985 20.5785 8.75925 20.5746 8.78602C20.5694 8.82034 20.5664 8.85532 20.5662 8.89008C20.5653 9.05085 20.5661 9.21163 20.5655 9.37252C20.5654 9.40389 20.5627 9.43526 20.5598 9.46641C20.5584 9.48214 20.5403 9.49876 20.5241 9.49985C20.4927 9.50182 20.4613 9.50368 20.43 9.50368C20.2797 9.50411 20.1292 9.50379 19.9789 9.50389C19.9509 9.50389 19.923 9.50357 19.895 9.50455C19.8285 9.50696 19.8134 9.5216 19.8109 9.58423C19.8103 9.60172 19.8103 9.6192 19.8103 9.63669C19.8103 9.81146 19.8103 9.98623 19.8103 10.161C19.8103 10.1855 19.8107 10.21 19.8121 10.2343C19.8127 10.2446 19.8141 10.256 19.819 10.2646C19.8238 10.2729 19.8327 10.2823 19.8413 10.2842C19.8615 10.2885 19.8826 10.2903 19.9034 10.2903C20.1062 10.2907 20.3089 10.2906 20.5117 10.2905C20.5292 10.2905 20.5471 10.2918 20.564 10.2883C20.6194 10.2769 20.6754 10.2796 20.7311 10.2795C20.8919 10.2791 21.0528 10.2797 21.2136 10.2791C21.2449 10.2791 21.2763 10.2762 21.3075 10.2739C21.3198 10.273 21.3333 10.2585 21.3351 10.246C21.3369 10.2323 21.3392 10.2184 21.3397 10.2045C21.3405 10.1765 21.3402 10.1485 21.3403 10.1206C21.3403 9.96677 21.3401 9.81299 21.3405 9.6591C21.3405 9.62773 21.3422 9.59625 21.3444 9.56499C21.3459 9.54346 21.3634 9.52728 21.3865 9.52586C21.4178 9.5239 21.4493 9.52269 21.4807 9.52269C21.6415 9.52237 21.8024 9.52269 21.9632 9.52247C21.9947 9.52247 22.0262 9.52204 22.0575 9.5204C22.0899 9.51876 22.1066 9.50094 22.1083 9.46608C22.1098 9.43471 22.11 9.40323 22.11 9.37175C22.1101 9.21447 22.11 9.05719 22.1102 8.8998C22.1102 8.86833 22.1107 8.83685 22.1125 8.80548C22.1145 8.77182 22.1322 8.75258 22.1637 8.75017C22.1951 8.74777 22.2265 8.74679 22.2579 8.74679C22.4012 8.74646 22.5446 8.74668 22.688 8.74657C22.7159 8.74657 22.7439 8.7469 22.7719 8.74602C22.8352 8.74394 22.8493 8.72919 22.8517 8.66252C22.8528 8.63454 22.8524 8.60656 22.8524 8.57869C22.8524 8.38643 22.8524 8.19418 22.8524 8.00192L22.8525 8.00225ZM11.0585 4.9407C10.9606 4.9407 10.8628 4.94037 10.7649 4.94103C10.7407 4.94114 10.7163 4.94409 10.692 4.94693C10.676 4.94879 10.6591 4.96595 10.6579 4.98201C10.6555 5.01327 10.6531 5.04464 10.653 5.07601C10.6526 5.23668 10.6529 5.39746 10.6527 5.55812C10.6527 5.58599 10.6516 5.61397 10.6498 5.64185C10.6485 5.66174 10.6292 5.6813 10.6084 5.68294C10.5771 5.68546 10.5458 5.6872 10.5144 5.68731C10.3572 5.68775 10.1999 5.68709 10.0427 5.68797C10.0079 5.68819 9.97099 5.68622 9.93896 5.69682C9.8842 5.71497 9.8291 5.71475 9.77324 5.71486C9.60905 5.71497 9.44475 5.71464 9.28056 5.71518C9.2493 5.71518 9.21804 5.71814 9.18677 5.72054C9.17486 5.72141 9.15999 5.73628 9.15901 5.7483C9.15649 5.77956 9.15354 5.81082 9.15343 5.84208C9.15289 6.01324 9.15332 6.18451 9.153 6.35567C9.153 6.39404 9.15573 6.43262 9.14512 6.47033C9.13365 6.5112 9.1331 6.55306 9.13299 6.59503C9.13299 6.6405 9.13299 6.68586 9.13299 6.73133C9.13299 6.85014 9.13288 6.96894 9.1331 7.08764C9.1331 7.11562 9.13343 7.1436 9.13539 7.17136C9.13889 7.21902 9.15442 7.23421 9.19934 7.23672C9.20284 7.23694 9.20634 7.23716 9.20984 7.23716C9.4195 7.23716 9.62917 7.23716 9.83883 7.23694C9.85261 7.23694 9.86649 7.23399 9.88026 7.23191C9.89054 7.23038 9.90748 7.21399 9.90825 7.20361C9.91054 7.17235 9.91338 7.14098 9.91349 7.10972C9.91404 6.94555 9.91349 6.78128 9.91393 6.61711C9.91393 6.58574 9.91612 6.55448 9.91841 6.52323C9.91962 6.50661 9.93656 6.48923 9.9523 6.48803C9.98356 6.48574 10.0149 6.48344 10.0463 6.48333C10.214 6.48289 10.3818 6.48333 10.5495 6.48279C10.5842 6.48268 10.6209 6.48486 10.6534 6.47535C10.7051 6.46027 10.7567 6.46005 10.8091 6.46005C10.9803 6.45983 11.1516 6.46038 11.3228 6.4595C11.4018 6.45907 11.4136 6.4465 11.416 6.36857C11.4168 6.34409 11.4165 6.31971 11.4165 6.29523C11.4165 6.15194 11.4165 6.00876 11.4165 5.86547C11.4165 5.83749 11.4167 5.80951 11.4184 5.78164C11.4193 5.76798 11.4229 5.75409 11.4272 5.74098C11.4329 5.72316 11.4459 5.71059 11.4644 5.70895C11.4957 5.706 11.5271 5.70458 11.5585 5.70447C11.7261 5.70404 11.8939 5.70447 12.0616 5.70404C12.0929 5.70404 12.1242 5.70098 12.1554 5.69857C12.1676 5.69759 12.1827 5.68283 12.1838 5.67125C12.1862 5.64698 12.1893 5.62272 12.1893 5.59845C12.1897 5.4203 12.1896 5.24214 12.1894 5.06388C12.1894 5.043 12.1882 5.02202 12.1867 5.00114C12.185 4.97917 12.1683 4.96004 12.1478 4.9584C12.1165 4.95578 12.0851 4.9537 12.0538 4.9537C11.8931 4.95327 11.7323 4.9537 11.5716 4.95327C11.5332 4.95327 11.4947 4.9513 11.4564 4.94933C11.4111 4.94704 11.366 4.9419 11.3206 4.94124C11.2332 4.93993 11.1459 4.94081 11.0586 4.94081L11.0585 4.9407ZM16.0219 8.75673C16.0219 8.75804 16.0219 8.75925 16.0219 8.76056C16.2489 8.76056 16.476 8.76056 16.703 8.76034C16.7168 8.76034 16.7307 8.75728 16.7444 8.7552C16.756 8.75345 16.7695 8.73903 16.7703 8.72613C16.7723 8.69487 16.7747 8.6635 16.7747 8.63224C16.7751 8.45409 16.7751 8.27604 16.7749 8.09788C16.7748 7.99788 16.7839 7.99831 16.8754 7.99809C17.0466 7.99777 17.2177 7.99809 17.3888 7.99788C17.4202 7.99788 17.4517 7.99744 17.4831 7.99613C17.5126 7.99482 17.5286 7.97984 17.5312 7.95186C17.533 7.93099 17.5341 7.91 17.5342 7.88912C17.5346 7.7983 17.5344 7.70758 17.5344 7.61675C17.5344 7.51893 17.5351 7.42122 17.5339 7.3234C17.5329 7.24667 17.5236 7.23793 17.4509 7.23618C17.4334 7.23574 17.4159 7.23585 17.3986 7.23585C16.983 7.23585 16.5672 7.23574 16.1516 7.23585C16.0014 7.23585 16.0096 7.22984 16.0093 7.37936C16.0091 7.54352 16.0095 7.70758 16.009 7.87175C16.009 7.90301 16.0061 7.93437 16.004 7.96563C16.0032 7.97766 15.989 7.99339 15.9773 7.99449C15.9461 7.99744 15.915 8.00115 15.8837 8.00126C15.723 8.00192 15.5623 8.00148 15.4017 8.0017C15.3704 8.0017 15.3389 8.00225 15.3075 8.00378C15.2784 8.0052 15.2617 8.02116 15.2588 8.04837C15.2573 8.06225 15.2559 8.07624 15.2559 8.09012C15.2557 8.28216 15.2557 8.47431 15.2561 8.66634C15.2561 8.68361 15.2591 8.70099 15.2626 8.71804C15.2655 8.73247 15.2751 8.74416 15.2897 8.74679C15.3135 8.75116 15.3378 8.75498 15.3619 8.75531C15.4423 8.7564 15.5226 8.75575 15.603 8.75586C15.7427 8.75608 15.8824 8.75651 16.022 8.75684L16.0219 8.75673ZM22.4844 11.7966C22.5646 11.7966 22.6448 11.7969 22.725 11.7966C22.7529 11.7966 22.7809 11.7963 22.8086 11.7946C22.846 11.7923 22.863 11.7737 22.8655 11.7336C22.8664 11.7197 22.8667 11.7057 22.8667 11.6918C22.8667 11.514 22.8667 11.3362 22.8667 11.1584C22.8667 11.0694 22.8531 11.0552 22.7643 11.0552C22.5829 11.0549 22.4016 11.0549 22.2203 11.0554C22.1995 11.0554 22.1787 11.0581 22.158 11.061C22.1391 11.0636 22.1201 11.0837 22.1176 11.1039C22.1149 11.1246 22.1126 11.1454 22.1125 11.1663C22.1121 11.3406 22.1121 11.515 22.1125 11.6893C22.1125 11.7101 22.1151 11.731 22.1179 11.7517C22.1204 11.7712 22.1402 11.7903 22.1603 11.7922C22.1881 11.7947 22.2159 11.7965 22.2437 11.7968C22.3239 11.7973 22.4041 11.797 22.4843 11.797L22.4844 11.7966Z" fill="#0004FF"/>
</svg>
