<svg width="100" height="84" viewBox="0 0 100 84" fill="none" xmlns="http://www.w3.org/2000/svg">
<rect x="0.9" y="24.9" width="2.2" height="2.2" fill="#1C1FFF" stroke="#1C1FFF" stroke-width="0.2"/>
<rect x="0.9" y="28.9" width="2.2" height="2.2" fill="#1C1FFF" stroke="#1C1FFF" stroke-width="0.2"/>
<rect x="0.9" y="40.9" width="2.2" height="2.2" fill="#1C1FFF" stroke="#1C1FFF" stroke-width="0.2"/>
<rect x="0.9" y="44.9" width="2.2" height="2.2" fill="#1C1FFF" stroke="#1C1FFF" stroke-width="0.2"/>
<rect x="4.9" y="20.9" width="2.2" height="2.2" fill="#1C1FFF" stroke="#1C1FFF" stroke-width="0.2"/>
<rect x="4.9" y="24.9" width="2.2" height="2.2" fill="#1C1FFF" stroke="#1C1FFF" stroke-width="0.2"/>
<rect x="4.9" y="28.9" width="2.2" height="2.2" fill="#1C1FFF" stroke="#1C1FFF" stroke-width="0.2"/>
<rect x="4.9" y="40.9" width="2.2" height="2.2" fill="#1C1FFF" stroke="#1C1FFF" stroke-width="0.2"/>
<rect x="4.9" y="44.9" width="2.2" height="2.2" fill="#1C1FFF" stroke="#1C1FFF" stroke-width="0.2"/>
<rect x="4.9" y="48.9" width="2.2" height="2.2" fill="#1C1FFF" stroke="#1C1FFF" stroke-width="0.2"/>
<rect x="8.9" y="12.9" width="2.2" height="2.2" fill="#1C1FFF" stroke="#1C1FFF" stroke-width="0.2"/>
<rect x="8.9" y="16.9" width="2.2" height="2.2" fill="#1C1FFF" stroke="#1C1FFF" stroke-width="0.2"/>
<rect x="8.9" y="20.9" width="2.2" height="2.2" fill="#1C1FFF" stroke="#1C1FFF" stroke-width="0.2"/>
<rect x="8.9" y="24.9" width="2.2" height="2.2" fill="#1C1FFF" stroke="#1C1FFF" stroke-width="0.2"/>
<rect x="8.9" y="28.9" width="2.2" height="2.2" fill="#1C1FFF" stroke="#1C1FFF" stroke-width="0.2"/>
<rect x="8.9" y="32.9" width="2.2" height="2.2" fill="#1C1FFF" stroke="#1C1FFF" stroke-width="0.2"/>
<rect x="8.9" y="36.9" width="2.2" height="2.2" fill="#1C1FFF" stroke="#1C1FFF" stroke-width="0.2"/>
<rect x="8.9" y="40.9" width="2.2" height="2.2" fill="#1C1FFF" stroke="#1C1FFF" stroke-width="0.2"/>
<rect x="8.9" y="44.9" width="2.2" height="2.2" fill="#1C1FFF" stroke="#1C1FFF" stroke-width="0.2"/>
<rect x="8.9" y="48.9" width="2.2" height="2.2" fill="#1C1FFF" stroke="#1C1FFF" stroke-width="0.2"/>
<rect x="8.9" y="52.9" width="2.2" height="2.2" fill="#1C1FFF" stroke="#1C1FFF" stroke-width="0.2"/>
<rect x="8.9" y="56.9" width="2.2" height="2.2" fill="#1C1FFF" stroke="#1C1FFF" stroke-width="0.2"/>
<rect x="8.9" y="60.9" width="2.2" height="2.2" fill="#1C1FFF" stroke="#1C1FFF" stroke-width="0.2"/>
<rect x="8.9" y="64.9" width="2.2" height="2.2" fill="#1C1FFF" stroke="#1C1FFF" stroke-width="0.2"/>
<rect x="8.9" y="68.9" width="2.2" height="2.2" fill="#1C1FFF" stroke="#1C1FFF" stroke-width="0.2"/>
<rect x="12.9" y="8.9" width="2.2" height="2.2" fill="#1C1FFF" stroke="#1C1FFF" stroke-width="0.2"/>
<rect x="12.9" y="12.9" width="2.2" height="2.2" fill="#1C1FFF" stroke="#1C1FFF" stroke-width="0.2"/>
<rect x="12.9" y="16.9" width="2.2" height="2.2" fill="#1C1FFF" stroke="#1C1FFF" stroke-width="0.2"/>
<rect x="12.9" y="20.9" width="2.2" height="2.2" fill="#1C1FFF" stroke="#1C1FFF" stroke-width="0.2"/>
<rect x="12.9" y="24.9" width="2.2" height="2.2" fill="#1C1FFF" stroke="#1C1FFF" stroke-width="0.2"/>
<rect x="12.9" y="28.9" width="2.2" height="2.2" fill="#1C1FFF" stroke="#1C1FFF" stroke-width="0.2"/>
<rect x="12.9" y="32.9" width="2.2" height="2.2" fill="#1C1FFF" stroke="#1C1FFF" stroke-width="0.2"/>
<rect x="12.9" y="36.9" width="2.2" height="2.2" fill="#1C1FFF" stroke="#1C1FFF" stroke-width="0.2"/>
<rect x="12.9" y="40.9" width="2.2" height="2.2" fill="#1C1FFF" stroke="#1C1FFF" stroke-width="0.2"/>
<rect x="12.9" y="44.9" width="2.2" height="2.2" fill="#1C1FFF" stroke="#1C1FFF" stroke-width="0.2"/>
<rect x="12.9" y="48.9" width="2.2" height="2.2" fill="#1C1FFF" stroke="#1C1FFF" stroke-width="0.2"/>
<rect x="12.9" y="52.9" width="2.2" height="2.2" fill="#1C1FFF" stroke="#1C1FFF" stroke-width="0.2"/>
<rect x="12.9" y="56.9" width="2.2" height="2.2" fill="#1C1FFF" stroke="#1C1FFF" stroke-width="0.2"/>
<rect x="12.9" y="60.9" width="2.2" height="2.2" fill="#1C1FFF" stroke="#1C1FFF" stroke-width="0.2"/>
<rect x="12.9" y="64.9" width="2.2" height="2.2" fill="#1C1FFF" stroke="#1C1FFF" stroke-width="0.2"/>
<rect x="16.9" y="20.9" width="2.2" height="2.2" fill="#1C1FFF" stroke="#1C1FFF" stroke-width="0.2"/>
<rect x="16.9" y="24.9" width="2.2" height="2.2" fill="#1C1FFF" stroke="#1C1FFF" stroke-width="0.2"/>
<rect x="16.9" y="28.9" width="2.2" height="2.2" fill="#1C1FFF" stroke="#1C1FFF" stroke-width="0.2"/>
<rect x="16.9" y="32.9" width="2.2" height="2.2" fill="#1C1FFF" stroke="#1C1FFF" stroke-width="0.2"/>
<rect x="16.9" y="36.9" width="2.2" height="2.2" fill="#1C1FFF" stroke="#1C1FFF" stroke-width="0.2"/>
<rect x="16.9" y="40.9" width="2.2" height="2.2" fill="#1C1FFF" stroke="#1C1FFF" stroke-width="0.2"/>
<rect x="16.9" y="44.9" width="2.2" height="2.2" fill="#1C1FFF" stroke="#1C1FFF" stroke-width="0.2"/>
<rect x="16.9" y="48.9" width="2.2" height="2.2" fill="#1C1FFF" stroke="#1C1FFF" stroke-width="0.2"/>
<rect x="16.9" y="52.9" width="2.2" height="2.2" fill="#1C1FFF" stroke="#1C1FFF" stroke-width="0.2"/>
<rect x="16.9" y="56.9" width="2.2" height="2.2" fill="#1C1FFF" stroke="#1C1FFF" stroke-width="0.2"/>
<rect x="16.9" y="60.9" width="2.2" height="2.2" fill="#1C1FFF" stroke="#1C1FFF" stroke-width="0.2"/>
<rect x="16.9" y="64.9" width="2.2" height="2.2" fill="#1C1FFF" stroke="#1C1FFF" stroke-width="0.2"/>
<rect x="16.9" y="68.9" width="2.2" height="2.2" fill="#1C1FFF" stroke="#1C1FFF" stroke-width="0.2"/>
<rect x="16.9" y="72.9" width="2.2" height="2.2" fill="#1C1FFF" stroke="#1C1FFF" stroke-width="0.2"/>
<rect x="20.9" y="12.9" width="2.2" height="2.2" fill="#1C1FFF" stroke="#1C1FFF" stroke-width="0.2"/>
<rect x="20.9" y="16.9" width="2.2" height="2.2" fill="#1C1FFF" stroke="#1C1FFF" stroke-width="0.2"/>
<rect x="20.9" y="20.9" width="2.2" height="2.2" fill="#1C1FFF" stroke="#1C1FFF" stroke-width="0.2"/>
<rect x="20.9" y="24.9" width="2.2" height="2.2" fill="#1C1FFF" stroke="#1C1FFF" stroke-width="0.2"/>
<rect x="20.9" y="28.9" width="2.2" height="2.2" fill="#1C1FFF" stroke="#1C1FFF" stroke-width="0.2"/>
<rect x="20.9" y="32.9" width="2.2" height="2.2" fill="#1C1FFF" stroke="#1C1FFF" stroke-width="0.2"/>
<rect x="20.9" y="36.9" width="2.2" height="2.2" fill="#1C1FFF" stroke="#1C1FFF" stroke-width="0.2"/>
<rect x="20.9" y="40.9" width="2.2" height="2.2" fill="#1C1FFF" stroke="#1C1FFF" stroke-width="0.2"/>
<rect x="20.9" y="44.9" width="2.2" height="2.2" fill="#1C1FFF" stroke="#1C1FFF" stroke-width="0.2"/>
<rect x="20.9" y="48.9" width="2.2" height="2.2" fill="#1C1FFF" stroke="#1C1FFF" stroke-width="0.2"/>
<rect x="20.9" y="52.9" width="2.2" height="2.2" fill="#1C1FFF" stroke="#1C1FFF" stroke-width="0.2"/>
<rect x="20.9" y="56.9" width="2.2" height="2.2" fill="#1C1FFF" stroke="#1C1FFF" stroke-width="0.2"/>
<rect x="20.9" y="60.9" width="2.2" height="2.2" fill="#1C1FFF" stroke="#1C1FFF" stroke-width="0.2"/>
<rect x="20.9" y="64.9" width="2.2" height="2.2" fill="#1C1FFF" stroke="#1C1FFF" stroke-width="0.2"/>
<rect x="20.9" y="68.9" width="2.2" height="2.2" fill="#1C1FFF" stroke="#1C1FFF" stroke-width="0.2"/>
<rect x="20.9" y="72.9" width="2.2" height="2.2" fill="#1C1FFF" stroke="#1C1FFF" stroke-width="0.2"/>
<rect x="24.9" y="8.9" width="2.2" height="2.2" fill="#1C1FFF" stroke="#1C1FFF" stroke-width="0.2"/>
<rect x="24.9" y="12.9" width="2.2" height="2.2" fill="#1C1FFF" stroke="#1C1FFF" stroke-width="0.2"/>
<rect x="24.9" y="16.9" width="2.2" height="2.2" fill="#1C1FFF" stroke="#1C1FFF" stroke-width="0.2"/>
<rect x="24.9" y="20.9" width="2.2" height="2.2" fill="#1C1FFF" stroke="#1C1FFF" stroke-width="0.2"/>
<rect x="24.9" y="24.9" width="2.2" height="2.2" fill="#1C1FFF" stroke="#1C1FFF" stroke-width="0.2"/>
<rect x="24.9" y="28.9" width="2.2" height="2.2" fill="#1C1FFF" stroke="#1C1FFF" stroke-width="0.2"/>
<rect x="24.9" y="32.9" width="2.2" height="2.2" fill="#1C1FFF" stroke="#1C1FFF" stroke-width="0.2"/>
<rect x="24.9" y="36.9" width="2.2" height="2.2" fill="#1C1FFF" stroke="#1C1FFF" stroke-width="0.2"/>
<rect x="24.9" y="40.9" width="2.2" height="2.2" fill="#1C1FFF" stroke="#1C1FFF" stroke-width="0.2"/>
<rect x="24.9" y="44.9" width="2.2" height="2.2" fill="#1C1FFF" stroke="#1C1FFF" stroke-width="0.2"/>
<rect x="24.9" y="48.9" width="2.2" height="2.2" fill="#1C1FFF" stroke="#1C1FFF" stroke-width="0.2"/>
<rect x="24.9" y="52.9" width="2.2" height="2.2" fill="#1C1FFF" stroke="#1C1FFF" stroke-width="0.2"/>
<rect x="24.9" y="56.9" width="2.2" height="2.2" fill="#1C1FFF" stroke="#1C1FFF" stroke-width="0.2"/>
<rect x="24.9" y="60.9" width="2.2" height="2.2" fill="#1C1FFF" stroke="#1C1FFF" stroke-width="0.2"/>
<rect x="24.9" y="64.9" width="2.2" height="2.2" fill="#1C1FFF" stroke="#1C1FFF" stroke-width="0.2"/>
<rect x="24.9" y="68.9" width="2.2" height="2.2" fill="#1C1FFF" stroke="#1C1FFF" stroke-width="0.2"/>
<rect x="24.9" y="72.9" width="2.2" height="2.2" fill="#1C1FFF" stroke="#1C1FFF" stroke-width="0.2"/>
<rect x="24.9" y="76.9" width="2.2" height="2.2" fill="#1C1FFF" stroke="#1C1FFF" stroke-width="0.2"/>
<rect x="28.9" y="4.9" width="2.2" height="2.2" fill="#1C1FFF" stroke="#1C1FFF" stroke-width="0.2"/>
<rect x="28.9" y="16.9" width="2.2" height="2.2" fill="#1C1FFF" stroke="#1C1FFF" stroke-width="0.2"/>
<rect x="28.9" y="20.9" width="2.2" height="2.2" fill="#1C1FFF" stroke="#1C1FFF" stroke-width="0.2"/>
<rect x="28.9" y="24.9" width="2.2" height="2.2" fill="#1C1FFF" stroke="#1C1FFF" stroke-width="0.2"/>
<rect x="28.9" y="28.9" width="2.2" height="2.2" fill="#1C1FFF" stroke="#1C1FFF" stroke-width="0.2"/>
<rect x="28.9" y="32.9" width="2.2" height="2.2" fill="#1C1FFF" stroke="#1C1FFF" stroke-width="0.2"/>
<rect x="28.9" y="36.9" width="2.2" height="2.2" fill="#1C1FFF" stroke="#1C1FFF" stroke-width="0.2"/>
<rect x="28.9" y="40.9" width="2.2" height="2.2" fill="#1C1FFF" stroke="#1C1FFF" stroke-width="0.2"/>
<rect x="28.9" y="44.9" width="2.2" height="2.2" fill="#1C1FFF" stroke="#1C1FFF" stroke-width="0.2"/>
<rect x="28.9" y="48.9" width="2.2" height="2.2" fill="#1C1FFF" stroke="#1C1FFF" stroke-width="0.2"/>
<rect x="28.9" y="52.9" width="2.2" height="2.2" fill="#1C1FFF" stroke="#1C1FFF" stroke-width="0.2"/>
<rect x="28.9" y="56.9" width="2.2" height="2.2" fill="#1C1FFF" stroke="#1C1FFF" stroke-width="0.2"/>
<rect x="28.9" y="60.9" width="2.2" height="2.2" fill="#1C1FFF" stroke="#1C1FFF" stroke-width="0.2"/>
<rect x="28.9" y="64.9" width="2.2" height="2.2" fill="#1C1FFF" stroke="#1C1FFF" stroke-width="0.2"/>
<rect x="28.9" y="68.9" width="2.2" height="2.2" fill="#1C1FFF" stroke="#1C1FFF" stroke-width="0.2"/>
<rect x="28.9" y="72.9" width="2.2" height="2.2" fill="#1C1FFF" stroke="#1C1FFF" stroke-width="0.2"/>
<rect x="32.9" y="0.9" width="2.2" height="2.2" fill="#1C1FFF" stroke="#1C1FFF" stroke-width="0.2"/>
<rect x="32.9" y="4.9" width="2.2" height="2.2" fill="#1C1FFF" stroke="#1C1FFF" stroke-width="0.2"/>
<rect x="32.9" y="12.9" width="2.2" height="2.2" fill="#1C1FFF" stroke="#1C1FFF" stroke-width="0.2"/>
<rect x="32.9" y="16.9" width="2.2" height="2.2" fill="#1C1FFF" stroke="#1C1FFF" stroke-width="0.2"/>
<rect x="32.9" y="20.9" width="2.2" height="2.2" fill="#1C1FFF" stroke="#1C1FFF" stroke-width="0.2"/>
<rect x="32.9" y="24.9" width="2.2" height="2.2" fill="#1C1FFF" stroke="#1C1FFF" stroke-width="0.2"/>
<rect x="32.9" y="28.9" width="2.2" height="2.2" fill="#1C1FFF" stroke="#1C1FFF" stroke-width="0.2"/>
<rect x="32.9" y="32.9" width="2.2" height="2.2" fill="#1C1FFF" stroke="#1C1FFF" stroke-width="0.2"/>
<rect x="32.9" y="36.9" width="2.2" height="2.2" fill="#1C1FFF" stroke="#1C1FFF" stroke-width="0.2"/>
<rect x="32.9" y="40.9" width="2.2" height="2.2" fill="#1C1FFF" stroke="#1C1FFF" stroke-width="0.2"/>
<rect x="32.9" y="44.9" width="2.2" height="2.2" fill="#1C1FFF" stroke="#1C1FFF" stroke-width="0.2"/>
<rect x="32.9" y="48.9" width="2.2" height="2.2" fill="#1C1FFF" stroke="#1C1FFF" stroke-width="0.2"/>
<rect x="32.9" y="52.9" width="2.2" height="2.2" fill="#1C1FFF" stroke="#1C1FFF" stroke-width="0.2"/>
<rect x="32.9" y="56.9" width="2.2" height="2.2" fill="#1C1FFF" stroke="#1C1FFF" stroke-width="0.2"/>
<rect x="32.9" y="60.9" width="2.2" height="2.2" fill="#1C1FFF" stroke="#1C1FFF" stroke-width="0.2"/>
<rect x="32.9" y="64.9" width="2.2" height="2.2" fill="#1C1FFF" stroke="#1C1FFF" stroke-width="0.2"/>
<rect x="32.9" y="68.9" width="2.2" height="2.2" fill="#1C1FFF" stroke="#1C1FFF" stroke-width="0.2"/>
<rect x="32.9" y="72.9" width="2.2" height="2.2" fill="#1C1FFF" stroke="#1C1FFF" stroke-width="0.2"/>
<rect x="36.9" y="0.9" width="2.2" height="2.2" fill="#1C1FFF" stroke="#1C1FFF" stroke-width="0.2"/>
<rect x="36.9" y="4.9" width="2.2" height="2.2" fill="#1C1FFF" stroke="#1C1FFF" stroke-width="0.2"/>
<rect x="36.9" y="12.9" width="2.2" height="2.2" fill="#1C1FFF" stroke="#1C1FFF" stroke-width="0.2"/>
<rect x="36.9" y="16.9" width="2.2" height="2.2" fill="#1C1FFF" stroke="#1C1FFF" stroke-width="0.2"/>
<rect x="36.9" y="20.9" width="2.2" height="2.2" fill="#1C1FFF" stroke="#1C1FFF" stroke-width="0.2"/>
<rect x="36.9" y="24.9" width="2.2" height="2.2" fill="#1C1FFF" stroke="#1C1FFF" stroke-width="0.2"/>
<rect x="36.9" y="28.9" width="2.2" height="2.2" fill="#1C1FFF" stroke="#1C1FFF" stroke-width="0.2"/>
<rect x="36.9" y="32.9" width="2.2" height="2.2" fill="#1C1FFF" stroke="#1C1FFF" stroke-width="0.2"/>
<rect x="36.9" y="36.9" width="2.2" height="2.2" fill="#1C1FFF" stroke="#1C1FFF" stroke-width="0.2"/>
<rect x="36.9" y="40.9" width="2.2" height="2.2" fill="#1C1FFF" stroke="#1C1FFF" stroke-width="0.2"/>
<rect x="36.9" y="44.9" width="2.2" height="2.2" fill="#1C1FFF" stroke="#1C1FFF" stroke-width="0.2"/>
<rect x="36.9" y="48.9" width="2.2" height="2.2" fill="#1C1FFF" stroke="#1C1FFF" stroke-width="0.2"/>
<rect x="36.9" y="52.9" width="2.2" height="2.2" fill="#1C1FFF" stroke="#1C1FFF" stroke-width="0.2"/>
<rect x="36.9" y="56.9" width="2.2" height="2.2" fill="#1C1FFF" stroke="#1C1FFF" stroke-width="0.2"/>
<rect x="36.9" y="60.9" width="2.2" height="2.2" fill="#1C1FFF" stroke="#1C1FFF" stroke-width="0.2"/>
<rect x="36.9" y="64.9" width="2.2" height="2.2" fill="#1C1FFF" stroke="#1C1FFF" stroke-width="0.2"/>
<rect x="36.9" y="68.9" width="2.2" height="2.2" fill="#1C1FFF" stroke="#1C1FFF" stroke-width="0.2"/>
<rect x="40.9" y="0.9" width="2.2" height="2.2" fill="#1C1FFF" stroke="#1C1FFF" stroke-width="0.2"/>
<rect x="40.9" y="4.9" width="2.2" height="2.2" fill="#1C1FFF" stroke="#1C1FFF" stroke-width="0.2"/>
<rect x="40.9" y="8.9" width="2.2" height="2.2" fill="#1C1FFF" stroke="#1C1FFF" stroke-width="0.2"/>
<rect x="40.9" y="12.9" width="2.2" height="2.2" fill="#1C1FFF" stroke="#1C1FFF" stroke-width="0.2"/>
<rect x="40.9" y="16.9" width="2.2" height="2.2" fill="#1C1FFF" stroke="#1C1FFF" stroke-width="0.2"/>
<rect x="40.9" y="20.9" width="2.2" height="2.2" fill="#1C1FFF" stroke="#1C1FFF" stroke-width="0.2"/>
<rect x="40.9" y="24.9" width="2.2" height="2.2" fill="#1C1FFF" stroke="#1C1FFF" stroke-width="0.2"/>
<rect x="40.9" y="28.9" width="2.2" height="2.2" fill="#1C1FFF" stroke="#1C1FFF" stroke-width="0.2"/>
<rect x="40.9" y="32.9" width="2.2" height="2.2" fill="#1C1FFF" stroke="#1C1FFF" stroke-width="0.2"/>
<rect x="40.9" y="36.9" width="2.2" height="2.2" fill="#1C1FFF" stroke="#1C1FFF" stroke-width="0.2"/>
<rect x="40.9" y="40.9" width="2.2" height="2.2" fill="#1C1FFF" stroke="#1C1FFF" stroke-width="0.2"/>
<rect x="40.9" y="44.9" width="2.2" height="2.2" fill="#1C1FFF" stroke="#1C1FFF" stroke-width="0.2"/>
<rect x="40.9" y="48.9" width="2.2" height="2.2" fill="#1C1FFF" stroke="#1C1FFF" stroke-width="0.2"/>
<rect x="40.9" y="52.9" width="2.2" height="2.2" fill="#1C1FFF" stroke="#1C1FFF" stroke-width="0.2"/>
<rect x="40.9" y="56.9" width="2.2" height="2.2" fill="#1C1FFF" stroke="#1C1FFF" stroke-width="0.2"/>
<rect x="40.9" y="60.9" width="2.2" height="2.2" fill="#1C1FFF" stroke="#1C1FFF" stroke-width="0.2"/>
<rect x="40.9" y="64.9" width="2.2" height="2.2" fill="#1C1FFF" stroke="#1C1FFF" stroke-width="0.2"/>
<rect x="40.9" y="68.9" width="2.2" height="2.2" fill="#1C1FFF" stroke="#1C1FFF" stroke-width="0.2"/>
<rect x="40.9" y="72.9" width="2.2" height="2.2" fill="#1C1FFF" stroke="#1C1FFF" stroke-width="0.2"/>
<rect x="44.9" y="4.9" width="2.2" height="2.2" fill="#1C1FFF" stroke="#1C1FFF" stroke-width="0.2"/>
<rect x="44.9" y="12.9" width="2.2" height="2.2" fill="#1C1FFF" stroke="#1C1FFF" stroke-width="0.2"/>
<rect x="44.9" y="16.9" width="2.2" height="2.2" fill="#1C1FFF" stroke="#1C1FFF" stroke-width="0.2"/>
<rect x="44.9" y="20.9" width="2.2" height="2.2" fill="#1C1FFF" stroke="#1C1FFF" stroke-width="0.2"/>
<rect x="44.9" y="24.9" width="2.2" height="2.2" fill="#1C1FFF" stroke="#1C1FFF" stroke-width="0.2"/>
<rect x="44.9" y="28.9" width="2.2" height="2.2" fill="#1C1FFF" stroke="#1C1FFF" stroke-width="0.2"/>
<rect x="44.9" y="32.9" width="2.2" height="2.2" fill="#1C1FFF" stroke="#1C1FFF" stroke-width="0.2"/>
<rect x="44.9" y="36.9" width="2.2" height="2.2" fill="#1C1FFF" stroke="#1C1FFF" stroke-width="0.2"/>
<rect x="44.9" y="40.9" width="2.2" height="2.2" fill="#1C1FFF" stroke="#1C1FFF" stroke-width="0.2"/>
<rect x="44.9" y="44.9" width="2.2" height="2.2" fill="#1C1FFF" stroke="#1C1FFF" stroke-width="0.2"/>
<rect x="44.9" y="48.9" width="2.2" height="2.2" fill="#1C1FFF" stroke="#1C1FFF" stroke-width="0.2"/>
<rect x="44.9" y="52.9" width="2.2" height="2.2" fill="#1C1FFF" stroke="#1C1FFF" stroke-width="0.2"/>
<rect x="44.9" y="56.9" width="2.2" height="2.2" fill="#1C1FFF" stroke="#1C1FFF" stroke-width="0.2"/>
<rect x="44.9" y="60.9" width="2.2" height="2.2" fill="#1C1FFF" stroke="#1C1FFF" stroke-width="0.2"/>
<rect x="44.9" y="64.9" width="2.2" height="2.2" fill="#1C1FFF" stroke="#1C1FFF" stroke-width="0.2"/>
<rect x="48.9" y="8.9" width="2.2" height="2.2" fill="#1C1FFF" stroke="#1C1FFF" stroke-width="0.2"/>
<rect x="48.9" y="12.9" width="2.2" height="2.2" fill="#1C1FFF" stroke="#1C1FFF" stroke-width="0.2"/>
<rect x="48.9" y="20.9" width="2.2" height="2.2" fill="#1C1FFF" stroke="#1C1FFF" stroke-width="0.2"/>
<rect x="48.9" y="24.9" width="2.2" height="2.2" fill="#1C1FFF" stroke="#1C1FFF" stroke-width="0.2"/>
<rect x="48.9" y="28.9" width="2.2" height="2.2" fill="#1C1FFF" stroke="#1C1FFF" stroke-width="0.2"/>
<rect x="48.9" y="32.9" width="2.2" height="2.2" fill="#1C1FFF" stroke="#1C1FFF" stroke-width="0.2"/>
<rect x="48.9" y="36.9" width="2.2" height="2.2" fill="#1C1FFF" stroke="#1C1FFF" stroke-width="0.2"/>
<rect x="48.9" y="40.9" width="2.2" height="2.2" fill="#1C1FFF" stroke="#1C1FFF" stroke-width="0.2"/>
<rect x="48.9" y="44.9" width="2.2" height="2.2" fill="#1C1FFF" stroke="#1C1FFF" stroke-width="0.2"/>
<rect x="48.9" y="64.9" width="2.2" height="2.2" fill="#1C1FFF" stroke="#1C1FFF" stroke-width="0.2"/>
<rect x="52.9" y="8.9" width="2.2" height="2.2" fill="#1C1FFF" stroke="#1C1FFF" stroke-width="0.2"/>
<rect x="52.9" y="12.9" width="2.2" height="2.2" fill="#1C1FFF" stroke="#1C1FFF" stroke-width="0.2"/>
<rect x="52.9" y="20.9" width="2.2" height="2.2" fill="#1C1FFF" stroke="#1C1FFF" stroke-width="0.2"/>
<rect x="52.9" y="24.9" width="2.2" height="2.2" fill="#1C1FFF" stroke="#1C1FFF" stroke-width="0.2"/>
<rect x="52.9" y="28.9" width="2.2" height="2.2" fill="#1C1FFF" stroke="#1C1FFF" stroke-width="0.2"/>
<rect x="52.9" y="32.9" width="2.2" height="2.2" fill="#1C1FFF" stroke="#1C1FFF" stroke-width="0.2"/>
<rect x="52.9" y="36.9" width="2.2" height="2.2" fill="#1C1FFF" stroke="#1C1FFF" stroke-width="0.2"/>
<rect x="52.9" y="40.9" width="2.2" height="2.2" fill="#1C1FFF" stroke="#1C1FFF" stroke-width="0.2"/>
<rect x="52.9" y="44.9" width="2.2" height="2.2" fill="#1C1FFF" stroke="#1C1FFF" stroke-width="0.2"/>
<rect x="56.9" y="8.9" width="2.2" height="2.2" fill="#1C1FFF" stroke="#1C1FFF" stroke-width="0.2"/>
<rect x="56.9" y="12.9" width="2.2" height="2.2" fill="#1C1FFF" stroke="#1C1FFF" stroke-width="0.2"/>
<rect x="56.9" y="16.9" width="2.2" height="2.2" fill="#1C1FFF" stroke="#1C1FFF" stroke-width="0.2"/>
<rect x="56.9" y="20.9" width="2.2" height="2.2" fill="#1C1FFF" stroke="#1C1FFF" stroke-width="0.2"/>
<rect x="56.9" y="24.9" width="2.2" height="2.2" fill="#1C1FFF" stroke="#1C1FFF" stroke-width="0.2"/>
<rect x="56.9" y="28.9" width="2.2" height="2.2" fill="#1C1FFF" stroke="#1C1FFF" stroke-width="0.2"/>
<rect x="56.9" y="32.9" width="2.2" height="2.2" fill="#1C1FFF" stroke="#1C1FFF" stroke-width="0.2"/>
<rect x="56.9" y="36.9" width="2.2" height="2.2" fill="#1C1FFF" stroke="#1C1FFF" stroke-width="0.2"/>
<rect x="56.9" y="40.9" width="2.2" height="2.2" fill="#1C1FFF" stroke="#1C1FFF" stroke-width="0.2"/>
<rect x="56.9" y="44.9" width="2.2" height="2.2" fill="#1C1FFF" stroke="#1C1FFF" stroke-width="0.2"/>
<rect x="60.9" y="12.9" width="2.2" height="2.2" fill="#1C1FFF" stroke="#1C1FFF" stroke-width="0.2"/>
<rect x="60.9" y="16.9" width="2.2" height="2.2" fill="#1C1FFF" stroke="#1C1FFF" stroke-width="0.2"/>
<rect x="60.9" y="24.9" width="2.2" height="2.2" fill="#1C1FFF" stroke="#1C1FFF" stroke-width="0.2"/>
<rect x="60.9" y="28.9" width="2.2" height="2.2" fill="#1C1FFF" stroke="#1C1FFF" stroke-width="0.2"/>
<rect x="60.9" y="32.9" width="2.2" height="2.2" fill="#1C1FFF" stroke="#1C1FFF" stroke-width="0.2"/>
<rect x="60.9" y="36.9" width="2.2" height="2.2" fill="#1C1FFF" stroke="#1C1FFF" stroke-width="0.2"/>
<rect x="60.9" y="40.9" width="2.2" height="2.2" fill="#1C1FFF" stroke="#1C1FFF" stroke-width="0.2"/>
<rect x="60.9" y="44.9" width="2.2" height="2.2" fill="#1C1FFF" stroke="#1C1FFF" stroke-width="0.2"/>
<rect x="60.9" y="48.9" width="2.2" height="2.2" fill="#1C1FFF" stroke="#1C1FFF" stroke-width="0.2"/>
<rect x="60.9" y="52.9" width="2.2" height="2.2" fill="#1C1FFF" stroke="#1C1FFF" stroke-width="0.2"/>
<rect x="64.9" y="12.9" width="2.2" height="2.2" fill="#1C1FFF" stroke="#1C1FFF" stroke-width="0.2"/>
<rect x="64.9" y="16.9" width="2.2" height="2.2" fill="#1C1FFF" stroke="#1C1FFF" stroke-width="0.2"/>
<rect x="64.9" y="24.9" width="2.2" height="2.2" fill="#1C1FFF" stroke="#1C1FFF" stroke-width="0.2"/>
<rect x="64.9" y="28.9" width="2.2" height="2.2" fill="#1C1FFF" stroke="#1C1FFF" stroke-width="0.2"/>
<rect x="64.9" y="32.9" width="2.2" height="2.2" fill="#1C1FFF" stroke="#1C1FFF" stroke-width="0.2"/>
<rect x="64.9" y="36.9" width="2.2" height="2.2" fill="#1C1FFF" stroke="#1C1FFF" stroke-width="0.2"/>
<rect x="64.9" y="40.9" width="2.2" height="2.2" fill="#1C1FFF" stroke="#1C1FFF" stroke-width="0.2"/>
<rect x="64.9" y="44.9" width="2.2" height="2.2" fill="#1C1FFF" stroke="#1C1FFF" stroke-width="0.2"/>
<rect x="64.9" y="48.9" width="2.2" height="2.2" fill="#1C1FFF" stroke="#1C1FFF" stroke-width="0.2"/>
<rect x="64.9" y="52.9" width="2.2" height="2.2" fill="#1C1FFF" stroke="#1C1FFF" stroke-width="0.2"/>
<rect x="64.9" y="76.9" width="2.2" height="2.2" fill="#1C1FFF" stroke="#1C1FFF" stroke-width="0.2"/>
<rect x="64.9" y="80.9" width="2.2" height="2.2" fill="#1C1FFF" stroke="#1C1FFF" stroke-width="0.2"/>
<rect x="68.9" y="8.9" width="2.2" height="2.2" fill="#1C1FFF" stroke="#1C1FFF" stroke-width="0.2"/>
<rect x="68.9" y="12.9" width="2.2" height="2.2" fill="#1C1FFF" stroke="#1C1FFF" stroke-width="0.2"/>
<rect x="68.9" y="20.9" width="2.2" height="2.2" fill="#1C1FFF" stroke="#1C1FFF" stroke-width="0.2"/>
<rect x="68.9" y="28.9" width="2.2" height="2.2" fill="#1C1FFF" stroke="#1C1FFF" stroke-width="0.2"/>
<rect x="68.9" y="32.9" width="2.2" height="2.2" fill="#1C1FFF" stroke="#1C1FFF" stroke-width="0.2"/>
<rect x="68.9" y="36.9" width="2.2" height="2.2" fill="#1C1FFF" stroke="#1C1FFF" stroke-width="0.2"/>
<rect x="68.9" y="40.9" width="2.2" height="2.2" fill="#1C1FFF" stroke="#1C1FFF" stroke-width="0.2"/>
<rect x="68.9" y="44.9" width="2.2" height="2.2" fill="#1C1FFF" stroke="#1C1FFF" stroke-width="0.2"/>
<rect x="68.9" y="48.9" width="2.2" height="2.2" fill="#1C1FFF" stroke="#1C1FFF" stroke-width="0.2"/>
<rect x="68.9" y="52.9" width="2.2" height="2.2" fill="#1C1FFF" stroke="#1C1FFF" stroke-width="0.2"/>
<rect x="68.9" y="68.9" width="2.2" height="2.2" fill="#1C1FFF" stroke="#1C1FFF" stroke-width="0.2"/>
<rect x="68.9" y="72.9" width="2.2" height="2.2" fill="#1C1FFF" stroke="#1C1FFF" stroke-width="0.2"/>
<rect x="72.9" y="8.9" width="2.2" height="2.2" fill="#1C1FFF" stroke="#1C1FFF" stroke-width="0.2"/>
<rect x="72.9" y="12.9" width="2.2" height="2.2" fill="#1C1FFF" stroke="#1C1FFF" stroke-width="0.2"/>
<rect x="72.9" y="16.9" width="2.2" height="2.2" fill="#1C1FFF" stroke="#1C1FFF" stroke-width="0.2"/>
<rect x="72.9" y="28.9" width="2.2" height="2.2" fill="#1C1FFF" stroke="#1C1FFF" stroke-width="0.2"/>
<rect x="72.9" y="32.9" width="2.2" height="2.2" fill="#1C1FFF" stroke="#1C1FFF" stroke-width="0.2"/>
<rect x="72.9" y="36.9" width="2.2" height="2.2" fill="#1C1FFF" stroke="#1C1FFF" stroke-width="0.2"/>
<rect x="72.9" y="40.9" width="2.2" height="2.2" fill="#1C1FFF" stroke="#1C1FFF" stroke-width="0.2"/>
<rect x="72.9" y="44.9" width="2.2" height="2.2" fill="#1C1FFF" stroke="#1C1FFF" stroke-width="0.2"/>
<rect x="72.9" y="48.9" width="2.2" height="2.2" fill="#1C1FFF" stroke="#1C1FFF" stroke-width="0.2"/>
<rect x="72.9" y="52.9" width="2.2" height="2.2" fill="#1C1FFF" stroke="#1C1FFF" stroke-width="0.2"/>
<rect x="72.9" y="72.9" width="2.2" height="2.2" fill="#1C1FFF" stroke="#1C1FFF" stroke-width="0.2"/>
<rect x="76.9" y="8.9" width="2.2" height="2.2" fill="#1C1FFF" stroke="#1C1FFF" stroke-width="0.2"/>
<rect x="76.9" y="12.9" width="2.2" height="2.2" fill="#1C1FFF" stroke="#1C1FFF" stroke-width="0.2"/>
<rect x="76.9" y="24.9" width="2.2" height="2.2" fill="#1C1FFF" stroke="#1C1FFF" stroke-width="0.2"/>
<rect x="76.9" y="28.9" width="2.2" height="2.2" fill="#1C1FFF" stroke="#1C1FFF" stroke-width="0.2"/>
<rect x="76.9" y="32.9" width="2.2" height="2.2" fill="#1C1FFF" stroke="#1C1FFF" stroke-width="0.2"/>
<rect x="76.9" y="36.9" width="2.2" height="2.2" fill="#1C1FFF" stroke="#1C1FFF" stroke-width="0.2"/>
<rect x="76.9" y="40.9" width="2.2" height="2.2" fill="#1C1FFF" stroke="#1C1FFF" stroke-width="0.2"/>
<rect x="76.9" y="44.9" width="2.2" height="2.2" fill="#1C1FFF" stroke="#1C1FFF" stroke-width="0.2"/>
<rect x="76.9" y="48.9" width="2.2" height="2.2" fill="#1C1FFF" stroke="#1C1FFF" stroke-width="0.2"/>
<rect x="76.9" y="52.9" width="2.2" height="2.2" fill="#1C1FFF" stroke="#1C1FFF" stroke-width="0.2"/>
<rect x="76.9" y="56.9" width="2.2" height="2.2" fill="#1C1FFF" stroke="#1C1FFF" stroke-width="0.2"/>
<rect x="76.9" y="60.9" width="2.2" height="2.2" fill="#1C1FFF" stroke="#1C1FFF" stroke-width="0.2"/>
<rect x="76.9" y="64.9" width="2.2" height="2.2" fill="#1C1FFF" stroke="#1C1FFF" stroke-width="0.2"/>
<rect x="76.9" y="68.9" width="2.2" height="2.2" fill="#1C1FFF" stroke="#1C1FFF" stroke-width="0.2"/>
<rect x="76.9" y="72.9" width="2.2" height="2.2" fill="#1C1FFF" stroke="#1C1FFF" stroke-width="0.2"/>
<rect x="76.9" y="76.9" width="2.2" height="2.2" fill="#1C1FFF" stroke="#1C1FFF" stroke-width="0.2"/>
<rect x="80.9" y="20.9" width="2.2" height="2.2" fill="#1C1FFF" stroke="#1C1FFF" stroke-width="0.2"/>
<rect x="80.9" y="16.9" width="2.2" height="2.2" fill="#1C1FFF" stroke="#1C1FFF" stroke-width="0.2"/>
<rect x="80.9" y="12.9" width="2.2" height="2.2" fill="#1C1FFF" stroke="#1C1FFF" stroke-width="0.2"/>
<rect x="80.9" y="24.9" width="2.2" height="2.2" fill="#1C1FFF" stroke="#1C1FFF" stroke-width="0.2"/>
<rect x="80.9" y="28.9" width="2.2" height="2.2" fill="#1C1FFF" stroke="#1C1FFF" stroke-width="0.2"/>
<rect x="80.9" y="32.9" width="2.2" height="2.2" fill="#1C1FFF" stroke="#1C1FFF" stroke-width="0.2"/>
<rect x="80.9" y="36.9" width="2.2" height="2.2" fill="#1C1FFF" stroke="#1C1FFF" stroke-width="0.2"/>
<rect x="80.9" y="40.9" width="2.2" height="2.2" fill="#1C1FFF" stroke="#1C1FFF" stroke-width="0.2"/>
<rect x="80.9" y="44.9" width="2.2" height="2.2" fill="#1C1FFF" stroke="#1C1FFF" stroke-width="0.2"/>
<rect x="80.9" y="48.9" width="2.2" height="2.2" fill="#1C1FFF" stroke="#1C1FFF" stroke-width="0.2"/>
<rect x="80.9" y="52.9" width="2.2" height="2.2" fill="#1C1FFF" stroke="#1C1FFF" stroke-width="0.2"/>
<rect x="80.9" y="64.9" width="2.2" height="2.2" fill="#1C1FFF" stroke="#1C1FFF" stroke-width="0.2"/>
<rect x="80.9" y="68.9" width="2.2" height="2.2" fill="#1C1FFF" stroke="#1C1FFF" stroke-width="0.2"/>
<rect x="80.9" y="72.9" width="2.2" height="2.2" fill="#1C1FFF" stroke="#1C1FFF" stroke-width="0.2"/>
<rect x="84.9" y="20.9" width="2.2" height="2.2" fill="#1C1FFF" stroke="#1C1FFF" stroke-width="0.2"/>
<rect x="84.9" y="28.9" width="2.2" height="2.2" fill="#1C1FFF" stroke="#1C1FFF" stroke-width="0.2"/>
<rect x="84.9" y="32.9" width="2.2" height="2.2" fill="#1C1FFF" stroke="#1C1FFF" stroke-width="0.2"/>
<rect x="84.9" y="36.9" width="2.2" height="2.2" fill="#1C1FFF" stroke="#1C1FFF" stroke-width="0.2"/>
<rect x="84.9" y="40.9" width="2.2" height="2.2" fill="#1C1FFF" stroke="#1C1FFF" stroke-width="0.2"/>
<rect x="84.9" y="44.9" width="2.2" height="2.2" fill="#1C1FFF" stroke="#1C1FFF" stroke-width="0.2"/>
<rect x="84.9" y="48.9" width="2.2" height="2.2" fill="#1C1FFF" stroke="#1C1FFF" stroke-width="0.2"/>
<rect x="84.9" y="52.9" width="2.2" height="2.2" fill="#1C1FFF" stroke="#1C1FFF" stroke-width="0.2"/>
<rect x="88.9" y="28.9" width="2.2" height="2.2" fill="#1C1FFF" stroke="#1C1FFF" stroke-width="0.2"/>
<rect x="88.9" y="32.9" width="2.2" height="2.2" fill="#1C1FFF" stroke="#1C1FFF" stroke-width="0.2"/>
<rect x="88.9" y="40.9" width="2.2" height="2.2" fill="#1C1FFF" stroke="#1C1FFF" stroke-width="0.2"/>
<rect x="88.9" y="44.9" width="2.2" height="2.2" fill="#1C1FFF" stroke="#1C1FFF" stroke-width="0.2"/>
<rect x="88.9" y="48.9" width="2.2" height="2.2" fill="#1C1FFF" stroke="#1C1FFF" stroke-width="0.2"/>
<rect x="92.9" y="40.9" width="2.2" height="2.2" fill="#1C1FFF" stroke="#1C1FFF" stroke-width="0.2"/>
<rect x="92.9" y="44.9" width="2.2" height="2.2" fill="#1C1FFF" stroke="#1C1FFF" stroke-width="0.2"/>
<rect x="92.9" y="48.9" width="2.2" height="2.2" fill="#1C1FFF" stroke="#1C1FFF" stroke-width="0.2"/>
<rect x="96.9" y="48.9" width="2.2" height="2.2" fill="#1C1FFF" stroke="#1C1FFF" stroke-width="0.2"/>
</svg>
