<svg width="222" height="186" viewBox="0 0 222 186" fill="none" xmlns="http://www.w3.org/2000/svg">
<path d="M222 106.391V111.512C221.904 111.506 221.807 111.493 221.712 111.493C220.354 111.49 218.995 111.49 217.636 111.49C217.515 111.49 217.394 111.496 217.274 111.511C216.977 111.549 216.876 111.673 216.862 111.928C216.85 112.147 216.851 112.366 216.851 112.586C216.85 113.683 216.851 114.781 216.85 115.878C216.85 116.097 216.848 116.317 216.838 116.536C216.825 116.796 216.728 116.898 216.49 116.907C216.271 116.915 216.053 116.916 215.835 116.916C214.695 116.917 213.555 116.914 212.414 116.918C212.197 116.918 211.98 116.936 211.762 116.951C211.676 116.957 211.577 117.058 211.571 117.144C211.556 117.362 211.538 117.581 211.537 117.8C211.534 118.994 211.537 120.19 211.534 121.384C211.534 121.603 211.522 121.823 211.511 122.041C211.505 122.148 211.39 122.275 211.276 122.289C211.061 122.317 210.844 122.345 210.628 122.347C209.535 122.353 208.444 122.349 207.352 122.351C207.134 122.351 206.915 122.356 206.698 122.371C206.483 122.385 206.356 122.527 206.343 122.758C206.334 122.952 206.332 123.147 206.332 123.343C206.331 124.44 206.332 125.537 206.331 126.634C206.331 126.975 206.339 127.316 206.271 127.655C206.237 127.819 206.249 127.995 206.249 128.165C206.248 129.554 206.249 130.945 206.249 132.335C206.249 132.481 206.24 132.63 206.264 132.773C206.326 133.137 206.312 133.503 206.312 133.868C206.315 134.917 206.313 135.965 206.312 137.013C206.312 137.208 206.315 137.404 206.309 137.599C206.293 138.068 206.227 138.139 205.745 138.141C204.338 138.145 202.931 138.142 201.524 138.141C201.428 138.141 201.331 138.124 201.235 138.113C201.151 138.103 201.056 138.007 201.051 137.917C201.037 137.698 201.021 137.479 201.02 137.261C201.017 136.042 201.021 134.822 201.016 133.603C201.015 133.36 201.011 133.113 200.967 132.876C200.918 132.609 200.907 132.344 200.906 132.075C200.895 129.076 200.884 126.076 200.874 123.077C200.874 122.858 200.879 122.638 200.879 122.419C200.888 120.834 200.901 119.249 200.901 117.664C200.901 117.007 200.848 116.959 200.192 116.956C198.931 116.951 197.669 116.955 196.408 116.956C196.311 116.956 196.214 116.959 196.117 116.965C195.859 116.982 195.732 117.11 195.717 117.389C195.705 117.607 195.705 117.827 195.704 118.047C195.703 119.192 195.708 120.339 195.701 121.485C195.697 122.143 195.662 122.173 194.988 122.175C193.727 122.179 192.465 122.176 191.204 122.177C190.986 122.177 190.767 122.179 190.55 122.186C190.138 122.2 189.727 122.23 189.315 122.232C188.175 122.239 187.035 122.232 185.894 122.236C185.701 122.236 185.507 122.252 185.316 122.279C185.216 122.293 185.137 122.372 185.124 122.474C185.096 122.691 185.071 122.909 185.07 123.127C185.064 124.248 185.067 125.371 185.067 126.492C185.067 126.711 185.068 126.931 185.051 127.15C185.031 127.405 184.942 127.526 184.629 127.549C184.533 127.557 184.435 127.558 184.339 127.559C184.145 127.561 183.95 127.56 183.756 127.561C182.713 127.561 181.67 127.558 180.627 127.563C180.434 127.564 180.24 127.582 180.049 127.612C179.951 127.627 179.872 127.709 179.862 127.811C179.839 128.052 179.822 128.296 179.822 128.539C179.824 133.221 179.829 137.903 179.834 142.585C179.834 142.732 179.836 142.878 179.839 143.024C179.842 143.098 179.85 143.17 179.86 143.242C179.879 143.381 180.006 143.524 180.143 143.539C180.36 143.562 180.578 143.58 180.795 143.581C181.838 143.585 182.881 143.582 183.925 143.583C184.143 143.583 184.361 143.585 184.579 143.596C184.811 143.608 184.942 143.739 184.958 143.958C184.964 144.055 184.967 144.153 184.968 144.25C184.97 144.47 184.969 144.689 184.969 144.909C184.969 151.152 184.969 157.395 184.969 163.638C184.969 164.076 184.948 164.515 185.029 164.95C185.051 165.069 185.041 165.194 185.041 165.316C185.041 166.705 185.042 168.096 185.041 169.486C185.041 169.608 185.033 169.73 185.023 169.851C185.011 170 184.898 170.121 184.74 170.134C184.523 170.153 184.305 170.167 184.087 170.168C182.995 170.171 181.904 170.167 180.812 170.173C180.595 170.173 180.378 170.198 180.162 170.227C180.063 170.241 179.989 170.317 179.961 170.417C179.935 170.51 179.911 170.606 179.906 170.702C179.895 170.92 179.895 171.14 179.895 171.36C179.895 172.408 179.898 173.457 179.892 174.505C179.89 174.722 179.857 174.94 179.832 175.157C179.823 175.239 179.716 175.337 179.632 175.344C179.439 175.36 179.246 175.379 179.052 175.379C177.767 175.382 176.48 175.382 175.195 175.379C175.025 175.379 174.853 175.388 174.686 175.363C174.299 175.305 173.912 175.313 173.524 175.312C172.408 175.311 171.293 175.314 170.176 175.31C169.959 175.309 169.742 175.285 169.526 175.267C169.444 175.26 169.345 175.155 169.338 175.068C169.322 174.85 169.301 174.632 169.3 174.414C169.296 173.316 169.3 172.219 169.298 171.122C169.298 170.902 169.295 170.683 169.283 170.464C169.269 170.227 169.146 170.101 168.924 170.086C168.779 170.076 168.634 170.072 168.488 170.071C166.766 170.06 165.044 170.046 163.321 170.043C160.289 170.038 157.256 170.041 154.224 170.043C154.03 170.043 153.836 170.048 153.642 170.059C153.483 170.067 153.359 170.177 153.348 170.328C153.332 170.547 153.321 170.766 153.321 170.985C153.319 172.204 153.321 173.424 153.319 174.643C153.319 174.863 153.331 175.086 153.293 175.299C153.233 175.639 153.236 175.979 153.236 176.319C153.235 179.124 153.236 181.928 153.236 184.733C153.236 184.928 153.238 185.123 153.234 185.318C153.225 185.869 153.163 185.935 152.591 185.938C150.627 185.946 148.662 185.931 146.698 185.987C145.752 186.014 144.806 185.991 143.859 185.991C143.665 185.991 143.471 185.991 143.277 185.985C143.205 185.983 143.133 185.968 143.062 185.958C142.974 185.945 142.88 185.85 142.876 185.763C142.866 185.544 142.854 185.325 142.854 185.106C142.851 183.813 142.852 182.52 142.852 181.228C142.852 177.79 142.852 174.351 142.853 170.913C142.853 170.718 142.861 170.523 142.87 170.329C142.876 170.218 142.992 170.092 143.105 170.083C143.322 170.064 143.539 170.047 143.757 170.046C144.873 170.042 145.989 170.046 147.105 170.043C147.323 170.043 147.541 170.027 147.758 170.011C147.874 170.003 147.991 169.885 147.998 169.772C148.014 169.554 148.028 169.334 148.029 169.115C148.032 167.969 148.029 166.823 148.032 165.677C148.032 165.459 148.052 165.24 148.071 165.022C148.08 164.911 148.203 164.79 148.314 164.782C148.531 164.765 148.749 164.75 148.967 164.749C150.132 164.746 151.296 164.749 152.461 164.747C152.679 164.747 152.897 164.738 153.114 164.726C153.253 164.719 153.392 164.588 153.405 164.443C153.426 164.2 153.443 163.957 153.444 163.714C153.448 162.568 153.441 161.421 153.449 160.276C153.453 159.641 153.524 159.575 154.174 159.575C157.182 159.573 160.191 159.573 163.198 159.575C163.835 159.575 163.907 159.646 163.911 160.291C163.919 161.364 163.914 162.437 163.914 163.51C163.914 163.729 163.912 163.949 163.92 164.168C163.938 164.606 164.05 164.721 164.502 164.723C165.812 164.729 167.122 164.729 168.432 164.726C169.076 164.723 169.139 164.662 169.143 164.013C169.149 162.916 169.145 161.819 169.146 160.722C169.146 160.502 169.141 160.283 169.152 160.064C169.158 159.919 169.153 159.756 169.217 159.635C169.387 159.313 169.363 158.974 169.363 158.634C169.365 155.756 169.363 152.879 169.364 150.001C169.364 149.781 169.364 149.562 169.369 149.342C169.37 149.27 169.383 149.197 169.394 149.125C169.409 149.026 169.539 148.894 169.642 148.886C169.86 148.87 170.078 148.855 170.295 148.854C171.436 148.851 172.576 148.856 173.716 148.85C174.446 148.846 174.487 148.801 174.492 148.05C174.504 146.221 174.521 144.392 174.522 142.564C174.526 136.175 174.524 129.785 174.524 123.396C174.524 123.176 174.525 122.957 174.519 122.737C174.517 122.641 174.499 122.544 174.485 122.448C174.473 122.368 174.374 122.265 174.292 122.252C174.173 122.234 174.052 122.21 173.932 122.21C172.574 122.207 171.215 122.207 169.857 122.208C169.736 122.208 169.615 122.223 169.495 122.237C169.362 122.253 169.224 122.388 169.212 122.532C169.19 122.774 169.173 123.017 169.172 123.26C169.168 124.406 169.174 125.553 169.168 126.699C169.163 127.419 169.099 127.481 168.367 127.488C167.47 127.494 166.572 127.488 165.675 127.491C165.044 127.493 164.413 127.459 163.787 127.576C163.716 127.589 163.642 127.585 163.569 127.585C162.114 127.585 160.658 127.588 159.203 127.583C159.035 127.583 158.858 127.568 158.703 127.513C158.443 127.42 158.18 127.417 157.913 127.417C156.943 127.415 155.973 127.412 155.002 127.417C154.373 127.42 153.741 127.382 153.114 127.485C152.995 127.505 152.872 127.494 152.75 127.494C151.005 127.513 149.257 127.451 147.512 127.548C144.455 127.548 141.398 127.548 138.342 127.548C138.221 127.548 138.1 127.548 137.978 127.542C137.906 127.538 137.835 127.521 137.764 127.509C137.694 127.497 137.588 127.379 137.584 127.302C137.575 127.157 137.565 127.01 137.563 126.864C137.549 124.597 137.535 122.329 137.522 120.061C137.519 119.281 137.525 118.501 137.519 117.72C137.518 117.527 137.496 117.332 137.478 117.139C137.47 117.057 137.362 116.95 137.284 116.946C137.066 116.933 136.848 116.918 136.631 116.917C135.49 116.914 134.35 116.917 133.21 116.914C132.991 116.914 132.773 116.908 132.555 116.896C132.399 116.889 132.287 116.777 132.277 116.614C132.262 116.395 132.256 116.176 132.255 115.957C132.253 114.787 132.255 113.616 132.253 112.446C132.253 112.227 132.242 112.007 132.23 111.788C132.224 111.682 132.102 111.557 131.989 111.546C131.749 111.524 131.507 111.5 131.266 111.499C130.15 111.494 129.034 111.498 127.918 111.495C127.7 111.495 127.482 111.481 127.264 111.468C127.159 111.462 127.032 111.333 127.024 111.226C127.011 111.032 126.999 110.837 126.999 110.643C126.997 109.472 126.999 108.301 126.996 107.131C126.996 106.913 126.975 106.694 126.957 106.477C126.95 106.393 126.845 106.29 126.763 106.283C126.546 106.266 126.328 106.247 126.111 106.246C124.122 106.24 122.133 106.232 120.144 106.236C117.379 106.243 114.614 106.262 111.848 106.276C111.751 106.276 111.654 106.276 111.557 106.28C111.157 106.295 111.078 106.368 111.065 106.744C111.058 106.939 111.06 107.134 111.06 107.329C111.06 108.451 111.061 109.573 111.058 110.694C111.058 110.914 111.05 111.133 111.038 111.352C111.03 111.493 110.898 111.619 110.747 111.629C110.529 111.643 110.311 111.652 110.093 111.652C109.025 111.654 107.958 111.652 106.89 111.653C106.672 111.653 106.454 111.653 106.236 111.663C105.949 111.676 105.836 111.784 105.82 112.06C105.807 112.279 105.806 112.498 105.806 112.718C105.804 113.669 105.807 114.62 105.804 115.571C105.803 116.083 105.826 116.594 105.736 117.104C105.707 117.27 105.72 117.444 105.72 117.614C105.72 122.467 105.72 127.32 105.72 132.173C105.72 132.368 105.704 132.569 105.747 132.756C105.842 133.166 105.828 133.58 105.829 133.993C105.831 135.066 105.827 136.14 105.831 137.212C105.831 137.431 105.85 137.65 105.868 137.868C105.877 137.979 106 138.096 106.113 138.104C106.331 138.119 106.548 138.134 106.766 138.135C107.882 138.138 108.998 138.135 110.114 138.138C110.332 138.138 110.55 138.157 110.766 138.177C110.872 138.186 110.994 138.319 111.001 138.427C111.013 138.622 111.024 138.816 111.024 139.011C111.026 140.23 111.024 141.449 111.026 142.668C111.026 142.887 111.036 143.107 111.049 143.325C111.055 143.445 111.165 143.561 111.281 143.569C111.498 143.585 111.717 143.601 111.934 143.601C113.074 143.604 114.214 143.601 115.355 143.603C115.549 143.603 115.743 143.606 115.936 143.616C116.121 143.625 116.234 143.752 116.246 143.954C116.249 144.002 116.253 144.051 116.253 144.1C116.253 145.49 116.255 146.88 116.253 148.27C116.253 148.366 116.236 148.463 116.222 148.559C116.211 148.64 116.108 148.748 116.029 148.757C115.885 148.774 115.741 148.795 115.596 148.795C113.632 148.804 111.667 148.79 109.703 148.843C108.66 148.872 107.617 148.847 106.573 148.85C106.38 148.85 106.186 148.862 105.994 148.885C105.894 148.897 105.812 148.976 105.798 149.075C105.766 149.291 105.738 149.509 105.736 149.727C105.73 150.8 105.733 151.873 105.733 152.946C105.733 153.141 105.735 153.336 105.728 153.531C105.711 153.965 105.629 154.05 105.218 154.059C105.024 154.064 104.83 154.062 104.636 154.062C103.471 154.062 102.307 154.06 101.142 154.065C100.925 154.066 100.698 154.06 100.494 154.122C100.184 154.216 99.8732 154.221 99.5585 154.222C98.515 154.223 97.4723 154.222 96.4287 154.223C96.2346 154.223 96.0405 154.22 95.8463 154.226C95.3246 154.242 95.2472 154.316 95.2343 154.814C95.229 155.009 95.2313 155.204 95.2313 155.4C95.2313 156.472 95.2313 157.546 95.2305 158.618C95.2305 158.838 95.248 159.062 95.2108 159.275C95.1433 159.664 95.1539 160.053 95.1539 160.442C95.1539 163.295 95.1562 166.148 95.157 169.002C95.157 169.221 95.157 169.441 95.1509 169.66C95.1494 169.733 95.1471 169.813 95.1152 169.874C95.0849 169.932 95.0212 170 94.9621 170.011C94.7967 170.041 94.6261 170.055 94.4577 170.055C93.1238 170.058 91.789 170.058 90.4551 170.055C90.286 170.055 90.1169 170.038 89.947 170.028C89.6815 170.012 89.4154 169.983 89.1499 169.982C87.9858 169.977 86.821 169.98 85.6561 169.979C85.462 169.979 85.2678 169.974 85.0745 169.962C84.9334 169.954 84.7961 169.82 84.787 169.678C84.7726 169.459 84.7635 169.239 84.7628 169.021C84.7605 167.899 84.7643 166.777 84.7597 165.656C84.759 165.412 84.7757 165.156 84.7059 164.931C84.6096 164.618 84.602 164.309 84.6012 163.993C84.5997 162.847 84.6012 161.7 84.6005 160.555C84.6005 160.335 84.6005 160.116 84.5921 159.897C84.58 159.598 84.4875 159.503 84.2008 159.487C84.0795 159.48 83.9581 159.477 83.8368 159.477C82.5514 159.477 81.2652 159.476 79.9797 159.477C79.8341 159.477 79.6893 159.485 79.5437 159.496C79.3928 159.506 79.2585 159.615 79.2388 159.761C79.21 159.978 79.1857 160.196 79.1842 160.414C79.1789 161.437 79.1819 162.462 79.1812 163.487C79.1812 163.682 79.1835 163.877 79.1744 164.072C79.1562 164.475 79.0333 164.607 78.6549 164.628C78.4372 164.639 78.2181 164.638 78.0004 164.638C76.9812 164.639 75.9627 164.638 74.9434 164.639C74.7008 164.639 74.4588 164.636 74.2215 164.704C74.0728 164.747 73.9538 164.859 73.9439 165.004C73.9287 165.223 73.9174 165.441 73.9174 165.66C73.9151 166.83 73.9143 168.001 73.9166 169.172C73.9181 170.027 73.9174 169.999 73.0589 169.999C71.8698 169.998 70.6814 169.997 69.4923 169.999C69.2739 169.999 69.0524 169.987 68.8386 170.022C68.5246 170.074 68.2106 170.073 67.8959 170.074C66.659 170.076 65.4214 170.073 64.1845 170.077C63.9426 170.078 63.6938 170.073 63.4617 170.128C63.1493 170.202 62.8376 170.206 62.5229 170.207C61.3823 170.208 60.2425 170.207 59.1019 170.209C58.8842 170.209 58.6658 170.219 58.4482 170.237C58.2753 170.25 58.1372 170.393 58.1221 170.576C58.1031 170.794 58.0933 171.013 58.0925 171.232C58.0895 172.257 58.0925 173.281 58.0895 174.305C58.0887 174.524 58.072 174.743 58.0508 174.961C58.0371 175.099 57.8931 175.227 57.755 175.244C57.683 175.252 57.6102 175.262 57.5374 175.262C56.2034 175.263 54.8687 175.264 53.5347 175.261C53.4392 175.261 53.3428 175.241 53.2488 175.22C53.1472 175.196 53.0789 175.122 53.0478 175.026C53.0183 174.935 52.9986 174.837 52.994 174.741C52.9841 174.547 52.9864 174.351 52.9857 174.157C52.9857 173.156 52.9879 172.157 52.9834 171.157C52.9826 170.938 52.9667 170.718 52.9417 170.501C52.9212 170.321 52.7771 170.185 52.6042 170.172C52.3865 170.156 52.1689 170.147 51.9505 170.147C50.8099 170.144 49.6701 170.147 48.5295 170.144C48.2633 170.144 47.9933 170.149 47.7309 170.112C47.4162 170.068 47.103 170.06 46.7875 170.06C45.6227 170.06 44.4586 170.06 43.2937 170.06C43.0753 170.06 42.8569 170.054 42.6393 170.044C42.48 170.038 42.3556 169.924 42.3473 169.777C42.3344 169.558 42.3245 169.339 42.3245 169.12C42.3223 167.998 42.3245 166.876 42.323 165.755C42.323 165.535 42.323 165.316 42.3056 165.097C42.2859 164.842 42.1827 164.78 41.9946 164.766C41.777 164.75 41.5586 164.75 41.3402 164.75C40.2239 164.748 39.1083 164.751 37.992 164.748C37.7743 164.748 37.5567 164.732 37.339 164.719C37.2564 164.714 37.1487 164.617 37.1396 164.532C37.1161 164.315 37.0872 164.097 37.0857 163.879C37.0804 162.733 37.0842 161.587 37.0819 160.441C37.0819 160.197 37.0743 159.953 37.066 159.71C37.0524 159.32 37.0235 158.931 37.022 158.542C37.016 157.25 37.0205 155.957 37.0175 154.665C37.0167 154.204 36.956 154.113 36.4707 154.109C36.4222 154.109 36.3736 154.107 36.3251 154.107C34.5058 154.1 32.6872 154.115 30.8679 154.073C29.6552 154.046 28.4419 154.068 27.2292 154.068C27.0351 154.068 26.8371 154.046 26.6476 154.078C26.0204 154.184 25.3894 154.145 24.76 154.149C23.8378 154.155 22.9164 154.149 21.9942 154.152C21.8008 154.152 21.6067 154.164 21.4141 154.181C21.2677 154.194 21.1592 154.321 21.1471 154.48C21.138 154.601 21.1304 154.723 21.1297 154.845C21.1228 156.771 21.135 158.698 21.0887 160.623C21.0614 161.745 21.0849 162.867 21.0827 163.988C21.0827 164.183 21.0728 164.378 21.047 164.57C21.0394 164.625 20.9643 164.702 20.9097 164.713C20.7687 164.741 20.6216 164.745 20.4767 164.746C19.1427 164.748 17.808 164.749 16.4741 164.746C15.8818 164.745 15.8643 164.724 15.8537 164.133C15.8499 163.938 15.8522 163.743 15.8522 163.548C15.8522 162.475 15.8522 161.402 15.8522 160.329C15.8522 159.476 15.8514 159.48 15.0043 159.48C13.8152 159.48 12.6269 159.482 11.4377 159.478C10.5982 159.476 10.5937 159.473 10.5929 158.624C10.5914 153.82 10.5922 149.016 10.5929 144.212C10.5929 144.017 10.5777 143.816 10.6187 143.629C10.6923 143.29 10.6824 142.95 10.6832 142.61C10.6854 141.488 10.6832 140.366 10.6847 139.245C10.6847 139.049 10.6892 138.854 10.7014 138.66C10.712 138.484 10.8508 138.352 11.0388 138.34C11.2565 138.327 11.4749 138.321 11.6933 138.321C12.7611 138.319 13.8281 138.323 14.8959 138.318C15.1128 138.318 15.3312 138.296 15.5473 138.271C15.6869 138.255 15.8196 138.109 15.8287 137.975C15.8408 137.805 15.8507 137.635 15.8507 137.464C15.8522 136.197 15.8514 134.928 15.8507 133.66C15.8507 133.538 15.8499 133.416 15.8438 133.294C15.8294 132.997 15.7377 132.901 15.4487 132.89C15.2546 132.882 15.0605 132.883 14.8663 132.883C13.7743 132.883 12.683 132.883 11.5909 132.883C11.3968 132.883 11.2026 132.883 11.0085 132.876C10.7112 132.864 10.6149 132.772 10.6005 132.483C10.5914 132.289 10.5914 132.093 10.5906 131.899C10.5876 130.094 10.5785 128.29 10.5846 126.485C10.5891 124.925 10.5694 123.365 10.6119 121.803C10.6452 120.585 10.6187 119.365 10.6195 118.146C10.6195 117.926 10.6179 117.707 10.6225 117.487C10.6248 117.39 10.6369 117.293 10.649 117.197C10.6627 117.081 10.7726 116.98 10.8985 116.974C11.1162 116.964 11.3346 116.956 11.553 116.956C12.6451 116.955 13.7363 116.956 14.8284 116.956C15.0225 116.956 15.2167 116.956 15.4108 116.95C15.4829 116.947 15.5549 116.933 15.6262 116.922C15.7134 116.909 15.8112 116.816 15.8226 116.732C15.8363 116.636 15.8552 116.539 15.8552 116.443C15.8567 114.98 15.8567 113.516 15.8552 112.053C15.8552 111.98 15.8446 111.907 15.8363 111.835C15.8241 111.728 15.7142 111.602 15.5989 111.59C15.3585 111.564 15.1173 111.537 14.8762 111.535C13.7121 111.53 12.5472 111.534 11.3824 111.531C11.1397 111.531 10.8978 111.522 10.6551 111.513C10.3404 111.502 10.0257 111.476 9.71093 111.474C8.54608 111.47 7.38198 111.474 6.21713 111.471C5.99948 111.471 5.78107 111.459 5.56342 111.445C5.46331 111.439 5.32074 111.307 5.31164 111.209C5.29268 111.015 5.27296 110.821 5.2722 110.627C5.26841 109.579 5.27145 108.53 5.26917 107.482C5.26917 107.262 5.2669 107.043 5.25325 106.824C5.23656 106.556 5.10233 106.417 4.85131 106.392C4.73073 106.381 4.60939 106.376 4.48805 106.374C4.29391 106.371 4.09977 106.373 3.90563 106.373C2.88638 106.373 1.86789 106.376 0.848647 106.37C0.632512 106.368 0.416378 106.332 0.200243 106.307C0.122131 106.298 0.0212682 106.179 0.0189931 106.1C0.0114094 105.857 -0.000724453 105.613 3.3915e-05 105.369C3.3915e-05 102.931 0.00534249 100.492 0.00534249 98.0538C0.00534249 95.7378 0.0872462 93.4225 0.0546364 91.1057C0.0531196 90.9845 0.0629784 90.8625 0.0728372 90.7413C0.0819376 90.6315 0.201001 90.4981 0.304898 90.4913C0.546817 90.4753 0.788736 90.4592 1.03066 90.4585C2.21978 90.4547 3.40814 90.4585 4.59726 90.4531C5.26235 90.4501 5.2942 90.3396 5.2942 89.7266C5.2942 88.5076 5.2942 87.2878 5.2942 86.0688C5.2942 85.8493 5.29571 85.6297 5.30481 85.4109C5.31392 85.2036 5.42236 85.0915 5.61726 85.0839C5.8114 85.0763 6.00555 85.0747 6.19893 85.0747C7.36378 85.074 8.52788 85.0755 9.69273 85.074C10.605 85.0724 10.5967 85.1357 10.6081 84.1454C10.6263 82.5125 10.5861 80.8803 10.6559 79.2465C10.715 77.8591 10.6687 76.467 10.6672 75.0772C10.6672 74.956 10.6566 74.834 10.6437 74.7128C10.624 74.5283 10.4913 74.388 10.3169 74.3789C10.0992 74.3667 9.88081 74.3621 9.66239 74.3621C8.4255 74.3606 7.18784 74.3636 5.95094 74.3598C5.28055 74.3576 5.276 74.3507 5.2722 73.6539C5.26083 71.7762 5.25249 69.8985 5.24263 68.0216C5.24263 67.9484 5.24263 67.8753 5.24263 67.8021C5.21533 63.1936 5.27979 58.5852 5.28737 53.9768C5.28889 53.0993 5.2722 53.1458 6.13295 53.1443C7.2978 53.142 8.4619 53.145 9.62675 53.1428C9.8444 53.1428 10.0621 53.129 10.2797 53.1161C10.3912 53.1092 10.5095 52.991 10.5163 52.8759C10.5307 52.6571 10.5436 52.4383 10.5444 52.2188C10.5474 51.0486 10.5444 49.8776 10.5482 48.7074C10.5489 48.4893 10.574 48.2705 10.5899 48.0525C10.5952 47.9793 10.7143 47.8612 10.7855 47.8566C11.0032 47.8436 11.2208 47.823 11.4385 47.823C12.5548 47.8192 13.6704 47.8208 14.7867 47.8215C15.9235 47.8215 15.837 47.8581 15.8378 46.7283C15.8401 44.3871 15.8355 42.0459 15.8393 39.7047C15.8431 37.3148 15.8522 34.9255 15.8605 32.5355C15.8605 32.3404 15.8712 32.146 15.8795 31.9508C15.8924 31.6588 15.9197 31.3676 15.9212 31.0756C15.9258 29.9054 15.9227 28.7345 15.9242 27.5642C15.9242 27.3691 15.928 27.1739 15.9379 26.9795C15.9455 26.8309 16.0691 26.6952 16.2124 26.6852C16.4301 26.6692 16.6477 26.6578 16.8654 26.657C17.9817 26.654 19.0972 26.6586 20.2136 26.6532C20.4547 26.6525 20.6982 26.6349 20.937 26.6037C21.0614 26.5877 21.1532 26.4947 21.185 26.3658C21.2085 26.272 21.2267 26.1745 21.2313 26.0784C21.2404 25.884 21.2396 25.6881 21.2396 25.4937C21.2396 24.3967 21.2381 23.2989 21.2419 22.2018C21.2427 21.9838 21.2594 21.7642 21.2874 21.5477C21.3003 21.4502 21.3815 21.3686 21.4816 21.3526C21.6476 21.3259 21.8175 21.3091 21.9851 21.3084C23.1977 21.3045 24.4111 21.3068 25.6245 21.3061C25.8429 21.3061 26.0644 21.3228 26.279 21.2923C26.6422 21.2405 27.0047 21.2474 27.368 21.2466C28.5571 21.2451 29.7455 21.2451 30.9346 21.2466C31.2016 21.2466 31.4677 21.2558 31.7347 21.2611L31.7142 21.2405C31.7165 22.8254 31.7195 24.4096 31.721 25.9946C31.721 26.1409 31.7142 26.2873 31.7074 26.4329C31.6937 26.7249 31.6657 27.0161 31.6649 27.3081C31.6604 28.5515 31.6634 29.7956 31.6619 31.039C31.6619 31.2586 31.6816 31.4843 31.6361 31.6954C31.5367 32.1544 31.5496 32.6164 31.5512 33.0791C31.5618 35.9318 31.5754 38.7846 31.5876 41.6373C31.5876 41.7105 31.5876 41.7837 31.5891 41.8569C31.6058 42.4919 31.6543 42.546 32.3186 42.5491C33.6769 42.5544 35.0359 42.5514 36.3941 42.5498C36.5154 42.5498 36.6368 42.5422 36.7574 42.5323C36.9773 42.514 37.1062 42.3875 37.1244 42.1549C37.1411 41.9361 37.1464 41.7166 37.1472 41.4978C37.1494 40.4252 37.1472 39.3518 37.1487 38.2791C37.1487 38.0596 37.154 37.84 37.1661 37.6212C37.1767 37.4329 37.3072 37.2926 37.4831 37.2804C37.6765 37.2667 37.8706 37.2621 38.064 37.2614C39.1796 37.2599 40.2959 37.2599 41.4115 37.2614C42.3268 37.2614 42.3291 37.2766 42.3276 36.3245C42.3268 35.1542 42.3268 33.9833 42.3276 32.813C42.3276 32.5935 42.3314 32.3739 42.3427 32.1551C42.3549 31.9371 42.4861 31.806 42.7174 31.7877C42.9343 31.7701 43.1534 31.7633 43.3711 31.7625C44.3896 31.7602 45.4088 31.7625 46.4273 31.7602C46.6449 31.7602 46.8634 31.7519 47.081 31.7366C47.2645 31.7236 47.4056 31.5918 47.4215 31.4149C47.4405 31.1969 47.4511 30.9773 47.4519 30.7585C47.4549 29.6859 47.4526 28.6125 47.4541 27.5398C47.4541 27.1983 47.4519 26.8583 47.5808 26.5305C47.624 26.4215 47.6225 26.2919 47.627 26.1707C47.6346 25.9755 47.6308 25.7803 47.6308 25.5852C47.6308 24.3662 47.6293 23.1464 47.6331 21.9274C47.6331 21.7581 47.6528 21.5881 47.6763 21.4197C47.6816 21.3815 47.7355 21.3259 47.7726 21.3206C47.9395 21.2969 48.1094 21.2771 48.2777 21.2763C49.4661 21.2725 50.6552 21.2779 51.8436 21.2733C52.9902 21.2695 52.8878 21.3747 52.8924 20.2007C52.8969 19.0548 52.8924 17.9083 52.8954 16.7624C52.8954 16.5688 52.9151 16.3744 52.9311 16.1808C52.9371 16.1038 53.0509 15.9955 53.129 15.9909C53.3466 15.9772 53.5643 15.9612 53.7819 15.9604C54.946 15.9574 56.1109 15.9604 57.275 15.9582C58.1888 15.9559 58.1911 15.9536 58.1934 15.0166C58.1964 13.8708 58.1934 12.7242 58.1956 11.5784C58.1956 11.3596 58.2063 11.1401 58.2199 10.9213C58.2298 10.7711 58.3496 10.656 58.5089 10.6468C58.7265 10.6339 58.9449 10.6278 59.1626 10.627C60.3995 10.6247 61.6371 10.6293 62.874 10.6232C63.4504 10.6209 63.489 10.5752 63.4997 9.99807C63.5027 9.8273 63.5012 9.65653 63.5012 9.48577C63.5012 8.41313 63.5012 7.33974 63.5012 6.2671C63.5012 6.07194 63.5035 5.87678 63.511 5.68238C63.5194 5.47349 63.6233 5.366 63.8205 5.3538C63.8933 5.34923 63.9661 5.34618 64.0389 5.34618C65.9545 5.34008 67.8701 5.35304 69.7858 5.30273C70.9491 5.27223 72.1147 5.29891 73.2788 5.2951C73.4714 5.2951 73.6648 5.27452 73.8575 5.25927C73.9356 5.25241 74.041 5.14873 74.0501 5.06335C74.0721 4.84608 74.1009 4.62804 74.1016 4.41077C74.107 3.31374 74.1039 2.21595 74.1047 1.11893C74.1047 0.899367 74.107 0.679809 74.1161 0.461013C74.1191 0.389352 74.1327 0.31083 74.1676 0.250603C74.201 0.192665 74.2609 0.12634 74.3201 0.11338C74.4604 0.0828855 74.6075 0.0722126 74.7516 0.0706879C76.4731 0.0523914 78.1945 0.0668761 79.9168 0.0318078C82.2207 -0.0146958 84.5254 0.00283832 86.8301 0.00512539C89.2796 0.00741245 91.7299 0.0234219 94.1794 0.0356196C95.2214 0.040956 95.1554 -0.0573877 95.157 1.03049C95.1585 2.17631 95.1554 3.32289 95.1592 4.46871C95.16 4.68674 95.1827 4.90554 95.2002 5.12281C95.207 5.20438 95.3102 5.30578 95.3958 5.3134C95.6127 5.3317 95.8296 5.35533 96.0465 5.35609C97.1621 5.36067 98.2784 5.35685 99.394 5.35914C99.5873 5.35914 99.7815 5.36753 99.9749 5.38277C100.111 5.39345 100.253 5.53143 100.264 5.67247C100.284 5.93929 100.299 6.20688 100.299 6.47446C100.302 11.0097 100.301 15.5457 100.301 20.081C100.301 20.2517 100.302 20.4225 100.296 20.5933C100.293 20.6901 100.28 20.7877 100.265 20.8837C100.238 21.053 100.095 21.1932 99.9187 21.2077C99.7019 21.2253 99.4834 21.2352 99.2658 21.2359C98.2473 21.239 97.2281 21.2359 96.2096 21.239C95.9919 21.2397 95.7743 21.255 95.5574 21.2748C95.4148 21.2878 95.2821 21.4273 95.2692 21.5645C95.2555 21.7101 95.2464 21.8565 95.2457 22.0021C95.2442 23.2455 95.2442 24.4897 95.2457 25.7331C95.2457 25.8787 95.2548 26.025 95.2677 26.1707C95.2798 26.3102 95.4133 26.4321 95.5627 26.4489C95.6347 26.4565 95.7075 26.4664 95.7803 26.4664C97.1386 26.468 98.4976 26.468 99.8558 26.4664C99.9521 26.4664 100.048 26.452 100.145 26.439C100.246 26.4253 100.384 26.298 100.392 26.1973C100.41 25.9793 100.428 25.7605 100.429 25.5417C100.433 24.4935 100.431 23.4445 100.431 22.3962C100.431 22.2011 100.43 22.0059 100.438 21.8115C100.454 21.4402 100.567 21.3236 100.916 21.3122C101.11 21.3061 101.304 21.3084 101.498 21.3084C102.663 21.3084 103.827 21.3084 104.991 21.3076C105.21 21.3076 105.433 21.3251 105.644 21.287C106.007 21.2222 106.369 21.2306 106.732 21.2298C107.872 21.2275 109.012 21.2298 110.152 21.2275C110.37 21.2275 110.587 21.2146 110.805 21.2001C110.921 21.1925 111.035 21.0789 111.042 20.96C111.058 20.7412 111.071 20.5224 111.071 20.3036C111.074 19.2309 111.073 18.1575 111.073 17.0849C111.073 16.8898 111.071 16.6946 111.077 16.4994C111.091 16.0862 111.152 16.023 111.537 16.0108C111.634 16.0077 111.731 16.0085 111.828 16.0077C113.793 15.9993 115.757 15.9879 117.722 15.9848C119.954 15.981 122.186 15.9856 124.418 15.9833C126.77 15.981 129.121 16.0778 131.474 16.0405C131.571 16.039 131.668 16.0451 131.764 16.0527C131.944 16.0656 132.076 16.1975 132.086 16.3858C132.098 16.5802 132.102 16.7754 132.102 16.9706C132.103 18.1652 132.102 19.3605 132.104 20.5552C132.104 20.7496 132.126 20.9432 132.138 21.1376C132.369 21.5424 132.316 21.9876 132.318 22.4244C132.322 23.4239 132.318 24.4241 132.32 25.4235C132.32 25.6431 132.324 25.8627 132.337 26.0815C132.353 26.3102 132.486 26.4474 132.703 26.4611C132.921 26.4741 133.139 26.4786 133.357 26.4786C134.473 26.4802 135.589 26.4786 136.705 26.4809C136.947 26.4809 137.194 26.4581 137.424 26.5534C137.678 26.6593 137.943 26.6662 138.21 26.6662C139.52 26.6662 140.83 26.6677 142.14 26.6647C142.309 26.6647 142.487 26.6708 142.645 26.622C142.978 26.5183 143.316 26.5274 143.655 26.5274C144.891 26.5259 146.129 26.5305 147.366 26.5244C148.028 26.5213 148.058 26.4908 148.061 25.8169C148.066 24.6955 148.062 23.5733 148.063 22.4519C148.063 22.2323 148.061 22.0128 148.068 21.7932C148.07 21.6964 148.087 21.6003 148.101 21.5043C148.113 21.4174 148.211 21.3183 148.294 21.3114C148.438 21.3 148.583 21.287 148.728 21.2862C150.669 21.2748 152.609 21.2634 154.549 21.2565C157.46 21.2458 160.37 21.2397 163.282 21.2275C163.547 21.226 163.813 21.1917 164.078 21.1719C164.319 21.1536 164.56 21.1178 164.802 21.1162C165.991 21.1101 167.18 21.1109 168.368 21.1162C168.586 21.117 168.81 21.1178 169.018 21.1704C169.33 21.2489 169.642 21.2573 169.956 21.2573C171.169 21.2573 172.382 21.2565 173.595 21.2573C174.519 21.258 174.484 21.2009 174.485 22.1149C174.488 24.3097 174.495 26.5038 174.495 28.6986C174.495 31.2098 174.489 33.7218 174.485 36.233C174.484 37.2568 174.555 37.2256 173.49 37.2248C172.398 37.2248 171.306 37.2233 170.215 37.2263C169.997 37.2263 169.78 37.2416 169.563 37.2568C169.45 37.2644 169.335 37.3849 169.328 37.5015C169.312 37.7203 169.299 37.9391 169.299 38.1579C169.296 39.3281 169.3 40.4991 169.295 41.6693C169.294 41.9117 169.296 42.1618 169.241 42.3951C169.173 42.6848 169.162 42.9737 169.162 43.2657C169.161 44.3627 169.162 45.4605 169.162 46.5575C169.162 46.7283 169.162 46.8991 169.161 47.0698C169.16 47.1674 169.157 47.265 169.151 47.3618C169.134 47.6347 169.027 47.7377 168.733 47.7514C168.515 47.7613 168.296 47.7613 168.079 47.7613C167.06 47.7621 166.041 47.7613 165.022 47.7621C164.804 47.7621 164.586 47.7621 164.368 47.7727C164.272 47.7773 164.171 47.791 164.084 47.8276C164.025 47.8528 163.97 47.9176 163.941 47.9778C163.91 48.0403 163.903 48.1181 163.9 48.1897C163.893 48.3849 163.892 48.5801 163.892 48.7745C163.892 49.9203 163.893 51.0669 163.891 52.2127C163.891 52.4315 163.881 52.651 163.87 52.8698C163.864 52.9895 163.756 53.0879 163.625 53.094C163.408 53.1039 163.189 53.11 162.971 53.1107C161.855 53.1123 160.739 53.1107 159.624 53.1115C159.429 53.1115 159.235 53.1115 159.041 53.1191C158.741 53.1313 158.651 53.2198 158.635 53.511C158.628 53.6329 158.626 53.7549 158.626 53.8761C158.626 55.1439 158.626 56.4125 158.626 57.6803C158.626 57.7779 158.626 57.8755 158.63 57.973C158.646 58.3923 158.716 58.4579 159.162 58.4731C159.21 58.4747 159.259 58.4754 159.307 58.4754C160.666 58.4754 162.025 58.4754 163.383 58.4747C163.503 58.4747 163.625 58.464 163.745 58.451C163.883 58.4365 164.017 58.3115 164.033 58.1636C164.058 57.9463 164.077 57.7276 164.079 57.5088C164.083 56.4849 164.08 55.4603 164.082 54.4365C164.082 54.2169 164.081 53.9974 164.092 53.7786C164.109 53.4393 164.242 53.312 164.598 53.2929C164.792 53.2823 164.987 53.2838 165.18 53.2838C166.151 53.283 167.121 53.2838 168.091 53.2838C168.48 53.2838 168.864 53.2762 169.249 53.1931C169.482 53.142 169.731 53.1511 169.972 53.1504C171.161 53.1466 172.35 53.1489 173.538 53.1481C173.974 53.1481 174.408 53.1481 174.841 53.0558C175.098 53.001 175.372 53.0147 175.638 53.0132C176.632 53.0093 177.627 53.0116 178.621 53.0109C178.816 53.0109 179.01 53.0109 179.203 53.0032C179.299 52.9987 179.396 52.9842 179.489 52.9567C179.612 52.9201 179.698 52.8317 179.732 52.7082C179.758 52.6152 179.772 52.5169 179.776 52.4208C179.783 52.2256 179.782 52.0305 179.782 51.8361C179.782 50.861 179.781 49.8852 179.784 48.9102C179.785 48.6914 179.798 48.4726 179.817 48.2538C179.829 48.1089 179.966 47.9748 180.102 47.961C180.222 47.9488 180.344 47.9412 180.464 47.9412C181.75 47.9397 183.036 47.9404 184.321 47.9404C184.37 47.9404 184.418 47.9404 184.467 47.942C184.864 47.9542 184.962 48.0556 184.975 48.481C184.981 48.6761 184.979 48.8713 184.979 49.0664C184.979 50.0659 184.979 51.0661 184.98 52.0655C184.98 52.2851 184.98 52.5047 184.995 52.7235C185.014 53.0299 185.155 53.1763 185.442 53.1915C185.66 53.203 185.878 53.203 186.097 53.2037C187.236 53.2053 188.377 53.2015 189.517 53.206C190.161 53.2083 190.224 53.2685 190.227 53.9158C190.233 55.1592 190.23 56.4033 190.227 57.6467C190.227 57.7924 190.212 57.9387 190.196 58.0836C190.186 58.188 190.058 58.3237 189.958 58.3329C189.766 58.3504 189.572 58.3664 189.379 58.3672C188.263 58.3702 187.147 58.3672 186.031 58.3702C185.814 58.3702 185.596 58.3855 185.378 58.403C185.237 58.4144 185.109 58.5433 185.087 58.6874C185.068 58.807 185.049 58.929 185.049 59.0495C185.046 60.4392 185.047 61.829 185.049 63.2188C185.049 63.2912 185.059 63.3644 185.067 63.4368C185.089 63.6335 185.204 63.7563 185.393 63.7662C185.659 63.7791 185.926 63.7852 186.192 63.7852C190.632 63.7822 195.07 63.7784 199.51 63.7746C199.704 63.7746 199.898 63.7746 200.092 63.7746C200.214 63.7746 200.335 63.7738 200.456 63.7776C200.939 63.7944 201.031 63.8904 201.05 64.4004C201.058 64.5956 201.055 64.7908 201.055 64.9859C201.055 65.9854 201.055 66.9856 201.055 67.985C201.055 68.1802 201.053 68.3754 201.061 68.5698C201.077 68.9586 201.196 69.0729 201.604 69.0904C201.798 69.0988 201.993 69.0965 202.187 69.0965C203.109 69.0965 204.03 69.0965 204.953 69.0965C205.147 69.0965 205.341 69.0943 205.535 69.1026C205.968 69.1209 206.088 69.2353 206.09 69.6881C206.097 71.0535 206.093 72.4189 206.09 73.7843C206.09 73.8796 206.07 73.9779 206.044 74.0701C206.017 74.1693 205.943 74.2478 205.843 74.2607C205.652 74.2851 205.458 74.2989 205.265 74.2996C204.125 74.3034 202.985 74.2996 201.845 74.3019C200.93 74.3042 200.928 74.3065 200.925 75.2449C200.922 76.3664 200.925 77.4885 200.924 78.61C200.924 78.8051 200.926 79.0003 200.92 79.1955C200.907 79.6552 200.832 79.7261 200.347 79.7398C200.153 79.7451 199.959 79.7428 199.765 79.7428C198.673 79.7428 197.581 79.7413 196.49 79.7451C196.297 79.7451 196.104 79.7657 195.911 79.7825C195.829 79.7893 195.723 79.8945 195.717 79.9761C195.699 80.1941 195.678 80.4122 195.677 80.631C195.673 81.8012 195.675 82.9722 195.676 84.1424C195.676 84.2887 195.676 84.4351 195.682 84.5815C195.685 84.6539 195.701 84.7256 195.711 84.798C195.725 84.8864 195.817 84.9893 195.898 84.997C196.067 85.0122 196.236 85.0305 196.404 85.0313C199.339 85.0488 202.273 85.0648 205.208 85.0801C205.427 85.0816 205.645 85.0785 205.863 85.0831C206.165 85.09 206.259 85.1761 206.273 85.4666C206.283 85.6854 206.283 85.9057 206.283 86.1245C206.284 87.1971 206.283 88.2705 206.284 89.3432C206.284 89.5627 206.291 89.7815 206.303 90.0011C206.311 90.1566 206.428 90.2801 206.576 90.2892C206.794 90.303 207.012 90.3121 207.23 90.3121C208.37 90.3144 209.51 90.3106 210.65 90.3159C210.867 90.3167 211.085 90.3388 211.299 90.3701C211.356 90.3784 211.417 90.4516 211.447 90.5103C211.478 90.5721 211.482 90.6521 211.482 90.7238C211.484 92.2599 211.484 93.7961 211.481 95.3322C211.481 95.4046 211.477 95.4839 211.447 95.5464C211.417 95.6059 211.359 95.6661 211.299 95.6905C211.211 95.7271 211.112 95.7446 211.017 95.7485C210.775 95.7584 210.532 95.7584 210.289 95.7584C209.149 95.7599 208.009 95.7561 206.869 95.7629C206.42 95.766 206.324 95.8666 206.322 96.3347C206.317 97.6513 206.319 98.9679 206.322 100.285C206.322 100.406 206.339 100.528 206.354 100.649C206.366 100.742 206.507 100.889 206.598 100.897C206.791 100.914 206.984 100.932 207.178 100.932C208.342 100.935 209.507 100.932 210.671 100.935C210.913 100.935 211.164 100.916 211.395 100.971C211.708 101.046 212.02 101.044 212.334 101.045C213.498 101.047 214.663 101.045 215.827 101.046C216.021 101.046 216.215 101.046 216.409 101.054C216.61 101.063 216.735 101.174 216.747 101.362C216.761 101.581 216.769 101.801 216.77 102.02C216.772 103.092 216.77 104.166 216.771 105.238C216.771 105.458 216.77 105.677 216.782 105.896C216.801 106.272 216.939 106.399 217.333 106.423C217.406 106.428 217.479 106.43 217.551 106.43C218.934 106.43 220.317 106.428 221.7 106.426C221.796 106.426 221.893 106.41 221.989 106.402L222 106.391ZM158.539 37.2156C158.539 35.8503 158.539 34.4849 158.539 33.1195C158.539 32.9 158.541 32.6804 158.531 32.4616C158.513 32.0934 158.396 31.9729 158.052 31.9554C157.931 31.9493 157.809 31.9485 157.688 31.9478C156.548 31.9478 155.408 31.947 154.268 31.9478C154.122 31.9478 153.977 31.9531 153.832 31.963C153.613 31.979 153.487 32.1109 153.474 32.345C153.462 32.5638 153.46 32.7833 153.46 33.0029C153.458 34.0755 153.461 35.1489 153.457 36.2215C153.456 36.4403 153.438 36.6591 153.419 36.8772C153.409 36.9885 153.281 37.1043 153.169 37.1104C152.976 37.1219 152.782 37.131 152.588 37.131C151.351 37.1325 150.114 37.131 148.877 37.1333C148.66 37.1333 148.442 37.1524 148.225 37.1676C148.143 37.173 148.042 37.2766 148.036 37.3613C148.02 37.5793 148.001 37.7981 148 38.0161C147.996 39.2107 148 40.4053 147.997 41.5999C147.997 41.7936 147.978 41.9872 147.962 42.1809C147.955 42.2617 147.846 42.3653 147.763 42.3707C147.571 42.3829 147.377 42.3966 147.184 42.3974C146.02 42.3997 144.855 42.3974 143.691 42.3997C143.473 42.3997 143.254 42.4035 143.037 42.4187C142.876 42.4301 142.763 42.4957 142.736 42.6825C142.701 42.9219 142.679 43.1658 142.678 43.4082C142.672 44.5297 142.677 45.6511 142.673 46.7733C142.672 46.9921 142.654 47.2109 142.634 47.4281C142.624 47.5379 142.498 47.6538 142.386 47.6614C142.168 47.6752 141.951 47.6881 141.733 47.6881C140.69 47.6912 139.647 47.6889 138.604 47.6896C138.41 47.6896 138.216 47.6873 138.021 47.6942C137.56 47.711 137.456 47.8131 137.438 48.25C137.434 48.3719 137.434 48.4939 137.434 48.6159C137.434 49.8349 137.434 51.0539 137.434 52.2729C137.434 52.4437 137.437 52.6144 137.447 52.7844C137.45 52.8561 137.46 52.9354 137.494 52.9956C137.528 53.0536 137.589 53.1191 137.649 53.1321C137.789 53.1626 137.936 53.1748 138.08 53.1748C139.487 53.1778 140.893 53.1771 142.3 53.1763C142.421 53.1763 142.546 53.1854 142.663 53.161C143.047 53.081 143.435 53.1001 143.822 53.0993C144.938 53.097 146.054 53.1008 147.17 53.097C147.386 53.097 147.604 53.0764 147.821 53.0604C147.906 53.0543 148 52.9529 148.012 52.866C148.025 52.77 148.041 52.6731 148.044 52.5763C148.05 52.3812 148.048 52.186 148.049 51.9908C148.049 50.9182 148.047 49.8456 148.05 48.7722C148.05 48.5534 148.061 48.3338 148.077 48.1158C148.087 47.9656 148.209 47.8528 148.369 47.8429C148.586 47.8291 148.805 47.8208 149.022 47.8208C150.138 47.8185 151.254 47.8208 152.37 47.8192C152.588 47.8192 152.807 47.8162 153.024 47.8047C153.249 47.7933 153.365 47.669 153.376 47.4259C153.387 47.2071 153.388 46.9875 153.388 46.7679C153.389 45.6709 153.388 44.5739 153.39 43.4761C153.39 43.2565 153.393 43.037 153.406 42.8182C153.419 42.5834 153.542 42.4492 153.761 42.4324C153.978 42.4157 154.197 42.4088 154.414 42.4088C155.408 42.4065 156.403 42.408 157.398 42.4073C157.592 42.4073 157.786 42.4096 157.98 42.4035C158.419 42.389 158.517 42.2861 158.534 41.821C158.541 41.6259 158.538 41.4307 158.538 41.2363C158.538 39.8953 158.538 38.5543 158.538 37.2134L158.539 37.2156ZM76.718 15.8613C76.0393 15.8613 75.3605 15.859 74.6818 15.8636C74.5134 15.8644 74.3443 15.885 74.176 15.9048C74.0645 15.9177 73.9477 16.0374 73.9394 16.1495C73.9227 16.3675 73.906 16.5863 73.9052 16.8051C73.9022 17.9258 73.9045 19.0472 73.903 20.1679C73.903 20.3623 73.8954 20.5574 73.8832 20.7518C73.8741 20.8906 73.7399 21.027 73.5958 21.0385C73.3789 21.056 73.1613 21.0682 72.9436 21.069C71.8531 21.072 70.7618 21.0675 69.6713 21.0736C69.4301 21.0751 69.1738 21.0614 68.9516 21.1353C68.5716 21.2619 68.1894 21.2603 67.8019 21.2611C66.6628 21.2619 65.523 21.2596 64.3839 21.2634C64.167 21.2634 63.9501 21.284 63.7332 21.3007C63.6506 21.3068 63.5474 21.4105 63.5406 21.4944C63.5232 21.7124 63.5027 21.9304 63.5019 22.1485C63.4981 23.3423 63.5012 24.5369 63.4989 25.7308C63.4989 25.9984 63.5179 26.2675 63.4443 26.5305C63.3647 26.8156 63.3609 27.1076 63.3601 27.4003C63.3601 27.7175 63.3601 28.0338 63.3601 28.351C63.3601 29.1797 63.3594 30.0083 63.3609 30.8363C63.3609 31.0314 63.3632 31.2266 63.3768 31.4202C63.4011 31.7526 63.5088 31.8586 63.8205 31.8761C63.8447 31.8776 63.869 31.8792 63.8933 31.8792C65.3478 31.8792 66.8024 31.8792 68.2569 31.8776C68.3525 31.8776 68.4488 31.8571 68.5443 31.8426C68.6156 31.8319 68.7332 31.7175 68.7385 31.6451C68.7544 31.4271 68.7741 31.2083 68.7749 30.9903C68.7787 29.8452 68.7749 28.6994 68.7779 27.5543C68.7779 27.3355 68.7931 27.1175 68.809 26.8995C68.8173 26.7836 68.9349 26.6624 69.0441 26.654C69.261 26.638 69.4786 26.622 69.6963 26.6212C70.8596 26.6182 72.0237 26.6212 73.1871 26.6174C73.4282 26.6166 73.6823 26.6319 73.9083 26.5656C74.267 26.4603 74.6249 26.4588 74.9882 26.4588C76.1758 26.4573 77.3641 26.4611 78.5517 26.455C79.1 26.452 79.1819 26.3643 79.1986 25.8207C79.2039 25.65 79.2017 25.48 79.2017 25.3092C79.2017 24.3097 79.2017 23.3111 79.2017 22.3116C79.2017 22.1165 79.2032 21.9213 79.2153 21.7269C79.2214 21.6316 79.2464 21.5348 79.276 21.4433C79.3154 21.319 79.4057 21.2314 79.5346 21.2199C79.7515 21.1993 79.9691 21.1894 80.1868 21.1887C81.3501 21.1856 82.5142 21.1887 83.6775 21.1856C83.8944 21.1856 84.1113 21.1643 84.3282 21.1475C84.4124 21.1406 84.5178 21.0377 84.5254 20.9569C84.5421 20.7877 84.5633 20.6184 84.5633 20.4492C84.5664 19.2065 84.5656 17.9639 84.5641 16.7205C84.5641 16.5749 84.5557 16.4285 84.5451 16.2829C84.5337 16.1297 84.4177 15.9963 84.2751 15.9848C84.0583 15.9665 83.8406 15.9521 83.6229 15.9521C82.5081 15.949 81.3926 15.9521 80.2778 15.949C80.0116 15.949 79.7447 15.9353 79.4785 15.9216C79.1645 15.9056 78.8513 15.8697 78.5366 15.8651C77.9306 15.856 77.3247 15.8621 76.7188 15.8621L76.718 15.8613ZM111.152 42.4782C111.152 42.4873 111.152 42.4957 111.152 42.5049C112.727 42.5049 114.302 42.5049 115.877 42.5033C115.973 42.5033 116.069 42.482 116.164 42.4675C116.245 42.4553 116.338 42.3547 116.344 42.2647C116.358 42.0467 116.375 41.8279 116.375 41.6099C116.378 40.3672 116.378 39.1253 116.376 37.8827C116.375 37.1852 116.438 37.1882 117.073 37.1867C118.261 37.1844 119.447 37.1867 120.635 37.1852C120.853 37.1852 121.071 37.1821 121.289 37.173C121.494 37.1638 121.605 37.0594 121.622 36.8642C121.635 36.7186 121.643 36.5722 121.644 36.4266C121.646 35.7931 121.645 35.1603 121.645 34.5268C121.645 33.8445 121.65 33.163 121.641 32.4807C121.635 31.9455 121.57 31.8845 121.066 31.8723C120.944 31.8693 120.823 31.87 120.703 31.87C117.819 31.87 114.935 31.8693 112.052 31.87C111.01 31.87 111.067 31.8281 111.064 32.871C111.063 34.016 111.066 35.1603 111.062 36.3054C111.062 36.5234 111.042 36.7422 111.028 36.9603C111.022 37.0441 110.923 37.1539 110.842 37.1615C110.626 37.1821 110.41 37.208 110.193 37.2088C109.078 37.2134 107.964 37.2103 106.849 37.2118C106.632 37.2118 106.413 37.2156 106.196 37.2263C105.994 37.2362 105.878 37.3475 105.858 37.5374C105.848 37.6342 105.838 37.7318 105.838 37.8286C105.836 39.168 105.836 40.5083 105.839 41.8477C105.839 41.9682 105.86 42.0894 105.884 42.2083C105.905 42.3089 105.971 42.3905 106.072 42.4088C106.237 42.4393 106.406 42.466 106.573 42.4683C107.131 42.4759 107.688 42.4713 108.246 42.4721C109.215 42.4736 110.184 42.4767 111.152 42.4789L111.152 42.4782ZM155.986 63.6815C156.542 63.6815 157.098 63.6831 157.655 63.6815C157.848 63.6815 158.042 63.6793 158.235 63.6671C158.494 63.651 158.612 63.5215 158.629 63.2417C158.635 63.1448 158.638 63.0473 158.638 62.9504C158.638 61.7101 158.638 60.4697 158.638 59.2302C158.638 58.6088 158.544 58.5097 157.927 58.5097C156.669 58.5082 155.411 58.5082 154.153 58.5113C154.009 58.5113 153.864 58.5303 153.721 58.5501C153.59 58.5684 153.458 58.7087 153.441 58.8497C153.422 58.9938 153.406 59.1394 153.406 59.285C153.403 60.501 153.403 61.717 153.406 62.9329C153.406 63.0778 153.424 63.2234 153.443 63.3682C153.46 63.5039 153.598 63.6373 153.737 63.6503C153.93 63.6678 154.123 63.6808 154.316 63.6823C154.872 63.6861 155.428 63.6838 155.985 63.6838L155.986 63.6815Z" fill="#C7CAD1"/>
</svg>
