<svg width="108" height="108" viewBox="0 0 108 108" fill="none" xmlns="http://www.w3.org/2000/svg">
<g clip-path="url(#clip0_373_8153)">
<rect y="20" width="8" height="8" fill="#ABB0BA"/>
<rect y="30" width="8" height="8" fill="#ABB0BA"/>
<rect y="40" width="8" height="8" fill="#ABB0BA"/>
<rect y="50" width="8" height="8" fill="#ABB0BA"/>
<rect y="60" width="8" height="8" fill="#ABB0BA"/>
<rect y="70" width="8" height="8" fill="#ABB0BA"/>
<rect x="10" y="10" width="8" height="8" fill="#ABB0BA"/>
<rect x="10" y="20" width="8" height="8" fill="#ABB0BA"/>
<rect x="10" y="30" width="8" height="8" fill="#ABB0BA"/>
<rect x="10" y="40" width="8" height="8" fill="#ABB0BA"/>
<rect x="10" y="50" width="8" height="8" fill="#ABB0BA"/>
<rect x="10" y="60" width="8" height="8" fill="#ABB0BA"/>
<rect x="10" y="70" width="8" height="8" fill="#ABB0BA"/>
<rect x="10" y="80" width="8" height="8" fill="#ABB0BA"/>
<rect x="20" width="8" height="8" fill="#ABB0BA"/>
<rect x="20" y="10" width="8" height="8" fill="#ABB0BA"/>
<rect x="20" y="20" width="8" height="8" fill="#ABB0BA"/>
<rect x="20" y="30" width="8" height="8" fill="#ABB0BA"/>
<rect x="20" y="40" width="8" height="8" fill="#ABB0BA"/>
<rect x="20" y="50" width="8" height="8" fill="#ABB0BA"/>
<rect x="20" y="60" width="8" height="8" fill="#ABB0BA"/>
<rect x="20" y="70" width="8" height="8" fill="#ABB0BA"/>
<rect x="20" y="80" width="8" height="8" fill="#ABB0BA"/>
<rect x="20" y="90" width="8" height="8" fill="#ABB0BA"/>
<rect x="30" width="8" height="8" fill="#ABB0BA"/>
<rect x="30" y="10" width="8" height="8" fill="#ABB0BA"/>
<rect x="30" y="20" width="8" height="8" fill="#ABB0BA"/>
<rect x="30" y="60" width="8" height="8" fill="#ABB0BA"/>
<rect x="30" y="70" width="8" height="8" fill="#ABB0BA"/>
<rect x="30" y="80" width="8" height="8" fill="#ABB0BA"/>
<rect x="30" y="90" width="8" height="8" fill="#ABB0BA"/>
<rect x="30" y="100" width="8" height="8" fill="#ABB0BA"/>
<rect x="40" width="8" height="8" fill="#ABB0BA"/>
<rect x="40" y="70" width="8" height="8" fill="#ABB0BA"/>
<rect x="40" y="80" width="8" height="8" fill="#ABB0BA"/>
<rect x="40" y="90" width="8" height="8" fill="#ABB0BA"/>
<rect x="40" y="100" width="8" height="8" fill="#ABB0BA"/>
<rect x="50" y="30" width="8" height="8" fill="#ABB0BA"/>
<rect x="50" y="40" width="8" height="8" fill="#ABB0BA"/>
<rect x="50" y="80" width="8" height="8" fill="#ABB0BA"/>
<rect x="50" y="90" width="8" height="8" fill="#ABB0BA"/>
<rect x="50" y="100" width="8" height="8" fill="#ABB0BA"/>
<rect x="60" y="20" width="8" height="8" fill="#ABB0BA"/>
<rect x="60" y="30" width="8" height="8" fill="#ABB0BA"/>
<rect x="60" y="40" width="8" height="8" fill="#ABB0BA"/>
<rect x="60" y="50" width="8" height="8" fill="#ABB0BA"/>
<rect x="60" y="80" width="8" height="8" fill="#ABB0BA"/>
<rect x="60" y="90" width="8" height="8" fill="#ABB0BA"/>
<rect x="60" y="100" width="8" height="8" fill="#ABB0BA"/>
<rect x="70" y="30" width="8" height="8" fill="#ABB0BA"/>
<rect x="70" y="40" width="8" height="8" fill="#ABB0BA"/>
<rect x="70" y="80" width="8" height="8" fill="#ABB0BA"/>
<rect x="70" y="90" width="8" height="8" fill="#ABB0BA"/>
<rect x="70" y="100" width="8" height="8" fill="#ABB0BA"/>
<rect x="80" y="10" width="8" height="8" fill="#ABB0BA"/>
<rect x="80" y="70" width="8" height="8" fill="#ABB0BA"/>
<rect x="80" y="80" width="8" height="8" fill="#ABB0BA"/>
<rect x="80" y="90" width="8" height="8" fill="#ABB0BA"/>
<rect x="90" width="8" height="8" fill="#ABB0BA"/>
<rect x="90" y="10" width="8" height="8" fill="#ABB0BA"/>
<rect x="90" y="20" width="8" height="8" fill="#ABB0BA"/>
<rect x="90" y="70" width="8" height="8" fill="#ABB0BA"/>
<rect x="90" y="80" width="8" height="8" fill="#ABB0BA"/>
<rect x="100" y="10" width="8" height="8" fill="#ABB0BA"/>
<rect x="100" y="60" width="8" height="8" fill="#ABB0BA"/>
<rect x="100" y="70" width="8" height="8" fill="#ABB0BA"/>
</g>
<defs>
<clipPath id="clip0_373_8153">
<rect width="108" height="108" fill="white"/>
</clipPath>
</defs>
</svg>
