<svg width="108" height="108" viewBox="0 0 108 108" fill="none" xmlns="http://www.w3.org/2000/svg">
<g clip-path="url(#clip0_890_10302)">
<rect y="50.0002" width="8" height="8" rx="4" fill="#3D3D3D"/>
<rect x="10" y="9.99976" width="8" height="8" rx="4" fill="#3D3D3D"/>
<rect x="10" y="50.0002" width="8" height="8" rx="4" fill="#3D3D3D"/>
<rect x="10" y="90" width="8" height="8" rx="4" fill="#3D3D3D"/>
<rect x="20" y="20.0002" width="8" height="8" rx="4" fill="#3D3D3D"/>
<rect x="20" y="80.0002" width="8" height="8" rx="4" fill="#3D3D3D"/>
<rect x="30" y="39.9998" width="8" height="8" rx="4" fill="#3D3D3D"/>
<rect x="30" y="50.0002" width="8" height="8" rx="4" fill="#3D3D3D"/>
<rect x="30" y="60" width="8" height="8" rx="4" fill="#3D3D3D"/>
<rect x="40" y="30" width="8" height="8" rx="4" fill="#3D3D3D"/>
<rect x="40" y="39.9998" width="8" height="8" rx="4" fill="#3D3D3D"/>
<rect x="40" y="50.0002" width="8" height="8" rx="4" fill="#3D3D3D"/>
<rect x="40" y="60" width="8" height="8" rx="4" fill="#3D3D3D"/>
<rect x="40" y="69.9998" width="8" height="8" rx="4" fill="#3D3D3D"/>
<rect x="50" width="8" height="8" rx="4" fill="#3D3D3D"/>
<rect x="50" y="9.99976" width="8" height="8" rx="4" fill="#3D3D3D"/>
<rect x="50" y="30" width="8" height="8" rx="4" fill="#3D3D3D"/>
<rect x="50" y="39.9998" width="8" height="8" rx="4" fill="#3D3D3D"/>
<rect x="50" y="50.0002" width="8" height="8" rx="4" fill="#3D3D3D"/>
<rect x="50" y="60" width="8" height="8" rx="4" fill="#3D3D3D"/>
<rect x="50" y="69.9998" width="8" height="8" rx="4" fill="#3D3D3D"/>
<rect x="50" y="90" width="8" height="8" rx="4" fill="#3D3D3D"/>
<rect x="50" y="99.9998" width="8" height="8" rx="4" fill="#3D3D3D"/>
<rect x="60" y="30" width="8" height="8" rx="4" fill="#3D3D3D"/>
<rect x="60" y="39.9998" width="8" height="8" rx="4" fill="#3D3D3D"/>
<rect x="60" y="50.0002" width="8" height="8" rx="4" fill="#3D3D3D"/>
<rect x="60" y="60" width="8" height="8" rx="4" fill="#3D3D3D"/>
<rect x="60" y="69.9998" width="8" height="8" rx="4" fill="#3D3D3D"/>
<rect x="70" y="39.9998" width="8" height="8" rx="4" fill="#3D3D3D"/>
<rect x="70" y="50.0002" width="8" height="8" rx="4" fill="#3D3D3D"/>
<rect x="70" y="60" width="8" height="8" rx="4" fill="#3D3D3D"/>
<rect x="80" y="20.0002" width="8" height="8" rx="4" fill="#3D3D3D"/>
<rect x="80" y="80.0002" width="8" height="8" rx="4" fill="#3D3D3D"/>
<rect x="90" y="9.99976" width="8" height="8" rx="4" fill="#3D3D3D"/>
<rect x="90" y="50.0002" width="8" height="8" rx="4" fill="#3D3D3D"/>
<rect x="90" y="90" width="8" height="8" rx="4" fill="#3D3D3D"/>
<rect x="100" y="50.0002" width="8" height="8" rx="4" fill="#3D3D3D"/>
</g>
<defs>
<clipPath id="clip0_890_10302">
<rect width="108" height="108" fill="white"/>
</clipPath>
</defs>
</svg>
