<svg width="108" height="108" viewBox="0 0 108 108" fill="none" xmlns="http://www.w3.org/2000/svg">
<g clip-path="url(#clip0_373_8154)">
<rect y="50" width="8" height="8" fill="#090A0B"/>
<rect x="10" y="10" width="8" height="8" fill="#090A0B"/>
<rect x="10" y="50" width="8" height="8" fill="#090A0B"/>
<rect x="10" y="90" width="8" height="8" fill="#090A0B"/>
<rect x="20" y="20" width="8" height="8" fill="#090A0B"/>
<rect x="20" y="80" width="8" height="8" fill="#090A0B"/>
<rect x="30" y="40" width="8" height="8" fill="#090A0B"/>
<rect x="30" y="50" width="8" height="8" fill="#090A0B"/>
<rect x="30" y="60" width="8" height="8" fill="#090A0B"/>
<rect x="40" y="30" width="8" height="8" fill="#090A0B"/>
<rect x="40" y="40" width="8" height="8" fill="#090A0B"/>
<rect x="40" y="50" width="8" height="8" fill="#090A0B"/>
<rect x="40" y="60" width="8" height="8" fill="#090A0B"/>
<rect x="40" y="70" width="8" height="8" fill="#090A0B"/>
<rect x="50" width="8" height="8" fill="#090A0B"/>
<rect x="50" y="10" width="8" height="8" fill="#090A0B"/>
<rect x="50" y="30" width="8" height="8" fill="#090A0B"/>
<rect x="50" y="40" width="8" height="8" fill="#090A0B"/>
<rect x="50" y="50" width="8" height="8" fill="#090A0B"/>
<rect x="50" y="60" width="8" height="8" fill="#090A0B"/>
<rect x="50" y="70" width="8" height="8" fill="#090A0B"/>
<rect x="50" y="90" width="8" height="8" fill="#090A0B"/>
<rect x="50" y="100" width="8" height="8" fill="#090A0B"/>
<rect x="60" y="30" width="8" height="8" fill="#090A0B"/>
<rect x="60" y="40" width="8" height="8" fill="#090A0B"/>
<rect x="60" y="50" width="8" height="8" fill="#090A0B"/>
<rect x="60" y="60" width="8" height="8" fill="#090A0B"/>
<rect x="60" y="70" width="8" height="8" fill="#090A0B"/>
<rect x="70" y="40" width="8" height="8" fill="#090A0B"/>
<rect x="70" y="50" width="8" height="8" fill="#090A0B"/>
<rect x="70" y="60" width="8" height="8" fill="#090A0B"/>
<rect x="80" y="20" width="8" height="8" fill="#090A0B"/>
<rect x="80" y="80" width="8" height="8" fill="#090A0B"/>
<rect x="90" y="10" width="8" height="8" fill="#090A0B"/>
<rect x="90" y="50" width="8" height="8" fill="#090A0B"/>
<rect x="90" y="90" width="8" height="8" fill="#090A0B"/>
<rect x="100" y="50" width="8" height="8" fill="#090A0B"/>
</g>
<defs>
<clipPath id="clip0_373_8154">
<rect width="108" height="108" fill="white"/>
</clipPath>
</defs>
</svg>
