<svg width="62" height="26" viewBox="0 0 62 26" fill="none" xmlns="http://www.w3.org/2000/svg">
<path fill-rule="evenodd" clip-rule="evenodd" d="M3.57625 5.86842C4.58012 5.86842 5.41667 5.03187 5.41667 4.0071C5.41667 3.00324 4.58012 2.16669 3.57625 2.16669C2.55148 2.16669 1.71493 3.00324 1.71493 4.0071C1.71493 5.03187 2.55148 5.86842 3.57625 5.86842ZM8.38642 7.12325C3.76448 7.12325 0 10.8459 0 15.4888C0 20.1107 3.76448 23.8334 8.38642 23.8334C13.0293 23.8334 16.7938 20.1107 16.7938 15.4888C16.7938 10.8459 13.0293 7.12325 8.38642 7.12325ZM8.38642 20.3408C5.81403 20.3408 3.70174 18.0612 3.70174 15.4888C3.70174 12.8955 5.81403 10.6159 8.38642 10.6159C10.9797 10.6159 13.092 12.8955 13.092 15.4888C13.092 18.0612 10.9797 20.3408 8.38642 20.3408ZM15.037 4.0071C15.037 5.03187 14.2005 5.86842 13.1966 5.86842C12.1718 5.86842 11.3353 5.03187 11.3353 4.0071C11.3353 3.00324 12.1718 2.16669 13.1966 2.16669C14.2005 2.16669 15.037 3.00324 15.037 4.0071ZM8.38642 5.86842C9.39028 5.86842 10.2268 5.03187 10.2268 4.0071C10.2268 3.00324 9.39028 2.16669 8.38642 2.16669C7.36165 2.16669 6.5251 3.00324 6.5251 4.0071C6.5251 5.03187 7.36165 5.86842 8.38642 5.86842ZM41.3674 7.41604H45.4456L39.6943 15.3842L46.1149 23.5406H41.7439L36.5364 16.8272V23.5406H32.8346V2.43857H36.5364V14.1294L41.3674 7.41604ZM31.0988 7.41604H27.0206L22.1895 14.1294V2.43857H18.4878V23.5406H22.1895V16.8272L27.397 23.5406H31.768L25.3475 15.3842L31.0988 7.41604ZM44.3163 15.4888C44.3163 10.8459 48.0808 7.12325 52.7027 7.12325C57.3456 7.12325 61.11 10.8459 61.11 15.4888C61.11 20.1107 57.3456 23.8334 52.7027 23.8334C48.0808 23.8334 44.3163 20.1107 44.3163 15.4888ZM47.9971 15.4888C47.9971 18.0612 50.1094 20.3408 52.6818 20.3408C55.2751 20.3408 57.3874 18.0612 57.3874 15.4888C57.3874 12.8955 55.2751 10.6159 52.6818 10.6159C50.1094 10.6159 47.9971 12.8955 47.9971 15.4888Z" fill="#ABB0BA"/>
</svg>
